<?xml version="1.0" encoding="utf-8"?>
<!-- Generator: Adobe Illustrator 22.0.1, SVG Export Plug-In . SVG Version: 6.00 Build 0)  -->
<svg version="1.1" id="Capa_1" xmlns="http://www.w3.org/2000/svg" xmlns:xlink="http://www.w3.org/1999/xlink" x="0px" y="0px"
	 viewBox="0 0 420.8 420.8" style="enable-background:new 0 0 420.8 420.8;" xml:space="preserve">
<style type="text/css">
	.st0{fill:#0288D1;}
</style>
<g>
	<g id="Layer_8_58_">
		<path class="st0" d="M210.4,0C94.4,0,0,94.4,0,210.4c0,116,94.4,210.4,210.4,210.4s210.4-94.4,210.4-210.4
			C420.8,94.4,326.4,0,210.4,0z M210.4,386.5c-97.1,0-176.1-79-176.1-176.1c0-97.1,79-176.1,176.1-176.1
			c97.1,0,176.1,79,176.1,176.1C386.5,307.5,307.5,386.5,210.4,386.5z M319.1,156.3c3.5,5.1,2.2,12.1-2.9,15.6L214.7,242
			c-1.9,1.3-4.1,2-6.4,2c-1.8,0-3.6-0.4-5.2-1.3c-3.7-1.9-6-5.8-6-9.9V82.6c0-6.2,5-11.2,11.2-11.2c6.2,0,11.2,5,11.2,11.2v128.8
			l84-58C308.6,149.9,315.6,151.2,319.1,156.3z"/>
	</g>
</g>
</svg>
