<?xml version="1.0" encoding="utf-8"?>
<!-- Generator: Adobe Illustrator 22.0.1, SVG Export Plug-In . SVG Version: 6.00 Build 0)  -->
<svg version="1.1" id="_x31_" xmlns="http://www.w3.org/2000/svg" xmlns:xlink="http://www.w3.org/1999/xlink" x="0px" y="0px"
	 viewBox="0 0 600.2 600.3" style="enable-background:new 0 0 600.2 600.3;" xml:space="preserve">
<style type="text/css">
	.st0{fill-rule:evenodd;clip-rule:evenodd;fill:#082542;}
	.st1{display:none;fill-rule:evenodd;clip-rule:evenodd;fill:#FEFEFE;}
</style>
<g>
	<path class="st0" d="M296.4-0.1h6.2c36.4,0.5,72.7,7.2,106.6,20.6c39.6,15.4,75.7,39.4,105.3,69.8c28.4,29,50.9,63.9,65.4,101.8
		c12.9,33.2,19.5,68.8,20,104.4v6c-0.5,46.5-11.7,93-33.1,134.3C534,501.2,477.1,552.8,409.9,579c-34.1,13.6-70.7,20.4-107.4,20.9
		h-6.2c-41.7-0.6-83.3-9.7-121.2-27.2c-38-17.4-72.3-42.8-100-74.1C45.3,464.9,23.1,424.3,11,380.9C3.8,355.4,0.3,329-0.1,302.5
		v-6.1c0.6-32.3,5.9-64.6,16.7-95.1c13.6-39.2,35.6-75.5,63.9-105.9c27.5-29.5,61-53.4,97.8-69.8C215.3,9.1,255.8,0.6,296.4-0.1
		L296.4-0.1z M273.5,13.8c-49.4,4.4-97.6,22-138.2,50.6c-42.7,29.8-77.1,71.4-98.1,119C8,248.5,4.6,324.6,27.7,392.1
		c15.1,44.8,41.6,85.7,76.2,117.9c30.4,28.5,67.1,50.2,106.8,63.1c45.9,15,95.6,18.1,143,9.1c41.3-7.8,80.8-24.9,114.8-49.6
		c30-21.7,55.7-49.3,75.3-80.7c22.5-35.9,36.8-76.8,41.5-118.9c5.5-47.8-1-96.9-19.2-141.4c-14.9-36.5-37.4-69.9-65.6-97.4
		C467.4,61.9,426.4,37.7,382,24.5C347,14.1,309.9,10.5,273.5,13.8L273.5,13.8z M260.1,22.5c-0.4,2.2-1.4,5-4.1,5.2
		c-2.5,0.3-4-2.1-5.2-3.8c-1.8,0.2-3.5,0.5-5.3,0.8c1.2,5,6.2,9.2,11.5,7.9c5.2-0.6,8.2-6,8.3-10.8
		C263.5,21.9,261.8,22.2,260.1,22.5L260.1,22.5z M303.3,30.5c-0.7,16.1-1.5,32.1-2.2,48.2c2.5,0.1,4.9,0.2,7.4,0.3
		c0.3-7.1,0.6-14.1,1-21.1c2.7,0.1,6,0.7,7,3.7c1.9,5.8,2.2,12,3.3,18c2.5,0.1,5,0.3,7.5,0.4c-1.1-6-1.8-12.2-3.1-18.2
		c-0.6-3.1-2.6-5.7-5.4-7.2c2.5-1.4,4.5-3.6,5.5-6.3c1.8-5.4,2.9-11,4.4-16.5c-2.3-0.1-4.6-0.2-7-0.3c-1.7,5.7-2.4,11.7-5.1,17.1
		c-1.2,2.5-4.3,2.7-6.8,2.8c0.3-6.8,0.6-13.7,0.9-20.5C308.2,30.7,305.7,30.6,303.3,30.5L303.3,30.5z M261.8,33.3
		c-1.9,10.7-3.6,21.4-5.6,32.1c-1.8-10.2-3-20.4-4.6-30.6c-2.4,0.3-4.8,0.7-7.2,1.1c2.3,15.9,4.7,31.8,7,47.7c2.4-0.3,4.8-0.7,7.1-1
		c1.9-10.6,3.7-21.2,5.8-31.8c1.4,10.1,3,20.2,4.4,30.2c2.4-0.4,4.8-0.7,7.3-1.1c-2.4-15.9-4.7-31.8-7.1-47.7
		C266.6,32.5,264.2,32.9,261.8,33.3L261.8,33.3z M341.8,67c-0.8,4.7-3.3,9.3-8,11c0.6,2,1.1,4,1.7,5.9c2.8-1.2,6.1-1.9,8-4.5
		c1.8-2.4,2.8-5.2,3.8-7.9c2.5-9,3.8-18.3,5.7-27.5c2.4,0.5,4.8,0.9,7.1,1.4c-2.6,13.5-5.1,27-7.6,40.4c2.4,0.5,4.9,0.9,7.3,1.4
		c3-15.8,5.9-31.6,8.9-47.4c-7-1.3-14-2.6-21-3.9C345.7,46.3,344,56.7,341.8,67L341.8,67z M219.7,41.8c5.5,15.1,11,30.2,16.6,45.3
		c2.3-0.9,4.7-1.7,7-2.6c-5.5-15.1-11-30.2-16.6-45.3C224.4,40.1,222.1,40.9,219.7,41.8L219.7,41.8z M378.2,79.5
		c-1.4,3.4-5.1,7.1-9.1,5c-0.7,1.8-1.3,3.7-2,5.5c2.8,0.9,5.8,2.1,8.7,1c3.9-1.6,6.2-5.3,8.7-8.6c7-10.2,14-20.5,21-30.8
		c-2.2-0.8-4.4-1.6-6.6-2.3c-4.7,7.3-9.3,14.7-14.1,21.9c0.8-8.6,1.8-17.2,2.8-25.9c-2.3-0.8-4.6-1.6-6.8-2.5
		C379.8,55.1,379.2,67.3,378.2,79.5L378.2,79.5z M194.1,51.2c5.6,15,11.1,30.1,16.6,45.2c4.6-1.9,9.6-3,13.9-5.7
		c3.9-2.4,5.3-7.4,4.2-11.7c-1.2-5-2.8-10.7-7.3-13.8c-4.4-2.8-9.6-0.8-14.1,0.7c-2.1-5.8-4.2-11.6-6.3-17.4
		C198.8,49.4,196.4,50.3,194.1,51.2L194.1,51.2z M209.9,72.6c1.8,4.9,3.6,9.8,5.4,14.7c2.5-1.1,5.9-2,6.3-5.1
		c0.2-3.7-1.1-7.7-3.9-10.2C215.3,70.4,212.4,71.9,209.9,72.6L209.9,72.6z M388.5,97c4.3,2.1,8.4,4.7,12.9,6.2
		c4.3,1.4,9.2-0.5,11.7-4.1c3.2-4.4,6.2-9.6,5.7-15.2c-0.8-5.2-5.9-7.8-10.1-9.9c1.7-3.4,3.5-6.8,5.2-10.2c4.1,2.1,8.1,4.1,12.2,6.2
		c1.1-2.1,2.1-4.2,3.2-6.3c-6.2-3.2-12.5-6.4-18.7-9.6C403.2,68.4,395.8,82.7,388.5,97L388.5,97z M398.3,94.2c2.5,1,5.5,2.9,8.1,1.2
		c2.9-2.3,4.7-6,4.8-9.7c-0.5-3-3.6-4-5.8-5.5C403.1,84.9,400.7,89.5,398.3,94.2L398.3,94.2z M173.3,62.4c3.1,5.9,6.2,11.9,9.3,17.9
		c-2.6,1.3-5.1,2.7-7.7,4c-3.1-6-6.2-11.9-9.3-17.9c-2.2,1.1-4.4,2.3-6.6,3.4c7.4,14.3,14.8,28.6,22.2,42.8c2.2-1.1,4.4-2.3,6.6-3.5
		c-3.3-6.2-6.5-12.4-9.7-18.7c2.6-1.3,5.1-2.7,7.7-4c3.2,6.2,6.5,12.4,9.6,18.6c2.3-1,4.5-2.1,6.7-3.3
		c-7.4-14.3-14.8-28.5-22.2-42.8C177.7,60.1,175.5,61.3,173.3,62.4L173.3,62.4z M133,74.3c0.7,2.2,1.2,5.3-1.3,6.6
		c-2,1.4-4.3-0.1-6.2-1c-1.5,1-2.9,2.1-4.4,3.1c1.9,1.6,3.9,3.4,6.5,3.6c4.7,0.8,9.8-2.6,10.7-7.3c0.8-2.8-0.1-5.6-1.2-8.2
		C135.9,72.2,134.4,73.2,133,74.3L133,74.3z M139.7,83c3.4,10.3,6.9,20.6,10.3,31c-6.3-8.2-12.3-16.6-18.5-24.8
		c-1.9,1.4-3.9,2.9-5.8,4.3c9.6,12.9,19.2,25.8,28.8,38.7c1.9-1.4,3.9-2.9,5.8-4.3c-3.3-10.2-6.7-20.4-10-30.6
		c6.2,8.1,12.1,16.3,18.3,24.4c2-1.5,3.9-2.9,5.9-4.4c-9.6-12.9-19.2-25.8-28.8-38.7C143.6,80.1,141.6,81.6,139.7,83L139.7,83z
		 M449.7,94.8c-4.6,5.4-9.4,10.6-13.9,16.1c-2.7,3.2-4.8,7.8-2.6,11.8c2.2,3.6,5.6,6.7,9.8,7.7c4,0.6,7.5-1.9,10.3-4.4
		c-1.6-1.9-3.2-3.8-4.9-5.7c-1.7,1.3-3.8,3.5-6.1,2.2c-2.4-1.1-3.1-4.4-1.2-6.3c5.5-6.5,11.2-12.9,16.8-19.2c1.6-2,5-3.2,6.9-0.9
		c2.2,2,0.4,5-0.9,7c2.2,1.1,4.4,2.2,6.6,3.3c2.4-3.1,4.2-7.5,2.2-11.3c-2.3-4.3-6.7-8.2-11.8-7.8C456.2,87.8,452.7,91.4,449.7,94.8
		L449.7,94.8z M276.5,95.8C239,100,202.9,115,173.3,138.3c-35.2,27.4-60.8,66.6-72.2,109.7c-7.9,30.4-8.7,62.7-2.5,93.5
		c6.4,30.6,19.9,59.8,39.2,84.5c28.3,36.6,69.3,63.1,114.3,73.9c34.7,8.3,71.6,7.4,105.8-2.7c18.4-5.7,36.1-13.5,52.3-23.9
		c33.2-21.1,60.2-52,76.5-87.8c3.8-7.5,6.2-15.6,9.2-23.4c14-44.3,12.7-93.5-4.6-136.7c-21.1-54.7-66.9-99.4-122.2-118.7
		C339.7,95.6,307.6,92.4,276.5,95.8L276.5,95.8z M282.6,137.5c0,10.4,0,20.8,0,31.2c-7-6.3-14.1-12.5-21.1-18.9
		c-10,5.6-19.9,11.4-29.8,17.2c17,15.2,33.9,30.5,50.9,45.7c0.1,19.1,0,38.2,0.1,57.3c-16.5-9.5-32.9-19.1-49.4-28.5
		c-5-22.3-9.5-44.8-14.3-67.2c-9.9,5.7-19.8,11.4-29.8,17.2c2,9.3,3.9,18.5,5.8,27.8c-9-5.2-18-10.4-27-15.6
		c-5.8,3.3-11.6,6.7-17.4,10c0,6.7,0,13.3,0,20c9,5.2,18,10.4,27,15.6c-9,3-18,5.9-27,8.9c0,11.4,0,22.9,0,34.3
		c21.7-7.1,43.4-14.2,65.2-21.2c16.3,9.5,32.7,18.8,48.9,28.3c0,0.1,0,0.4,0.1,0.6c-16.3,9.5-32.7,18.9-49,28.3
		c-21.7-7.1-43.4-14.2-65.2-21.2c0,11.4,0,22.9,0,34.4c9,2.9,18,5.9,27,8.9c-9,5.2-18,10.4-27,15.6c0,6.7,0,13.3,0,20
		c5.8,3.3,11.5,6.7,17.3,10c9-5.2,18-10.4,27.1-15.6c-1.9,9.3-3.9,18.6-5.8,27.9c9.9,5.7,19.8,11.4,29.8,17.2
		c4.8-22.4,9.3-44.8,14.3-67.2c16.5-9.4,32.9-19,49.4-28.5c0,19.1,0.1,38.2-0.1,57.3c-17,15.2-33.9,30.4-50.9,45.7
		c9.9,5.7,19.8,11.5,29.7,17.2c7.1-6.3,14.1-12.6,21.2-18.9c0.1,10.4,0,20.8,0,31.2c5.8,3.4,11.5,6.7,17.3,10
		c5.8-3.3,11.6-6.7,17.3-10c0-10.4,0-20.8,0-31.2c7.1,6.3,14.1,12.5,21.1,18.9c10-5.5,19.9-11.4,29.8-17.1
		c-16.9-15.3-33.8-30.5-50.9-45.7c-0.1-19.1,0-38.2-0.1-57.3c16.5,9.5,32.9,19.1,49.5,28.5c4.9,22.4,9.5,44.8,14.3,67.1
		c9.9-5.7,19.8-11.4,29.8-17.2c-2-9.3-3.9-18.6-5.8-27.8c9,5.2,18,10.4,27,15.6c5.8-3.3,11.6-6.7,17.3-10c0-6.7,0-13.3,0-20
		c-9-5.2-18-10.4-27-15.6c9-3,18-5.9,27-8.9c0-11.5,0-22.9,0-34.4c-21.7,7.1-43.4,14.2-65.2,21.2c-16.4-9.6-33.1-18.9-49.4-28.7
		c16.4-9.5,32.9-19,49.3-28.5c21.7,7,43.5,14.2,65.2,21.2c0-11.4,0-22.9,0-34.3c-9-3-18-5.8-26.9-8.9c9-5.2,18-10.4,26.9-15.6
		c0-6.7,0-13.3,0-20c-5.8-3.3-11.6-6.7-17.3-10c-9,5.2-18,10.4-27,15.6c1.9-9.3,3.9-18.5,5.8-27.8c-9.9-5.7-19.8-11.5-29.7-17.2
		c-4.8,22.4-9.4,44.8-14.3,67.1c-16.5,9.4-33,19-49.5,28.5c0-19.1-0.1-38.2,0-57.3c17-15.2,34-30.4,50.9-45.7
		c-9.9-5.7-19.8-11.5-29.7-17.1c-7.1,6.3-14.1,12.6-21.2,18.9c0-10.4,0-20.8,0-31.2c-5.8-3.4-11.6-6.7-17.3-10
		C294.1,130.9,288.3,134.2,282.6,137.5L282.6,137.5z M99.7,118.8c11.6,11.1,23.3,22.1,34.8,33.3c5.1-5,9.9-10.3,14.8-15.5
		c-1.7-1.6-3.4-3.3-5.1-4.9c-3.2,3.4-6.4,6.7-9.6,10.1c-3.3-3.2-6.7-6.3-10-9.6c2.8-2.9,5.6-5.8,8.3-8.8c-1.7-1.6-3.5-3.2-5.2-4.8
		c-2.8,2.9-5.6,5.8-8.3,8.8c-3.2-3-6.3-6-9.5-9c3.2-3.4,6.4-6.7,9.6-10.1c-1.7-1.6-3.4-3.2-5.1-4.9
		C109.6,108.4,104.7,113.6,99.7,118.8L99.7,118.8z M452.7,140.5c1.7,1.7,3.4,3.4,5,5.1c9.6-4.6,19.2-9.4,28.9-13.8
		c-7.1,7.2-14.5,14.1-21.7,21.2c1.7,1.8,3.4,3.5,5.1,5.3c11.5-11.2,23-22.4,34.6-33.6c-1.7-1.8-3.4-3.5-5.1-5.2
		c-9.8,4.8-19.5,9.7-29.3,14.2c7.3-7.3,14.8-14.4,22.1-21.7c-1.7-1.7-3.4-3.5-5-5.2C475.7,118.1,464.1,129.3,452.7,140.5
		L452.7,140.5z M86.7,135.3c3.7,4.5,8.2,8.4,11.4,13.3c1.7,2.5,0.2,5.4-1.2,7.6c-5.6-4-11.1-8-16.6-12c-1.5,2-2.9,4-4.3,6
		c13,9.4,26.1,18.8,39.2,28.1c1.4-2,2.9-4,4.3-6c-5.7-4.1-11.5-8.2-17.2-12.4c1.7-2.3,4.3-4.9,7.5-3.7c5.6,1.8,10.9,4.6,16.3,7
		c1.5-2,2.9-4.1,4.4-6.1c-5.5-2.3-10.8-4.9-16.4-7.1c-3-1.3-6.5-1.2-9.4,0.4c0.2-3.1-0.8-6.1-2.8-8.5c-3.5-4.2-7.3-8.1-11-12.2
		C89.5,131.6,88.1,133.5,86.7,135.3L86.7,135.3z M474.6,165c2.8,3.9,5.1,8.2,8.3,11.8c3.1,3.4,8.5,3.9,12.5,1.8
		c4.7-2.3,9.8-5.3,12-10.2c1.9-5-1.3-9.7-4-13.7c3.2-2.1,6.3-4.3,9.5-6.4c2.5,3.8,5.1,7.6,7.6,11.4c1.9-1.3,3.9-2.6,5.9-3.9
		c-3.9-5.8-7.8-11.7-11.7-17.5C501.3,147.2,488,156.1,474.6,165L474.6,165z M484.5,167.3c1.6,2.2,3.4,5.1,6.5,5
		c3.7-0.7,7.4-3,9.1-6.4c0.8-2.7-1.3-5-2.5-7.3C493.2,161.5,488.9,164.4,484.5,167.3L484.5,167.3z M64.3,167.4
		c4.4,4,9.5,7.2,13.2,11.9c1.8,2.3,0.7,5.1-0.3,7.4c-6.1-3.2-12.1-6.4-18.1-9.6c-1.2,2.2-2.3,4.4-3.5,6.5
		c14.2,7.6,28.4,15.1,42.5,22.7c1.2-2.2,2.3-4.3,3.5-6.5c-6.2-3.3-12.5-6.6-18.7-10c1.3-2.2,2.9-4.9,5.9-4.7c6.2,0.6,12,3.2,18,4.8
		c1.2-2.2,2.4-4.4,3.5-6.6c-6-1.6-11.9-3.7-18-5c-3-0.7-6,0-8.5,1.8c-0.2-3.1-1.6-6.1-3.9-8.1c-4-3.7-8.3-7-12.4-10.6
		C66.5,163.3,65.4,165.4,64.3,167.4L64.3,167.4z M491.5,190c1,2.2,2,4.3,3,6.5c10.6-1.2,21.2-2.5,31.9-3.6
		c-9.1,4.5-18.4,8.6-27.5,12.9c1,2.2,2.1,4.4,3.1,6.6c14.6-6.8,29.2-13.6,43.7-20.3c-1-2.2-2.1-4.4-3.1-6.6
		c-10.7,1.2-21.4,2.7-32.2,3.7c9.2-4.6,18.6-8.7,27.8-13.1c-1-2.2-2-4.4-3.1-6.6C520.7,176.4,506.1,183.2,491.5,190L491.5,190z
		 M51.3,202.5c-4.7,1.5-6.6,6.8-7.2,11.3c-0.8,4.8,3.1,8.9,7.2,10.6c6.5,2.7,13.2,4.6,19.8,7.1c4.9,1.6,10.7,4.2,15.7,1.2
		c3.5-2.8,5-7.5,5.3-11.8c0.2-4.2-3.5-7.5-7-9.1c-6.2-2.7-12.7-4.5-19-6.8C61.3,203.5,56.3,201.2,51.3,202.5L51.3,202.5z
		 M53.2,210.2c-1.5,0.8-2.1,2.8-1.9,4.4c1.1,3.1,4.7,3.8,7.5,4.8c7.1,2.3,14.1,5.1,21.3,7.1c4.2,1.2,6.6-5.5,2.7-7.4
		c-6.2-2.9-12.8-4.5-19.2-6.9C60.3,211.2,56.7,209.1,53.2,210.2L53.2,210.2z M505.2,219.8c0.6,2.4,1.3,4.8,2,7.2
		c5.9-1.6,11.9-3.3,17.8-4.9c1.1,3.9,2.3,8.4,5.9,10.7c4,2.7,9.1,1.6,13.5,0.4c4.3-1.4,9.4-3.4,10.5-8.3c0.9-6.2-1.8-12.1-3.2-18
		C536.2,211.3,520.7,215.6,505.2,219.8L505.2,219.8z M531.8,220.3c0.9,2.4,1.3,5.6,4.1,6.6c3.6,0.8,7.5-0.3,10.4-2.5
		c2.5-2.2,1.1-5.6,0.6-8.3C541.9,217.5,536.9,218.9,531.8,220.3L531.8,220.3z M38.5,231.2c-0.6,2.8-1.2,5.6-1.7,8.4
		c4.5,2.5,8.9,5,13.3,7.6c-5.1,0.6-10.3,1.1-15.4,1.6c-0.6,2.7-1.2,5.5-1.8,8.2c8.2-1.3,16.3-2.7,24.5-4c7.5,5,15,9.9,22.5,14.8
		c0.6-2.7,1.1-5.4,1.7-8.1c-5-3-10.1-5.9-15.1-8.9c5.8-0.7,11.6-1.3,17.4-1.9c0.6-2.7,1.2-5.5,1.8-8.2c-8.9,1.5-17.8,3.1-26.8,4.5
		C52.2,240.5,45.4,235.8,38.5,231.2L38.5,231.2z M514.6,247.1c1,5,1.1,10.3,3,15.2c1.8,4.3,6.8,6.3,11.2,5.9
		c5-0.2,10.8-0.9,14.5-4.7c3.3-3.8,2.4-9.1,1.7-13.6c6.1-0.9,12.2-1.9,18.3-2.9c-0.4-2.4-0.8-4.9-1.2-7.3
		C546.3,242.1,530.4,244.6,514.6,247.1L514.6,247.1z M522.6,253.3c0.6,2.6,0.8,6,3.7,7.2c3.5,1,7.6,0.5,10.7-1.6
		c2.4-2,1.3-5.3,1.2-8C532.9,251.7,527.8,252.5,522.6,253.3L522.6,253.3z M46.1,303.2c-4.8,1.4-8.8,5.7-9.3,10.8
		c-0.8,6.8,5.3,13.4,12,13.4c6.8,0.2,13-6.5,12.3-13.3C60.6,306.9,53.1,301.2,46.1,303.2L46.1,303.2z M548,303.1
		c-4,1-7.2,4.1-8.7,7.9c-2.5,6.3,1.7,13.6,7.9,15.7c7.1,2.6,15.3-3.3,15.8-10.7C563.7,308.2,555.6,301.1,548,303.1L548,303.1z
		 M27.3,358.6c0.6,2.4,1.1,4.8,1.7,7.2c6.8-1.6,13.7-3.2,20.5-4.9c0.7,2.8,1.3,5.6,2,8.4c-6.8,1.6-13.6,3.2-20.4,4.7
		c0.5,2.4,1.1,4.9,1.6,7.3c15.7-3.7,31.3-7.4,47-11.1c-0.6-2.4-1.2-4.8-1.8-7.2c-6.5,1.6-13.1,3.1-19.6,4.6c-0.7-2.8-1.3-5.6-2-8.4
		c6.5-1.6,13.1-3.1,19.6-4.6c-0.6-2.4-1.1-4.8-1.7-7.2C58.6,351.2,42.9,354.9,27.3,358.6L27.3,358.6z M545.6,354.8
		c-5.2,1.8-6.6,7.7-7.6,12.4c-6-1.4-12.1-2.8-18.1-4.1c-0.6,2.4-1.1,4.8-1.7,7.2c15.7,3.6,31.3,7.2,47,10.8c1-4.7,2.5-9.4,2.9-14.2
		c0.3-4.5-2.9-8.7-7.1-10.2C556.2,354.8,550.7,353.3,545.6,354.8L545.6,354.8z M544.8,368.8c5.1,1.2,10.2,2.3,15.3,3.5
		c0.4-2.6,1.5-5.7-0.6-7.9c-2.8-2.4-6.9-3.4-10.4-2.7C546,362.6,545.6,366.3,544.8,368.8L544.8,368.8z M507.4,397.6
		c2.2,0.8,4.3,1.7,6.5,2.5c0.9-2.4,1.8-4.9,2.8-7.3c12.8,4.9,25.7,9.7,38.5,14.6c0.9-2.4,1.8-4.7,2.7-7.1
		c-12.9-4.9-25.7-9.7-38.6-14.6c0.9-2.4,1.8-4.9,2.7-7.3c-2.2-0.8-4.3-1.6-6.5-2.4C512.8,383.3,510.1,390.4,507.4,397.6L507.4,397.6
		z M75,381.1c-7.7,1.6-14.8,5-22.3,7.4c-4.9,1.8-11,3.7-12.7,9.2c-0.6,4.6,1.2,9.3,4.1,12.9c3.6,3.6,9.2,2.5,13.5,1
		c7.3-2.6,14.8-5.2,22-8c3.8-1.5,8-4.3,8.4-8.7c0.2-4-1.2-8.2-3.9-11.2C81.9,381.1,78.2,380.7,75,381.1L75,381.1z M72.2,389.5
		c-6.5,2.3-13,4.7-19.4,7c-1.9,0.7-4.1,1.3-5.2,3.2c-1.4,2.7,1.1,6.5,4.2,5.8c5.5-1.3,10.7-3.7,16.1-5.5c3.8-1.6,8-2.3,11.4-4.8
		c2.3-1.4,1.4-5.1-0.7-6.2C76.6,387.9,74.3,388.8,72.2,389.5L72.2,389.5z M497.5,418.9c0.1,6,5.9,9.4,10.7,11.6
		c6.6,3,13.1,6.4,19.8,9.2c3.7,1.6,8.7,2.3,11.8-0.8c2.8-3,4.7-6.9,4.8-11c-0.3-4.2-3.8-7.3-7.2-9.3c-1.4,2.1-2.7,4.1-4.1,6.2
		c2,1.3,4.8,3.2,3.6,6c-0.7,2.6-3.9,3.4-6,2.1c-7.5-3.5-14.9-7-22.3-10.6c-2.6-1-4.8-4.1-2.9-6.7c1.4-2.6,4.6-1.5,6.9-0.9
		c0.4-2.4,0.9-4.8,1.4-7.3c-1.6-0.4-3.2-1.1-4.9-1.2C502.3,405.9,497.7,412.9,497.5,418.9L497.5,418.9z M52.9,429.9
		c2.9,4.7,4.8,10.2,9.2,13.8c3.4,2.8,8.3,2.3,12,0.4c4.8-1.8,10.2-5.6,9.5-11.4c2.9,1.7,6.4,2,9.4,0.5c4.4-2.2,9.2-5.9,9.1-11.2
		c-0.9-5.8-4.6-10.6-7.2-15.7C80.9,414.2,66.9,422,52.9,429.9L52.9,429.9z M92.6,416.2c-3.7,2.1-7.3,4.1-11,6.2
		c1.4,1.9,2.5,4.8,5.2,5c3.1,0,6.4-1.9,7.7-4.8C95,420.2,93.5,418.2,92.6,416.2L92.6,416.2z M62.6,433.1c1.5,2.3,2.9,5.5,6.2,5.2
		c3.3-0.6,6.6-2.2,8.6-4.9c1.7-2.6-0.5-5.4-1.6-7.8C71.4,428.1,67,430.6,62.6,433.1L62.6,433.1z M485.4,434
		c-1.6,2.2-3.2,4.4-4.9,6.5c10.7,12.4,21.5,24.8,32.3,37.2c1.5-2,3.1-4,4.6-6.1c-2.3-2.5-4.6-5-6.8-7.6c1.8-2.3,3.6-4.7,5.4-7
		c3,1.5,6.1,3.1,9.1,4.6c1.5-2,3.1-4,4.7-6C514.9,448.4,500.2,441,485.4,434L485.4,434z M491.5,443.8c4.6,5.1,9.6,9.9,14.1,15.1
		c1.4-1.7,2.7-3.5,4-5.2C503.6,450.4,497.6,446.9,491.5,443.8L491.5,443.8z M106.4,436.6c-4.1,1.4-7.5,4.3-11,6.8
		c-4.8,3.6-9.8,6.9-14.4,10.6c-3,2.4-5.7,6.1-5,10.1c1.1,4.1,3.9,7.9,7.5,10.2c4.1,2.1,8.9,0,12.4-2.4c5.9-4.1,11.6-8.4,17.4-12.6
		c3.7-2.7,8-6.2,7.9-11.3C120.4,441.2,113.7,433.8,106.4,436.6L106.4,436.6z M107.2,444.3c-6.1,3.7-11.6,8.3-17.5,12.4
		c-2.3,1.8-5.4,3.2-6.2,6.3c-0.2,3.1,3.5,5.7,6.3,3.8c5.3-3.2,10-7.2,15.1-10.7c3-2.3,6.7-4.1,8.6-7.6
		C114.4,445.1,110,442.3,107.2,444.3L107.2,444.3z M454.9,468c6.8,7.2,13.7,14.2,20.4,21.4c3.8,3.8,7.4,8.9,5.7,14.5
		c1.9,0.7,3.9,1.3,5.8,2c0.7-3,2-6.1,1-9.1c-0.9-2.8-2.6-5.2-4.2-7.6c-5.9-7.3-12.7-13.8-19-20.6c1.7-1.7,3.5-3.4,5.2-5
		c9.5,9.9,19,19.8,28.4,29.8c1.8-1.7,3.6-3.4,5.4-5.1c-11.1-11.6-22.2-23.3-33.3-34.9C465.2,458.2,460,463.1,454.9,468L454.9,468z
		 M120.2,466.3c-5.2,5.1-10.5,10.1-15.7,15.3c-2.9,2.9-5.4,7.2-3.8,11.3c1.7,3.7,4.7,6.9,8.4,8.5c4.1,1.4,8.3-0.8,11.5-3.3
		c-1.5-2-2.9-4-4.3-6.1c-1.8,1.1-4.1,3.1-6.3,1.7c-2.3-1.2-2.8-4.6-0.8-6.4c5.8-5.9,11.8-11.5,17.7-17.3c1.8-1.8,4.9-3.6,7.1-1.4
		c2.8,2,0.7,5.4-0.9,7.4c2.1,1.3,4.2,2.6,6.3,3.9c2.6-2.9,4.7-7,3.2-11c-1.9-4.3-5.7-8.6-10.7-8.9
		C127.3,460.1,123.4,463.2,120.2,466.3L120.2,466.3z M122.1,515.2c1.9,1.4,3.9,2.9,5.8,4.3c8.8-6.1,17.5-12.3,26.4-18.3
		c-5.9,8.2-12.1,16.3-18.1,24.5c2,1.4,3.9,2.9,5.9,4.4c9.6-12.9,19.2-25.8,28.8-38.7c-1.9-1.4-3.9-2.9-5.8-4.3
		c-8.9,6.2-17.7,12.6-26.7,18.7c6-8.4,12.3-16.6,18.4-24.9c-2-1.5-3.9-2.9-5.8-4.3C141.2,489.4,131.6,502.3,122.1,515.2L122.1,515.2
		z M428.2,489.5c9.8,12.7,19.6,25.5,29.5,38.2c3.7-3,7.7-5.5,11-8.9c3.3-3.3,3.6-8.8,1.2-12.7c-2.6-4.6-6-9.5-11.1-11.3
		c-5.1-1.5-9.6,2-13.4,4.9c-2.3-3-4.7-6-7-9.1c3.6-2.8,7.2-5.6,10.8-8.3c-1.4-1.9-2.9-3.7-4.3-5.6
		C439.4,481,433.8,485.3,428.2,489.5L428.2,489.5z M449.8,505.2c3.2,4.2,6.4,8.3,9.6,12.5c1.9-1.9,4.8-3.8,4.5-6.8
		c-0.8-3.5-3.3-6.6-6.4-8.4C454.5,501.2,452,503.8,449.8,505.2L449.8,505.2z M178.1,495.9c-7.6,14.2-15.2,28.4-22.8,42.6
		c4.2,2.1,8.2,4.7,12.6,6.3c4.3,1.6,9.2-0.2,11.8-3.8c3.2-4.3,6.5-9.4,6-15c-0.7-5.3-5.7-8-10-10.2c1.8-3.4,3.6-6.7,5.4-10.1
		c4,2.1,8,4.3,12.1,6.4c1.1-2.1,2.2-4.2,3.3-6.2C190.5,502.5,184.3,499.2,178.1,495.9L178.1,495.9z M172.5,521.9
		c-2.4,4.6-4.9,9.2-7.4,13.8c2.5,1.2,5.8,3.2,8.5,1.1c2.6-2.2,4.3-5.5,4.6-8.9C178.3,524.6,174.9,523.3,172.5,521.9L172.5,521.9z
		 M414.2,498.4c-3.6,1.6-7.4,4.4-7.9,8.5c-0.6,5.4,2.6,10.1,5.1,14.6c3.3,5.7,6.2,11.6,9.8,17.1c2.2,3.5,6.4,6.6,10.7,5.2
		c4.1-1.2,8.4-3.6,10.2-7.6c1.8-6-2.2-11.5-4.9-16.6c-3.6-6.1-6.5-12.6-10.7-18.2C423.7,497.6,418.4,496.1,414.2,498.4L414.2,498.4z
		 M416.2,505.3c-2.7,1.1-2.8,4.5-1.5,6.7c3.4,6.5,7.2,12.8,10.7,19.3c1.2,1.9,2.1,4.3,4.4,5.2c3,0.8,6.2-2.5,4.8-5.5
		c-2.2-5.1-5.4-9.8-8-14.7c-2.2-3.5-3.6-7.5-6.6-10.4C419.1,504.7,417.4,504.5,416.2,505.3L416.2,505.3z M204.2,509.7
		c-5.5,15.1-11,30.2-16.5,45.3c2.2,0.8,4.5,1.6,6.7,2.5c6.8-8.3,13.3-16.9,20.1-25.2c-3.4,9.6-6.9,19.1-10.4,28.7
		c2.3,0.8,4.6,1.7,6.9,2.5c5.5-15.1,10.9-30.2,16.5-45.3c-2.3-0.9-4.6-1.7-6.9-2.5c-6.7,8.5-13.3,17.1-20.1,25.5
		c3.3-9.7,7-19.3,10.5-29C208.8,511.4,206.5,510.6,204.2,509.7L204.2,509.7z M363.5,522.5c-3.6,4.1-2.6,10-1.2,14.8
		c1.1,3.7,4,6.8,7.9,7.5c-1.1,1.8-2,3.9-1.9,6.1c-0.1,5.9,1.1,11.8,1.5,17.7c2.4-0.7,4.8-1.4,7.3-2.1c-0.4-5.9-1.9-11.7-1.4-17.6
		c0.3-2.9,3-4.3,5.5-5.1c1.9,6.6,3.8,13.3,5.7,19.9c2.4-0.7,4.8-1.4,7.2-2c-4.4-15.5-8.8-30.9-13.2-46.4
		C375,517.5,367.9,517.7,363.5,522.5L363.5,522.5z M368.6,528.8c-0.6,2.9,0.1,6.1,2,8.3c2.3,2.4,5.8,0.9,8.6,0.3
		c-1.3-4.4-2.5-8.9-3.8-13.3C372.9,525.1,369.4,525.7,368.6,528.8L368.6,528.8z M235.5,521.1c-3.4,15.7-6.8,31.4-10.2,47.2
		c2.4,0.5,4.9,1,7.4,1.5c1.2-6,2.5-12,3.9-18c3.9,0.8,8.2,1.9,12-0.2c5.2-2.8,6.5-9.2,7.2-14.5c0.7-4-0.1-8.8-3.8-11.1
		C246.9,523,241.1,522.4,235.5,521.1L235.5,521.1z M238,544.9c2.6,0.2,5.9,1.5,8-0.8c2.3-3,3.1-7.1,2.3-10.7
		c-1.1-2.8-4.4-3.1-6.9-3.9C240.2,534.6,239.1,539.7,238,544.9L238,544.9z M334.7,526.7c-0.5,16.4-0.9,32.8-1.4,49.2
		c2.5-0.4,5-0.9,7.5-1.3c0-3.4,0-6.8,0.1-10.2c2.9-0.5,5.8-1,8.7-1.5c1.2,3.2,2.3,6.4,3.5,9.6c2.5-0.4,5-0.8,7.5-1.3
		c-5.9-15.3-11.8-30.6-17.8-45.9C340.1,525.8,337.4,526.3,334.7,526.7L334.7,526.7z M340.5,536.6c0.1,6.9,0.2,13.8,0.2,20.7
		c2.2-0.4,4.3-0.7,6.5-1.1C345,549.7,343,543.1,340.5,536.6L340.5,536.6z M271,528c-4.7,1.4-6.8,6.5-7.3,11c-0.9,8-1.6,16-2.4,24
		c-0.3,4.1,0.3,9,4.1,11.4c3.7,1.9,8.2,2.4,12.3,1.3c4.1-1.6,5.8-6.1,6.6-10c-2.4-0.6-4.8-1.2-7.2-1.8c-0.7,1.9-1,4.5-3.2,5.3
		c-2.7,0.9-5.7-1.3-5.3-4.2c0.6-8.4,1.5-16.7,2.4-25.1c0.1-2.6,1.8-5.7,4.8-5.3c3.2,0.1,3.6,3.8,3.7,6.3c2.4-0.4,4.9-0.8,7.3-1.1
		c0-2.9-0.3-6-2.2-8.3C281.3,527.7,275.6,526.7,271,528L271,528z M295.2,529.5c0.5,16.1,1.1,32.1,1.7,48.2c2.5-0.1,4.9-0.2,7.4-0.3
		c-0.2-7.1-0.5-14.1-0.7-21.2c2.9-0.1,6.4,0.4,7.5,3.5c2.1,5.6,3,11.5,4.5,17.3c2.5-0.1,4.9-0.2,7.4-0.3c-1.6-6-2.8-12.1-4.6-18
		c-0.8-3-3-5.3-5.8-6.6c7.4-5.3,5.7-15.7,8-23.5c-2.3,0.1-4.6,0.1-6.8,0.3c-1.6,5.6-1.5,11.6-3.6,17.1c-1,2.8-4.1,3.4-6.7,3.7
		c-0.3-6.8-0.5-13.7-0.8-20.5C300.1,529.4,297.6,529.5,295.2,529.5z"/>
	<path class="st1" d="M340.5,536.6c2.5,6.5,4.5,13.1,6.7,19.6c-2.2,0.4-4.3,0.7-6.5,1.1C340.8,550.4,340.6,543.5,340.5,536.6
		L340.5,536.6z M238,544.9c1.1-5.1,2.2-10.3,3.3-15.4c2.5,0.8,5.8,1.1,6.9,3.9c0.9,3.6,0,7.7-2.3,10.7
		C243.9,546.4,240.7,545.1,238,544.9L238,544.9z M368.6,528.8c0.8-3.1,4.3-3.7,6.8-4.6c1.3,4.4,2.5,8.8,3.8,13.3
		c-2.8,0.6-6.2,2.1-8.6-0.3C368.8,534.9,368.1,531.7,368.6,528.8L368.6,528.8z M172.5,521.9c2.3,1.4,5.7,2.7,5.7,5.9
		c-0.3,3.4-2.1,6.7-4.6,8.9c-2.6,2.1-5.9,0.1-8.5-1.1C167.6,531.1,170.1,526.5,172.5,521.9L172.5,521.9z M416.2,505.3
		c1.2-0.7,2.9-0.5,3.8,0.6c3,2.9,4.4,6.9,6.6,10.4c2.6,4.9,5.8,9.6,8,14.7c1.5,3-1.7,6.3-4.8,5.5c-2.3-0.9-3.2-3.3-4.4-5.2
		c-3.5-6.5-7.3-12.8-10.7-19.3C413.4,509.8,413.5,506.4,416.2,505.3L416.2,505.3z M449.8,505.2c2.2-1.5,4.8-4,7.7-2.8
		c3.1,1.7,5.6,4.9,6.4,8.4c0.4,3.1-2.6,5-4.5,6.8C456.1,513.6,453,509.4,449.8,505.2L449.8,505.2z M491.5,443.8
		c6.2,3.1,12.1,6.6,18.2,9.9c-1.3,1.7-2.7,3.5-4,5.2C501,453.7,496.1,448.9,491.5,443.8L491.5,443.8z M107.2,444.3
		c2.8-2,7.3,0.8,6.3,4.2c-1.9,3.4-5.6,5.2-8.6,7.6c-5.1,3.5-9.9,7.5-15.1,10.7c-2.8,1.9-6.5-0.7-6.3-3.8c0.8-3.1,3.9-4.5,6.2-6.3
		C95.5,452.7,101.1,448.1,107.2,444.3L107.2,444.3z M62.6,433.1c4.4-2.5,8.8-5,13.2-7.4c1.1,2.3,3.3,5.2,1.6,7.8
		c-2,2.7-5.3,4.3-8.6,4.9C65.5,438.6,64.1,435.3,62.6,433.1L62.6,433.1z M92.6,416.2c0.9,2,2.4,4,2,6.4c-1.3,2.9-4.6,4.8-7.7,4.8
		c-2.7-0.2-3.9-3-5.2-5C85.2,420.3,88.9,418.3,92.6,416.2L92.6,416.2z M72.2,389.5c2-0.6,4.4-1.6,6.4-0.5c2.1,1.1,3,4.8,0.7,6.2
		c-3.4,2.5-7.6,3.2-11.4,4.8c-5.4,1.8-10.6,4.2-16.1,5.5c-3.1,0.7-5.6-3.1-4.2-5.8c1.1-1.9,3.3-2.5,5.2-3.2
		C59.3,394.2,65.8,391.8,72.2,389.5L72.2,389.5z M544.8,368.8c0.8-2.6,1.2-6.2,4.2-7c3.6-0.7,7.6,0.3,10.4,2.7
		c2.2,2.1,1,5.3,0.6,7.9C555,371.2,549.9,370,544.8,368.8L544.8,368.8z M522.6,253.3c5.2-0.8,10.3-1.6,15.5-2.4c0.1,2.6,1.2,6-1.2,8
		c-3.1,2.1-7.1,2.6-10.7,1.6C523.4,259.4,523.2,255.9,522.6,253.3L522.6,253.3z M531.8,220.3c5-1.4,10.1-2.8,15.1-4.2
		c0.6,2.7,1.9,6.1-0.6,8.3c-2.9,2.2-6.8,3.3-10.4,2.5C533.2,225.9,532.7,222.7,531.8,220.3L531.8,220.3z M53.2,210.2
		c3.5-1,7.1,1,10.4,2c6.4,2.4,13,4.1,19.2,6.9c3.8,1.9,1.5,8.5-2.7,7.4c-7.2-2-14.2-4.8-21.3-7.1c-2.7-1.1-6.4-1.7-7.5-4.8
		C51.1,213,51.6,211,53.2,210.2L53.2,210.2z M484.5,167.3c4.4-2.9,8.7-5.8,13.1-8.7c1.2,2.2,3.3,4.5,2.5,7.3
		c-1.7,3.4-5.4,5.7-9.1,6.4C487.9,172.4,486.2,169.5,484.5,167.3L484.5,167.3z M282.6,137.5c5.7-3.4,11.5-6.7,17.3-10
		c5.8,3.3,11.6,6.7,17.3,10c0,10.4,0,20.8,0,31.2c7.1-6.3,14.2-12.6,21.2-18.9c9.9,5.7,19.8,11.4,29.7,17.1
		c-16.9,15.3-33.9,30.5-50.9,45.7c-0.1,19.1,0,38.2,0,57.3c16.5-9.5,32.9-19.1,49.5-28.5c4.9-22.4,9.5-44.8,14.3-67.1
		c9.9,5.7,19.8,11.4,29.7,17.2c-2,9.3-3.9,18.5-5.8,27.8c9-5.2,18-10.4,27-15.6c5.8,3.3,11.6,6.7,17.3,10c0,6.7,0,13.3,0,20
		c-9,5.2-18,10.4-26.9,15.6c8.9,3.1,18,6,26.9,8.9c0,11.4,0,22.9,0,34.3c-21.7-7.1-43.4-14.2-65.2-21.2c-16.4,9.5-32.9,19-49.3,28.5
		c16.3,9.8,32.9,19.1,49.4,28.7c21.7-7.1,43.4-14.2,65.2-21.2c0,11.4,0,22.9,0,34.4c-9,2.9-18,5.9-27,8.9c9,5.2,18,10.4,27,15.6
		c0,6.7,0,13.3,0,20c-5.8,3.4-11.5,6.7-17.3,10c-9-5.2-18-10.4-27-15.6c1.9,9.3,3.9,18.6,5.8,27.8c-9.9,5.8-19.8,11.5-29.8,17.2
		c-4.8-22.4-9.3-44.8-14.3-67.1c-16.5-9.4-33-19-49.5-28.5c0,19.1-0.1,38.2,0.1,57.3c17,15.2,34,30.4,50.9,45.7
		c-9.9,5.7-19.8,11.6-29.8,17.1c-7-6.4-14.1-12.6-21.1-18.9c0,10.4,0,20.8,0,31.2c-5.8,3.4-11.6,6.7-17.3,10
		c-5.8-3.3-11.6-6.7-17.3-10c0-10.4,0.1-20.8,0-31.2c-7.1,6.3-14.1,12.6-21.2,18.9c-9.9-5.7-19.8-11.4-29.7-17.2
		c16.9-15.2,33.9-30.5,50.9-45.7c0.2-19.1,0-38.2,0.1-57.3c-16.5,9.5-32.9,19.1-49.4,28.5c-4.9,22.3-9.5,44.8-14.3,67.2
		c-9.9-5.7-19.8-11.4-29.8-17.2c2-9.3,3.9-18.6,5.8-27.9c-9,5.2-18,10.4-27.1,15.6c-5.8-3.3-11.5-6.7-17.3-10c0-6.7,0-13.3,0-20
		c9-5.2,18-10.4,27-15.6c-9-3-18-5.9-27-8.9c0-11.5,0-22.9,0-34.4c21.7,7.1,43.4,14.2,65.2,21.2c16.3-9.5,32.7-18.8,49-28.3
		c0-0.1,0-0.4-0.1-0.6c-16.3-9.5-32.6-18.8-48.9-28.3c-21.7,7.1-43.4,14.2-65.2,21.2c0-11.4,0-22.9,0-34.3c9-2.9,18-5.9,27-8.9
		c-9-5.2-18-10.4-27-15.6c0-6.7,0-13.3,0-20c5.8-3.3,11.6-6.7,17.4-10c9,5.2,18,10.4,27,15.6c-1.9-9.3-3.9-18.5-5.8-27.8
		c9.9-5.8,19.8-11.5,29.8-17.2c4.8,22.4,9.3,44.8,14.3,67.2c16.5,9.4,32.9,19,49.4,28.5c0-19.1,0.1-38.2-0.1-57.3
		c-17-15.1-33.9-30.4-50.9-45.7c9.9-5.7,19.8-11.6,29.8-17.2c7,6.4,14.1,12.6,21.1,18.9C282.6,158.3,282.6,147.9,282.6,137.5
		L282.6,137.5z M398.3,94.2c2.4-4.7,4.8-9.3,7.2-14c2.2,1.4,5.3,2.5,5.8,5.5c-0.1,3.7-2,7.3-4.8,9.7
		C403.8,97.1,400.8,95.2,398.3,94.2L398.3,94.2z M209.9,72.6c2.5-0.6,5.4-2.2,7.8-0.6c2.9,2.5,4.1,6.5,3.9,10.2
		c-0.4,3.1-3.9,4-6.3,5.1C213.5,82.4,211.7,77.5,209.9,72.6L209.9,72.6z M295.2,529.5c0.5,16.1,1.1,32.1,1.7,48.2
		c2.5-0.1,4.9-0.2,7.4-0.3c-0.2-7.1-0.5-14.1-0.7-21.2c2.9-0.1,6.4,0.4,7.5,3.5c2.1,5.6,3,11.5,4.5,17.3c2.5-0.1,4.9-0.2,7.4-0.3
		c-1.6-6-2.8-12.1-4.6-18c-0.8-3-3-5.3-5.8-6.6c7.4-5.3,5.7-15.7,8-23.5c-2.3,0.1-4.6,0.1-6.8,0.3c-1.6,5.6-1.5,11.6-3.6,17.1
		c-1,2.8-4.1,3.4-6.7,3.7c-0.3-6.8-0.5-13.7-0.8-20.5C300.1,529.4,297.6,529.5,295.2,529.5L295.2,529.5z M271,528
		c-4.7,1.4-6.8,6.5-7.3,11c-0.9,8-1.6,16-2.4,24c-0.3,4.1,0.3,9,4.1,11.4c3.7,1.9,8.2,2.4,12.3,1.3c4.1-1.6,5.8-6.1,6.6-10
		c-2.4-0.6-4.8-1.2-7.2-1.8c-0.7,1.9-1,4.5-3.2,5.3c-2.7,0.9-5.7-1.3-5.3-4.2c0.6-8.4,1.5-16.7,2.4-25.1c0.1-2.6,1.8-5.7,4.8-5.3
		c3.2,0.1,3.6,3.8,3.7,6.3c2.4-0.4,4.9-0.8,7.3-1.1c0-2.9-0.3-6-2.2-8.3C281.3,527.7,275.6,526.7,271,528L271,528z M334.7,526.7
		c-0.5,16.4-0.9,32.8-1.4,49.2c2.5-0.4,5-0.9,7.5-1.3c0-3.4,0-6.8,0.1-10.2c2.9-0.5,5.8-1,8.7-1.5c1.2,3.2,2.3,6.4,3.5,9.6
		c2.5-0.4,5-0.8,7.5-1.3c-5.9-15.3-11.8-30.6-17.8-45.9C340.1,525.8,337.4,526.3,334.7,526.7L334.7,526.7z M235.5,521.1
		c-3.4,15.7-6.8,31.4-10.2,47.2c2.4,0.5,4.9,1,7.4,1.5c1.2-6,2.5-12,3.9-18c3.9,0.8,8.2,1.9,12-0.2c5.2-2.8,6.5-9.2,7.2-14.5
		c0.7-4-0.1-8.8-3.8-11.1C246.9,523,241.1,522.4,235.5,521.1L235.5,521.1z M363.5,522.5c-3.6,4.1-2.6,10-1.2,14.8
		c1.1,3.7,4,6.8,7.9,7.5c-1.1,1.8-2,3.9-1.9,6.1c-0.1,5.9,1.1,11.8,1.5,17.7c2.4-0.7,4.8-1.4,7.3-2.1c-0.4-5.9-1.9-11.7-1.4-17.6
		c0.3-2.9,3-4.3,5.5-5.1c1.9,6.6,3.8,13.3,5.7,19.9c2.4-0.7,4.8-1.4,7.2-2c-4.4-15.5-8.8-30.9-13.2-46.4
		C375,517.5,367.9,517.7,363.5,522.5L363.5,522.5z M204.2,509.7c2.3,0.8,4.6,1.7,6.8,2.5c-3.4,9.7-7.1,19.3-10.5,29
		c6.9-8.4,13.4-17,20.1-25.5c2.3,0.8,4.6,1.7,6.9,2.5c-5.5,15.1-11,30.2-16.5,45.3c-2.3-0.8-4.6-1.7-6.9-2.5
		c3.4-9.6,7-19.1,10.4-28.7c-6.8,8.3-13.3,16.8-20.1,25.2c-2.2-0.8-4.5-1.6-6.7-2.5C193.3,539.9,198.8,524.8,204.2,509.7
		L204.2,509.7z M414.2,498.4c-3.6,1.6-7.4,4.4-7.9,8.5c-0.6,5.4,2.6,10.1,5.1,14.6c3.3,5.7,6.2,11.6,9.8,17.1
		c2.2,3.5,6.4,6.6,10.7,5.2c4.1-1.2,8.4-3.6,10.2-7.6c1.8-6-2.2-11.5-4.9-16.6c-3.6-6.1-6.5-12.6-10.7-18.2
		C423.7,497.6,418.4,496.1,414.2,498.4L414.2,498.4z M178.1,495.9c-7.6,14.2-15.2,28.4-22.8,42.6c4.2,2.1,8.2,4.7,12.6,6.3
		c4.3,1.6,9.2-0.2,11.8-3.8c3.2-4.3,6.5-9.4,6-15c-0.7-5.3-5.7-8-10-10.2c1.8-3.4,3.6-6.7,5.4-10.1c4,2.1,8,4.3,12.1,6.4
		c1.1-2.1,2.2-4.2,3.3-6.2C190.5,502.5,184.3,499.2,178.1,495.9L178.1,495.9z M428.2,489.5c9.8,12.7,19.6,25.5,29.5,38.2
		c3.7-3,7.7-5.5,11-8.9c3.3-3.3,3.6-8.8,1.2-12.7c-2.6-4.6-6-9.5-11.1-11.3c-5.1-1.5-9.6,2-13.4,4.9c-2.3-3-4.7-6-7-9.1
		c3.6-2.8,7.2-5.6,10.8-8.3c-1.4-1.9-2.9-3.7-4.3-5.6C439.4,481,433.8,485.3,428.2,489.5L428.2,489.5z M122.1,515.2
		c1.9,1.4,3.9,2.9,5.8,4.3c8.8-6.1,17.5-12.3,26.4-18.3c-5.9,8.2-12.1,16.3-18.1,24.5c2,1.4,3.9,2.9,5.9,4.4
		c9.6-12.9,19.2-25.8,28.8-38.7c-1.9-1.4-3.9-2.9-5.8-4.3c-8.9,6.2-17.7,12.6-26.7,18.7c6-8.4,12.3-16.6,18.4-24.9
		c-2-1.5-3.9-2.9-5.8-4.3C141.2,489.4,131.6,502.3,122.1,515.2L122.1,515.2z M120.2,466.3c-5.2,5.1-10.5,10.1-15.7,15.3
		c-2.9,2.9-5.4,7.2-3.8,11.3c1.7,3.7,4.7,6.9,8.4,8.5c4.1,1.4,8.3-0.8,11.5-3.3c-1.5-2-2.9-4-4.3-6.1c-1.8,1.1-4.1,3.1-6.3,1.7
		c-2.3-1.2-2.8-4.6-0.8-6.4c5.8-5.9,11.8-11.5,17.7-17.3c1.8-1.8,4.9-3.6,7.1-1.4c2.8,2,0.7,5.4-0.9,7.4c2.1,1.3,4.2,2.6,6.3,3.9
		c2.6-2.9,4.7-7,3.2-11c-1.9-4.3-5.7-8.6-10.7-8.9C127.3,460.1,123.4,463.2,120.2,466.3L120.2,466.3z M454.9,468
		c6.8,7.2,13.7,14.2,20.4,21.4c3.8,3.8,7.4,8.9,5.7,14.5c1.9,0.7,3.9,1.3,5.8,2c0.7-3,2-6.1,1-9.1c-0.9-2.8-2.6-5.2-4.2-7.6
		c-5.9-7.3-12.7-13.8-19-20.6c1.7-1.7,3.5-3.4,5.2-5c9.5,9.9,19,19.8,28.4,29.8c1.8-1.7,3.6-3.4,5.4-5.1
		c-11.1-11.6-22.2-23.3-33.3-34.9C465.2,458.2,460,463.1,454.9,468L454.9,468z M106.4,436.6c-4.1,1.4-7.5,4.3-11,6.8
		c-4.8,3.6-9.8,6.9-14.4,10.6c-3,2.4-5.7,6.1-5,10.1c1.1,4.1,3.9,7.9,7.5,10.2c4.1,2.1,8.9,0,12.4-2.4c5.9-4.1,11.6-8.4,17.4-12.6
		c3.7-2.7,8-6.2,7.9-11.3C120.4,441.2,113.7,433.8,106.4,436.6L106.4,436.6z M485.4,434c-1.6,2.2-3.2,4.4-4.9,6.5
		c10.7,12.4,21.5,24.8,32.3,37.2c1.5-2,3.1-4,4.6-6.1c-2.3-2.5-4.6-5-6.8-7.6c1.8-2.3,3.6-4.7,5.4-7c3,1.5,6.1,3.1,9.1,4.6
		c1.5-2,3.1-4,4.7-6C514.9,448.4,500.2,441,485.4,434L485.4,434z M52.9,429.9c2.9,4.7,4.8,10.2,9.2,13.8c3.4,2.8,8.3,2.3,12,0.4
		c4.8-1.8,10.2-5.6,9.5-11.4c2.9,1.7,6.4,2,9.4,0.5c4.4-2.2,9.2-5.9,9.1-11.2c-0.9-5.8-4.6-10.6-7.2-15.7
		C80.9,414.2,66.9,422,52.9,429.9L52.9,429.9z M497.5,418.9c0.2-6,4.8-13,11.4-12.6c1.7,0.1,3.3,0.8,4.9,1.2
		c-0.5,2.4-0.9,4.8-1.4,7.3c-2.2-0.5-5.4-1.6-6.9,0.9c-1.9,2.6,0.3,5.7,2.9,6.7c7.4,3.6,14.9,7.1,22.3,10.6c2.2,1.3,5.3,0.5,6-2.1
		c1.2-2.8-1.7-4.7-3.6-6c1.4-2.1,2.8-4.1,4.1-6.2c3.4,2,6.9,5,7.2,9.3c-0.1,4.1-2,8-4.8,11c-3.1,3.1-8.1,2.5-11.8,0.8
		c-6.7-2.9-13.2-6.2-19.8-9.2C503.4,428.3,497.7,424.9,497.5,418.9L497.5,418.9z M75,381.1c-7.7,1.6-14.8,5-22.3,7.4
		c-4.9,1.8-11,3.7-12.7,9.2c-0.6,4.6,1.2,9.3,4.1,12.9c3.6,3.6,9.2,2.5,13.5,1c7.3-2.6,14.8-5.2,22-8c3.8-1.5,8-4.3,8.4-8.7
		c0.2-4-1.2-8.2-3.9-11.2C81.9,381.1,78.2,380.7,75,381.1L75,381.1z M507.4,397.6c2.2,0.8,4.3,1.7,6.5,2.5c0.9-2.4,1.8-4.9,2.8-7.3
		c12.8,4.9,25.7,9.7,38.5,14.6c0.9-2.4,1.8-4.7,2.7-7.1c-12.9-4.9-25.7-9.7-38.6-14.6c0.9-2.4,1.8-4.9,2.7-7.3
		c-2.2-0.8-4.3-1.6-6.5-2.4C512.8,383.3,510.1,390.4,507.4,397.6L507.4,397.6z M545.6,354.8c-5.2,1.8-6.6,7.7-7.6,12.4
		c-6-1.4-12.1-2.8-18.1-4.1c-0.6,2.4-1.1,4.8-1.7,7.2c15.7,3.6,31.3,7.2,47,10.8c1-4.7,2.5-9.4,2.9-14.2c0.3-4.5-2.9-8.7-7.1-10.2
		C556.2,354.8,550.7,353.3,545.6,354.8L545.6,354.8z M27.3,358.6c15.7-3.7,31.3-7.4,46.9-11.1c0.6,2.4,1.2,4.8,1.7,7.2
		c-6.5,1.5-13.1,3.1-19.6,4.6c0.6,2.8,1.3,5.6,2,8.4c6.5-1.5,13.1-3,19.6-4.6c0.6,2.4,1.2,4.8,1.8,7.2c-15.7,3.7-31.3,7.4-47,11.1
		c-0.6-2.4-1.1-4.9-1.6-7.3c6.8-1.5,13.6-3.2,20.4-4.7c-0.6-2.8-1.3-5.6-2-8.4c-6.8,1.6-13.7,3.2-20.5,4.9
		C28.4,363.4,27.8,361,27.3,358.6L27.3,358.6z M548,303.1c-4,1-7.2,4.1-8.7,7.9c-2.5,6.3,1.7,13.6,7.9,15.7
		c7.1,2.6,15.3-3.3,15.8-10.7C563.7,308.2,555.6,301.1,548,303.1L548,303.1z M46.1,303.2c-4.8,1.4-8.8,5.7-9.3,10.8
		c-0.8,6.8,5.3,13.4,12,13.4c6.8,0.2,13-6.5,12.3-13.3C60.6,306.9,53.1,301.2,46.1,303.2L46.1,303.2z M514.6,247.1
		c1,5,1.1,10.3,3,15.2c1.8,4.3,6.8,6.3,11.2,5.9c5-0.2,10.8-0.9,14.5-4.7c3.3-3.8,2.4-9.1,1.7-13.6c6.1-0.9,12.2-1.9,18.3-2.9
		c-0.4-2.4-0.8-4.9-1.2-7.3C546.3,242.1,530.4,244.6,514.6,247.1L514.6,247.1z M38.5,231.2c-0.6,2.8-1.2,5.6-1.7,8.4
		c4.5,2.5,8.9,5,13.3,7.6c-5.1,0.6-10.3,1.1-15.4,1.6c-0.6,2.7-1.2,5.5-1.8,8.2c8.2-1.3,16.3-2.7,24.5-4c7.5,5,15,9.9,22.5,14.8
		c0.6-2.7,1.1-5.4,1.7-8.1c-5-3-10.1-5.9-15.1-8.9c5.8-0.7,11.6-1.3,17.4-1.9c0.6-2.7,1.2-5.5,1.8-8.2c-8.9,1.5-17.8,3.1-26.8,4.5
		C52.2,240.5,45.4,235.8,38.5,231.2L38.5,231.2z M505.2,219.8c0.6,2.4,1.3,4.8,2,7.2c5.9-1.6,11.9-3.3,17.8-4.9
		c1.1,3.9,2.3,8.4,5.9,10.7c4,2.7,9.1,1.6,13.5,0.4c4.3-1.4,9.4-3.4,10.5-8.3c0.9-6.2-1.8-12.1-3.2-18
		C536.2,211.3,520.7,215.6,505.2,219.8L505.2,219.8z M51.3,202.5c-4.7,1.5-6.6,6.8-7.2,11.3c-0.8,4.8,3.1,8.9,7.2,10.6
		c6.5,2.7,13.2,4.6,19.8,7.1c4.9,1.6,10.7,4.2,15.7,1.2c3.5-2.8,5-7.5,5.3-11.8c0.2-4.2-3.5-7.5-7-9.1c-6.2-2.7-12.7-4.5-19-6.8
		C61.3,203.5,56.3,201.2,51.3,202.5L51.3,202.5z M491.5,190c1,2.2,2,4.3,3,6.5c10.6-1.2,21.2-2.5,31.9-3.6
		c-9.1,4.5-18.4,8.6-27.5,12.9c1,2.2,2.1,4.4,3.1,6.6c14.6-6.8,29.2-13.6,43.7-20.3c-1-2.2-2.1-4.4-3.1-6.6
		c-10.7,1.2-21.4,2.7-32.2,3.7c9.2-4.6,18.6-8.7,27.8-13.1c-1-2.2-2-4.4-3.1-6.6C520.7,176.4,506.1,183.2,491.5,190L491.5,190z
		 M64.3,167.4c1.1-2.1,2.2-4.1,3.3-6.2c4.1,3.6,8.4,6.9,12.4,10.6c2.3,2.1,3.7,5,3.9,8.1c2.4-1.8,5.5-2.5,8.5-1.8
		c6.1,1.4,12,3.4,18,5c-1.2,2.2-2.3,4.4-3.5,6.6c-6-1.6-11.8-4.2-18-4.8c-3-0.2-4.6,2.6-5.9,4.7c6.2,3.4,12.4,6.7,18.7,10
		c-1.2,2.2-2.3,4.4-3.5,6.5c-14.2-7.6-28.3-15.1-42.5-22.7c1.2-2.2,2.3-4.4,3.5-6.5c6,3.2,12,6.5,18.1,9.6c1-2.3,2.1-5.2,0.3-7.4
		C73.8,174.7,68.6,171.4,64.3,167.4L64.3,167.4z M474.6,165c2.8,3.9,5.1,8.2,8.3,11.8c3.1,3.4,8.5,3.9,12.5,1.8
		c4.7-2.3,9.8-5.3,12-10.2c1.9-5-1.3-9.7-4-13.7c3.2-2.1,6.3-4.3,9.5-6.4c2.5,3.8,5.1,7.6,7.6,11.4c1.9-1.3,3.9-2.6,5.9-3.9
		c-3.9-5.8-7.8-11.7-11.7-17.5C501.3,147.2,488,156.1,474.6,165L474.6,165z M86.7,135.3c3.7,4.5,8.2,8.4,11.4,13.3
		c1.7,2.5,0.2,5.4-1.2,7.6c-5.6-4-11.1-8-16.6-12c-1.5,2-2.9,4-4.3,6c13,9.4,26.1,18.8,39.2,28.1c1.4-2,2.9-4,4.3-6
		c-5.7-4.1-11.5-8.2-17.2-12.4c1.7-2.3,4.3-4.9,7.5-3.7c5.6,1.8,10.9,4.6,16.3,7c1.5-2,2.9-4.1,4.4-6.1c-5.5-2.3-10.8-4.9-16.4-7.1
		c-3-1.3-6.5-1.2-9.4,0.4c0.2-3.1-0.8-6.1-2.8-8.5c-3.5-4.2-7.3-8.1-11-12.2C89.5,131.6,88.1,133.5,86.7,135.3L86.7,135.3z
		 M452.7,140.5c11.5-11.2,23-22.5,34.6-33.7c1.7,1.7,3.4,3.5,5,5.2c-7.3,7.2-14.9,14.3-22.1,21.7c9.8-4.6,19.5-9.5,29.3-14.2
		c1.7,1.7,3.4,3.5,5.1,5.2c-11.5,11.2-23,22.4-34.6,33.6c-1.7-1.7-3.4-3.5-5.1-5.3c7.2-7.1,14.5-14,21.7-21.2
		c-9.7,4.4-19.2,9.2-28.9,13.8C456,144,454.3,142.2,452.7,140.5L452.7,140.5z M99.7,118.8c4.9-5.2,9.9-10.3,14.8-15.5
		c1.7,1.6,3.4,3.2,5.1,4.9c-3.2,3.4-6.4,6.7-9.6,10.1c3.2,3,6.3,6,9.5,9c2.8-2.9,5.5-5.8,8.3-8.8c1.7,1.6,3.4,3.2,5.2,4.8
		c-2.7,3-5.5,5.9-8.3,8.8c3.3,3.3,6.7,6.4,10,9.6c3.2-3.4,6.4-6.7,9.6-10.1c1.7,1.6,3.4,3.2,5.1,4.9c-5,5.1-9.8,10.4-14.8,15.5
		C123,140.9,111.3,129.9,99.7,118.8L99.7,118.8z M276.5,95.8C239,100,202.9,115,173.3,138.3c-35.2,27.4-60.8,66.6-72.2,109.7
		c-7.9,30.4-8.7,62.7-2.5,93.5c6.4,30.6,19.9,59.8,39.2,84.5c28.3,36.6,69.3,63.1,114.3,73.9c34.7,8.3,71.6,7.4,105.8-2.7
		c18.4-5.7,36.1-13.5,52.3-23.9c33.2-21.1,60.2-52,76.5-87.8c3.8-7.5,6.2-15.6,9.2-23.4c14-44.3,12.7-93.5-4.6-136.7
		c-21.1-54.7-66.9-99.4-122.2-118.7C339.7,95.6,307.6,92.4,276.5,95.8L276.5,95.8z M449.7,94.8c-4.6,5.4-9.4,10.6-13.9,16.1
		c-2.7,3.2-4.8,7.8-2.6,11.8c2.2,3.6,5.6,6.7,9.8,7.7c4,0.6,7.5-1.9,10.3-4.4c-1.6-1.9-3.2-3.8-4.9-5.7c-1.7,1.3-3.8,3.5-6.1,2.2
		c-2.4-1.1-3.1-4.4-1.2-6.3c5.5-6.5,11.2-12.9,16.8-19.2c1.6-2,5-3.2,6.9-0.9c2.2,2,0.4,5-0.9,7c2.2,1.1,4.4,2.2,6.6,3.3
		c2.4-3.1,4.2-7.5,2.2-11.3c-2.3-4.3-6.7-8.2-11.8-7.8C456.2,87.8,452.7,91.4,449.7,94.8L449.7,94.8z M139.7,83
		c3.4,10.3,6.9,20.6,10.3,31c-6.3-8.2-12.3-16.6-18.5-24.8c-1.9,1.4-3.9,2.9-5.8,4.3c9.6,12.9,19.2,25.8,28.8,38.7
		c1.9-1.4,3.9-2.9,5.8-4.3c-3.3-10.2-6.7-20.4-10-30.6c6.2,8.1,12.1,16.3,18.3,24.4c2-1.5,3.9-2.9,5.9-4.4
		c-9.6-12.9-19.2-25.8-28.8-38.7C143.6,80.1,141.6,81.6,139.7,83L139.7,83z M133,74.3c1.4-1,2.8-2.1,4.3-3.1c1.1,2.6,2,5.4,1.2,8.2
		c-0.9,4.7-6,8.1-10.7,7.3c-2.6-0.2-4.6-2-6.5-3.6c1.4-1.1,2.9-2.1,4.4-3.1c1.8,0.9,4.2,2.4,6.2,1C134.2,79.6,133.7,76.5,133,74.3
		L133,74.3z M173.3,62.4c2.2-1.2,4.4-2.3,6.6-3.4c7.4,14.3,14.8,28.5,22.2,42.8c-2.2,1.2-4.4,2.3-6.7,3.3
		c-3.1-6.2-6.4-12.4-9.6-18.6c-2.6,1.3-5.1,2.7-7.7,4c3.2,6.2,6.5,12.4,9.7,18.7c-2.2,1.2-4.4,2.3-6.6,3.5
		c-7.4-14.3-14.8-28.5-22.2-42.8c2.2-1.1,4.4-2.3,6.6-3.4c3.1,6,6.2,11.9,9.3,17.9c2.6-1.3,5.1-2.6,7.7-4
		C179.5,74.4,176.4,68.4,173.3,62.4L173.3,62.4z M388.5,97c4.3,2.1,8.4,4.7,12.9,6.2c4.3,1.4,9.2-0.5,11.7-4.1
		c3.2-4.4,6.2-9.6,5.7-15.2c-0.8-5.2-5.9-7.8-10.1-9.9c1.7-3.4,3.5-6.8,5.2-10.2c4.1,2.1,8.1,4.1,12.2,6.2c1.1-2.1,2.1-4.2,3.2-6.3
		c-6.2-3.2-12.5-6.4-18.7-9.6C403.2,68.4,395.8,82.7,388.5,97L388.5,97z M194.1,51.2c5.6,15,11.1,30.1,16.6,45.2
		c4.6-1.9,9.6-3,13.9-5.7c3.9-2.4,5.3-7.4,4.2-11.7c-1.2-5-2.8-10.7-7.3-13.8c-4.4-2.8-9.6-0.8-14.1,0.7c-2.1-5.8-4.2-11.6-6.3-17.4
		C198.8,49.4,196.4,50.3,194.1,51.2L194.1,51.2z M378.2,79.5c-1.4,3.4-5.1,7.1-9.1,5c-0.7,1.8-1.3,3.7-2,5.5c2.8,0.9,5.8,2.1,8.7,1
		c3.9-1.6,6.2-5.3,8.7-8.6c7-10.2,14-20.5,21-30.8c-2.2-0.8-4.4-1.6-6.6-2.3c-4.7,7.3-9.3,14.7-14.1,21.9c0.8-8.6,1.8-17.2,2.8-25.9
		c-2.3-0.8-4.6-1.6-6.8-2.5C379.8,55.1,379.2,67.3,378.2,79.5L378.2,79.5z M219.7,41.8c5.5,15.1,11,30.2,16.6,45.3
		c2.3-0.9,4.7-1.7,7-2.6c-5.5-15.1-11-30.2-16.6-45.3C224.4,40.1,222.1,40.9,219.7,41.8L219.7,41.8z M341.8,67
		c2.2-10.3,4-20.7,6-31.1c7,1.3,14,2.6,21,3.9c-3,15.8-5.9,31.6-8.9,47.4c-2.4-0.5-4.9-0.9-7.3-1.4c2.5-13.5,5-27,7.6-40.4
		c-2.4-0.5-4.8-0.9-7.1-1.4c-1.8,9.2-3.2,18.4-5.7,27.5c-1,2.7-2,5.6-3.8,7.9c-1.9,2.6-5.2,3.3-8,4.5c-0.6-2-1.2-3.9-1.7-5.9
		C338.5,76.4,340.9,71.7,341.8,67L341.8,67z M261.8,33.3c-1.9,10.7-3.6,21.4-5.6,32.1c-1.8-10.2-3-20.4-4.6-30.6
		c-2.4,0.3-4.8,0.7-7.2,1.1c2.3,15.9,4.7,31.8,7,47.7c2.4-0.3,4.8-0.7,7.1-1c1.9-10.6,3.7-21.2,5.8-31.8c1.4,10.1,3,20.2,4.4,30.2
		c2.4-0.4,4.8-0.7,7.3-1.1c-2.4-15.9-4.7-31.8-7.1-47.7C266.6,32.5,264.2,32.9,261.8,33.3L261.8,33.3z M303.3,30.5
		c-0.7,16.1-1.5,32.1-2.2,48.2c2.5,0.1,4.9,0.2,7.4,0.3c0.3-7.1,0.6-14.1,1-21.1c2.7,0.1,6,0.7,7,3.7c1.9,5.8,2.2,12,3.3,18
		c2.5,0.1,5,0.3,7.5,0.4c-1.1-6-1.8-12.2-3.1-18.2c-0.6-3.1-2.6-5.7-5.4-7.2c2.5-1.4,4.5-3.6,5.5-6.3c1.8-5.4,2.9-11,4.4-16.5
		c-2.3-0.1-4.6-0.2-7-0.3c-1.7,5.7-2.4,11.7-5.1,17.1c-1.2,2.5-4.3,2.7-6.8,2.8c0.3-6.8,0.6-13.7,0.9-20.5
		C308.2,30.7,305.7,30.6,303.3,30.5L303.3,30.5z M260.1,22.5c1.7-0.3,3.5-0.5,5.2-0.8c-0.1,4.9-3.1,10.2-8.3,10.8
		c-5.3,1.3-10.3-2.9-11.5-7.9c1.8-0.3,3.5-0.6,5.3-0.8c1.2,1.8,2.7,4.2,5.2,3.8C258.6,27.5,259.6,24.7,260.1,22.5L260.1,22.5z
		 M273.5,13.8c-49.4,4.4-97.6,22-138.2,50.6c-42.7,29.8-77.1,71.4-98.1,119C8,248.5,4.6,324.6,27.7,392.1
		c15.1,44.8,41.6,85.7,76.2,117.9c30.4,28.5,67.1,50.2,106.8,63.1c45.9,15,95.6,18.1,143,9.1c41.3-7.8,80.8-24.9,114.8-49.6
		c30-21.7,55.7-49.3,75.3-80.7c22.5-35.9,36.8-76.8,41.5-118.9c5.5-47.8-1-96.9-19.2-141.4c-14.9-36.5-37.4-69.9-65.6-97.4
		C467.4,61.9,426.4,37.7,382,24.5C347,14.1,309.9,10.5,273.5,13.8z"/>
</g>
</svg>
