<?xml version="1.0" encoding="utf-8"?>
<!-- Generator: Adobe Illustrator 22.0.1, SVG Export Plug-In . SVG Version: 6.00 Build 0)  -->
<svg version="1.1" id="_x31_" xmlns="http://www.w3.org/2000/svg" xmlns:xlink="http://www.w3.org/1999/xlink" x="0px" y="0px"
	 viewBox="0 0 482.7 101" style="enable-background:new 0 0 482.7 101;" xml:space="preserve">
<style type="text/css">
	.st0{fill:#158999;}
</style>
<path class="st0" d="M37.9,5.2C41,0.3,47.4,0.1,52.7,0C61.9-0.1,70.8,3.4,78,9c4.1-0.3,8.5-0.9,12.4,1c8.4,3.3,14.4,12.6,13.2,21.7
	c-0.3,2.6-1.3,5.1-1.8,7.7c2.7,3,6.2,5.3,8.2,8.9c3.4,5.7,4.7,13.5,0.5,19.1c-4.2,5.2-11.3,6.3-17.6,6.4c4.3-4.1,7.7-9.4,8.4-15.4
	c1.4-5.9-0.2-11.8-0.5-17.7c-2.6,2.7-5.6,5-9,6.7c0.8-8,1.3-16.8-3.1-23.9c-3.6-5.9-9.9-9.4-16.3-11.3c0.4-0.4,1.2-1.3,1.6-1.7
	C67.8,7.8,61.3,5.6,54.5,5C49.1,4.6,43.5,5.3,37.9,5.2L37.9,5.2z M28.2,25.6c-1.6,9.2,4.5,18.6,13.2,21.7
	c-1.3-7.5-2.6-15.8,1.3-22.8c3.6-6.9,11.1-10.4,18.2-12.5c-3.2-1.7-6.6-3.1-10.2-3.2C40.6,8.2,30.3,15.5,28.2,25.6L28.2,25.6z
	 M150.7,10.6c5.6-0.1,11.3-0.1,17,0c-1.4,6.7-2.9,13.4-4.4,20.1c6.6-6.7,13.1-13.4,19.6-20.1c7.2,0,14.3-0.1,21.5,0
	c-8.3,9.2-16.9,18.1-25.3,27.2c5.4,8.7,11,17.4,16.4,26.2c-6.7,0.1-13.3,0-20,0.1c-4.7-7-9.2-14.2-14-21.3
	c-1.8,7.1-3.6,14.2-5.4,21.3c-5.6,0-11.3,0-16.9,0C142.9,46.1,146.9,28.4,150.7,10.6L150.7,10.6z M229.9,10.6
	c-10.2,17.8-20.5,35.5-30.6,53.3c6.1,0.1,12.1,0.1,18.2,0c1.3-2.9,2.7-5.8,4.2-8.6c5.9-0.1,11.7,0,17.6,0c0.2,2.9,0.5,5.8,0.8,8.7
	c5.5,0,11,0,16.5,0c-2.8-17.8-5.7-35.6-8.6-53.4C241.8,10.5,235.9,10.4,229.9,10.6L229.9,10.6z M227.4,43.8
	c2.7-6.6,6.1-12.8,9.1-19.3c0.6,6.4,1.2,12.8,1.7,19.3C234.5,43.8,231,43.8,227.4,43.8L227.4,43.8z M262.6,10.6
	c17.1-0.2,34.2-0.1,51.4,0c-0.8,4.4-1.8,8.9-2.8,13.3c-5.8,0-11.6-0.2-17.4,0.1c-3.4,13.3-5.9,26.7-9,40.1c-5.6,0-11.3,0-16.9,0
	c2.8-13.4,5.9-26.8,8.8-40.2c-5.6,0-11.2,0-16.8,0C260.7,19.3,261.6,14.9,262.6,10.6L262.6,10.6z M310.6,63.9c5.7,0,11.3,0.1,17,0
	c1.4-6.5,2.8-13,4.2-19.6c6.5-0.1,13.1,0.3,19.4-1.4c7.3-2,12.9-8.8,13.5-16.3c0.5-4.8-0.9-10.2-5-13.1c-4.3-3.1-9.9-2.7-15-3
	c-7.4,0.1-14.8-0.2-22.2,0.1C318.1,28.3,314.6,46.2,310.6,63.9L310.6,63.9z M337,21.2c3.4,0.1,7-0.6,10.1,0.9
	c2.6,2.4,1.8,6.9-0.8,9.1c-3.2,3.1-8.1,2.4-12.1,2.1C335.2,29.3,336.1,25.3,337,21.2L337,21.2z M376.1,10.6
	c14.9-0.2,29.8-0.1,44.7,0c-0.9,3.9-1.8,7.7-2.7,11.6c-9.2,0-18.4,0-27.6,0c-0.6,2.8-1.2,5.6-1.8,8.3c8.8,0,17.7,0,26.5,0
	c-0.8,3.6-1.6,7.3-2.5,10.9c-8.8,0-17.7-0.2-26.5,0.1c-0.7,3.4-1.4,6.8-2.2,10.2c9.9,0,19.8,0,29.8,0c-0.8,4.1-1.7,8.2-2.7,12.3
	c-15.5-0.1-31.1,0-46.6-0.1C368.4,46.1,372.2,28.4,376.1,10.6L376.1,10.6z M430.7,10.5c-3.9,17.8-7.9,35.6-11.7,53.4
	c5.7,0,11.3,0,17,0c1.7-7.2,3.1-14.4,4.7-21.6c6,0,12,0,18,0c-1.5,7.2-3.1,14.4-4.6,21.6c5.6,0,11.3,0,16.9,0
	c3.8-17.8,7.8-35.5,11.6-53.3c-5.6-0.2-11.2-0.1-16.8-0.1c-1.5,6.3-2.9,12.6-4.3,18.9c-6,0-12,0-17.9,0c1.2-6.3,2.7-12.5,4-18.8
	C441.9,10.4,436.3,10.5,430.7,10.5L430.7,10.5z M1.6,35.3c-2.4,4.5-1.6,9.8,0.2,14.3C5.6,60.2,15.1,68,25.5,71.4
	c8.7,2.8,17.9,3.6,27,3c2.6,1.5,4.8,3.7,7.7,4.6c5.3,1.6,11.3,0.9,15.9-2.2c6.6-4.2,10.6-11.8,11-19.5c-5.8,4.7-12.7,9-20.5,8.8
	c-7.7,0.1-14.4-4.2-20.1-8.9c0.2,3.8,1,7.5,2.3,11.1c-9.8-4-19.1-9.9-25.4-18.6c-3.8-5.3-5.3-11.8-5.9-18.1
	c-0.2-2.9,0.6-5.9,0.1-8.8C11.2,25.2,4.5,28.8,1.6,35.3L1.6,35.3z M56,23.9c-4,1.6-3.3,6.7-2.8,10.1c2,6.8,7,12.3,12.9,16.1
	c3.7,2.1,8.7,4.2,12.7,1.6c2.9-2.1,2.8-6,2-9.1c-2.4-8-8.5-14.8-16.1-18.1C62.1,23.4,58.8,22.4,56,23.9L56,23.9z M127,76.2
	c118.5-0.1,237.1-0.1,355.6,0c0,0.6,0,1.8,0,2.4c-95.3,0.1-190.6,0-285.9,0c-23-0.1-46.1,0.2-69.1-0.1
	C127.5,77.9,127.2,76.7,127,76.2L127,76.2z M70.1,90c3.9-1.6,7.9,2.6,6.5,6.5c-0.6,3.7-5.7,4.9-8.2,2.5C65.9,96.4,66.4,91.1,70.1,90
	L70.1,90z M70.9,91.7c-3.1,1.2-2.1,7.5,1.7,6.6C75.9,97.3,74.9,90.4,70.9,91.7L70.9,91.7z M97.8,89.8c2.8,0.5,6.8-1.3,8.6,1.6
	c-0.9,0.1-2.7,0.2-3.6,0.3c0,2.9,0,5.8,0,8.6c-0.5-0.2-1.5-0.5-2-0.7c-0.3-2.7-0.1-5.3-0.1-8c-0.8,0-2.2,0-3,0
	C97.7,91.2,97.8,90.3,97.8,89.8L97.8,89.8z M114.1,90.1c2.7-1.1,6.5,0.2,6.9,3.4c1,3.3-1.7,7.2-5.3,6.7
	C110.7,100.1,109.6,91.9,114.1,90.1L114.1,90.1z M115.1,91.7c-2.6,1.6-1.9,6.9,1.5,6.7C120.6,97.6,119.3,90.1,115.1,91.7L115.1,91.7
	z M127.8,89.8c2.3,0.1,4.7-0.1,7,0.6c1.6,1.1,0.5,2.9,0.3,4.4c0.4,0.5,1.2,1.4,1.5,1.8c-0.5,1.1-1.1,2.1-1.7,3.1
	c-2.3,0.5-4.8,0.4-7.2,0.5C127.6,96.7,127.6,93.2,127.8,89.8L127.8,89.8z M129.7,91.6c0.1,0.7,0.3,2,0.4,2.7
	c1.5-0.5,3.4-0.5,3.9-2.4C132.6,91.8,131.1,91.7,129.7,91.6L129.7,91.6z M129.9,95.5c0,0.8,0,2.3,0.1,3.1c1.5-0.4,3.8,0.1,4.3-1.8
	C133.2,95.5,131.3,95.8,129.9,95.5L129.9,95.5z M143,89.8c0.5,0,1.6,0.1,2.1,0.1c0,1.3,0,2.5,0.1,3.8c2.2,0.5,6-0.3,6.4,2.9
	c0.3,4.6-5.5,3.3-8.5,3.6C143,96.7,143,93.3,143,89.8L143,89.8z M145.1,95.5c0,0.8,0,2.3,0,3.1c1.8-0.2,3.6-0.6,4.9-2
	C148.4,96.2,146.8,95.8,145.1,95.5L145.1,95.5z M161.8,89.8c2.7,0,5.5,0,8.2,0.2c-1.4,2.3-4.4,1.4-6.6,1.9c0.6,3,4.1,1.5,6.1,2.2
	c-1.1,2.1-3.8,1.3-5.7,1.7c0,0.6,0.1,1.8,0.1,2.5c2.1,0,4.2,0.1,6.3,0.2c-1.6,3-5.7,1.2-8.4,1.6C161.7,96.7,161.7,93.3,161.8,89.8
	L161.8,89.8z M183.1,89.9c2.7,0,5.4,0,8.1,0c0,3.4,0,6.8,0,10.2c-0.5,0-1.5,0-2.1,0c0-2.8-0.1-5.6-0.1-8.4c-1,0-2.9,0-3.9,0
	c0,2.8,0,5.6,0,8.4c-0.5,0-1.6,0-2.1-0.1C183.1,96.7,183.1,93.3,183.1,89.9L183.1,89.9z M201.1,90c2.7-0.9,6,0.6,6.5,3.6
	c1.2,3.5-2,7.5-5.8,6.6C196.9,99.6,196.4,91.2,201.1,90L201.1,90z M201.9,91.7c-3.2,1.2-2.1,7.7,1.7,6.7
	C206.9,97.1,206,90.5,201.9,91.7L201.9,91.7z M217,90c2.3-0.9,6.2,0.4,5.3,3.5c-1.7-0.6-3.3-2.6-5.1-1.5c-1.6,1.6-1.4,4.5,0.1,6.1
	c2,0.7,3.5-1.6,5.5-1.7c-0.1,2.5-2.4,4.3-4.9,3.8C212.9,99.6,212.6,91.5,217,90L217,90z M227.9,91.5c2-3.2,6.6-1.2,9.7-1.1
	c-1.3,0.6-2.6,1.2-4,1.7c0,2.8-0.1,5.5-0.2,8.3c-0.5-0.1-1.5-0.5-2-0.6c0-2.7,0-5.4,0.1-8C230.6,91.7,228.8,91.6,227.9,91.5
	L227.9,91.5z M244.9,89.8c0.5,0,1.6,0.1,2.2,0.2c1.2,3.5,3.5,6.8,3.5,10.6c-1.3-0.5-2.2-1.7-3-2.7c-1,0-2,0-3.1-0.1
	c-0.9,1.2-2.1,2.2-3.5,2.8C241.9,96.9,243.4,93.3,244.9,89.8L244.9,89.8z M244.6,95.5c0.7,1.1,1.5,1.2,2.4,0.1
	C248.4,92.4,243.6,92.3,244.6,95.5L244.6,95.5z M257.1,89.8c2.2,0.1,4.6-0.2,6.8,0.5c1.9,0.8,0.8,2.8,0.6,4.3
	c1.1,1.5,1.6,3.5,0.1,4.9c-2.4,0.9-5,0.5-7.5,0.6C257.1,96.7,257.1,93.3,257.1,89.8L257.1,89.8z M259.1,91.5
	c0.1,0.7,0.2,1.9,0.3,2.6c1.2-0.5,3.9-0.1,3.7-2C261.8,91.8,260.5,91.7,259.1,91.5L259.1,91.5z M259.2,95.5c0,0.7,0,2.2,0,3
	c1.5-0.2,3-0.3,4.5-0.9C263.5,95.2,260.8,96,259.2,95.5L259.2,95.5z M274.6,94.4c1.3-2.2,2.6-4.6,5.4-5.1c-1,1.8-2.1,3.5-3.2,5.3
	c1.1,1.8,2.1,3.7,3,5.6c-0.6-0.1-1.8-0.2-2.4-0.3c-0.9-1.6-1.8-3.1-2.8-4.7c-0.1,1.7-0.2,3.3-0.4,5c-0.5-0.1-1.5-0.3-2-0.4
	c0-3.3,0-6.6,0.1-10h2C274.5,91.4,274.5,92.9,274.6,94.4L274.6,94.4z M308,89.8c1,0,2,0.1,3.1,0.1c0.6,2.2,1.2,4.4,1.9,6.6
	c0.6-2.2,1.2-4.4,1.8-6.6c0.7,0,2.2-0.1,3-0.1c-0.3,3.6,1.5,8.2-1.3,11.1c-0.5-2.2-0.8-4.5-1.2-6.7c-0.4,2.4-0.9,4.9-2.6,6.9
	c-1.3-2.7-2-5.6-2.5-8.5c-0.4,2.8,0.7,6.3-1.7,8.4C307.7,97.3,307.9,93.5,308,89.8L308,89.8z M324.8,89.8c2.7,0,5.5,0.1,8.2,0.3
	c-1.5,2.2-4.5,1.4-6.7,1.8c0.8,2.7,3.9,1.7,6,2.2c-0.2,0.4-0.5,1.1-0.6,1.5c-1.6,0-3.3,0.1-4.9,0.1c0,0.6,0.1,1.9,0.1,2.6
	c2.1,0,4.2,0.1,6.3,0.3c-1.8,2.8-5.7,1.1-8.4,1.6C324.6,96.7,324.6,93.2,324.8,89.8L324.8,89.8z M340.1,89.9c2.3,0,4.7,0,7,0
	c0,2.9-0.1,5.8,0.5,8.6c0.5,1.6,0.2,3.2-0.8,4.6c-0.2-0.7-0.6-2.2-0.8-3c-1.9-0.1-3.7-0.1-5.6-0.1c-0.4,0.8-1.2,2.3-1.6,3
	c-0.3-1.3-0.6-2.6-0.9-3.8C340.3,96.7,339.8,93.1,340.1,89.9L340.1,89.9z M342.1,91.6c-0.2,2.2-0.5,4.4-0.8,6.6c1.2,0,2.4,0,3.6,0
	c0-2.1,0-4.3,0-6.4C344.1,91.8,343.1,91.7,342.1,91.6L342.1,91.6z M360.2,90c0.6-0.1,1.6-0.2,2.2-0.2c0.1,3.6,0.4,7.2-0.4,10.7
	c-2.9-0.9-1.1-4.7-1.6-7c-1.7,2.5-2.7,6.2-6,7c-0.1-3.6-0.1-7.1-0.1-10.7h2c0,2.2,0,4.4,0,6.6C357.6,94.4,358.9,92.2,360.2,90
	L360.2,90z M372,94.4c1.2-2.2,2.3-5,5.3-4.5c-1.2,1.6-2.4,3.2-3.4,4.8c1.2,1.7,2.3,3.6,3.1,5.5c-0.6-0.1-1.9-0.2-2.5-0.3
	c-0.8-1.6-1.6-3.1-2.4-4.7c-0.5,1.9,0.2,4.9-2.5,5.2c-0.1-3.5-0.2-7.1,0-10.6C372.5,89,371.4,92.8,372,94.4L372,94.4z M386.1,89.8
	c0.6,0,1.7,0.1,2.2,0.1c1.4,3.5,2.9,7,4,10.6c-1.5-0.5-2.6-1.4-3.5-2.7c-1.1,0-2.1,0-3.2,0c-0.9,1.2-2.1,2.1-3.5,2.7
	C383.1,96.9,384.6,93.3,386.1,89.8L386.1,89.8z M398.3,90c1-0.1,2.1-0.1,3.1-0.2c0.6,2.3,1.2,4.5,1.8,6.7c0.6-2.2,1.1-4.3,1.7-6.5
	c0.8,0,2.4-0.1,3.3-0.2c0,3.4,0,6.8,0,10.2l-1.8,0.1c-0.1-1-0.4-3.1-0.5-4.1c-0.5,1-1.5,3-2,4l-1.4,0.1c-0.9-2.2-1.5-4.6-2.2-6.9
	c0,2.3,0,4.5,0,6.8h-2C398.3,96.7,398.3,93.4,398.3,90L398.3,90z M415.1,89.9c2.7,0.4,6.6-1.3,8.2,1.6c-2.1,0.2-4.2,0.2-6.3,0.3
	c0.1,0.5,0.3,1.5,0.4,2c1.6,0,3.2,0.1,4.8,0.1l0.1,1.7c-1.7,0-3.4,0.1-5.2,0.1c0,0.6,0.1,1.9,0.1,2.5c2.1,0,4.2,0.1,6.2,0.2
	c-1.8,2.8-5.6,1.2-8.4,1.6C415.1,96.7,415.1,93.3,415.1,89.9L415.1,89.9z M429.5,99.7c0.6-3.5-1.5-8.2,1.7-10.7
	c0.3,1.6,0.5,3.2,0.7,4.8c1.1,0,2.2,0,3.3,0c0.4-1.7,0.3-3.9,2.1-4.8c0.4,3.4,0.7,7,0.2,10.4c-0.4,0.3-1.1,1-1.5,1.4
	c-0.2-1.7-0.4-3.5-0.6-5.2c-1.2,0-2.4,0-3.6,0c-0.2,1.6-0.3,3.2-0.5,4.8C430.9,100.3,430,99.9,429.5,99.7L429.5,99.7z M443.3,90.1
	c3.3-0.4,6.7-0.4,9.9,0.3c-1.3,0.6-2.6,1.1-4,1.6c0,2.7,0,5.3-0.1,8c-0.5,0-1.6,0-2.1,0.1c0-2.6,0-5.3-0.1-7.9
	C445.6,91.7,444.3,91.1,443.3,90.1L443.3,90.1z M461,90c3.1-1.1,6.6,1.3,6.5,4.6c0.5,3.2-2.4,6.3-5.7,5.6
	C456.6,99.9,456.1,91.2,461,90L461,90z M461.1,91.9c-2.5,1.9-1.3,7.5,2.4,6.4C467,96.8,465.2,89.8,461.1,91.9L461.1,91.9z M474,89.8
	c2.4,0.3,5.3-0.6,7.4,0.9c0.5,2.4,0.8,4.9,0.9,7.4c-1.4,3-5.6,1.6-8.3,2C474,96.7,474,93.3,474,89.8L474,89.8z M476,91.8
	c0.1,0.5,0.2,1.6,0.3,2.1c1,0,2,0,3,0c0.1-0.5,0.3-1.7,0.4-2.2C478.5,91.7,477.2,91.8,476,91.8L476,91.8z M476.2,95.5
	c0,0.8,0,2.2,0,3c1.7-0.2,3.8,0,4.6-1.9C479.3,95.9,477.7,95.7,476.2,95.5L476.2,95.5z M83.3,89.9c2.7,0,5.5,0,8.2,0
	c0,3.4,0,6.8,0,10.2l-2.1-0.1c0-2.8,0-5.6,0-8.4c-1.3,0-2.6,0-3.9,0c0,2.8,0,5.6,0,8.3h-2.1C83.3,96.7,83.3,93.3,83.3,89.9
	L83.3,89.9z M152.7,89.9c0.5,0,1.5,0.1,2,0.1c0.2,3.3,0.1,6.7,0.1,10c-0.6,0-1.7,0-2.2,0C152.6,96.7,152.5,93.3,152.7,89.9
	L152.7,89.9z M286,89.9h2c0,2.2,0,4.4,0,6.6c1.8-2.5,2.7-6.2,6.1-7.1c0.1,3.6,0.1,7.1,0.1,10.7h-2c0-2.2,0-4.3,0.1-6.4
	c-1.7,2.5-2.9,5.9-6,7C285.9,97,285.9,93.5,286,89.9z"/>
</svg>
