<?xml version="1.0" encoding="utf-8"?>
<!-- Generator: Adobe Illustrator 22.0.1, SVG Export Plug-In . SVG Version: 6.00 Build 0)  -->
<svg version="1.1" id="Слой_1" xmlns="http://www.w3.org/2000/svg" xmlns:xlink="http://www.w3.org/1999/xlink" x="0px" y="0px"
	 viewBox="0 0 105 129" style="enable-background:new 0 0 105 129;" xml:space="preserve">
<style type="text/css">
	.st0{fill:#0288D1;}
	.st1{fill:#0288D1;stroke:#0288D1;stroke-miterlimit:10;}
</style>
<path class="st0" d="M1.6,84.1L1.6,84.1c-0.8,0-1.5-0.7-1.5-1.5V30.7c0-0.8,0.7-1.5,1.5-1.5l0,0c0.8,0,1.5,0.7,1.5,1.5v51.9
	C3.1,83.4,2.4,84.1,1.6,84.1z"/>
<path class="st0" d="M31.3,110.2L31.3,110.2c-0.6,0.6-1.5,0.7-2.1,0.1L0.5,84c-0.6-0.6-0.7-1.5-0.1-2.1l0,0c0.6-0.6,1.5-0.7,2.1-0.1
	l28.7,26.3C31.8,108.7,31.8,109.6,31.3,110.2z"/>
<path class="st0" d="M74,110.2L74,110.2c0.6,0.6,1.5,0.7,2.1,0.1l28.4-26c0.6-0.6,0.7-1.5,0.1-2.1l0,0c-0.6-0.6-1.5-0.7-2.1-0.1
	l-28.4,26C73.5,108.6,73.5,109.6,74,110.2z"/>
<path class="st0" d="M103.5,84.4L103.5,84.4c-0.8,0-1.5-0.7-1.5-1.5V31.1c0-0.8,0.7-1.5,1.5-1.5l0,0c0.8,0,1.5,0.7,1.5,1.5v51.8
	C105,83.8,104.3,84.4,103.5,84.4z"/>
<path class="st0" d="M0.2,31.5L0.2,31.5c-0.4-0.7-0.2-1.6,0.5-2.1L51.4,0.2c0.7-0.4,1.6-0.2,2,0.5l0,0c0.4,0.7,0.2,1.6-0.5,2L2.2,32
	C1.5,32.4,0.6,32.2,0.2,31.5z"/>
<path class="st0" d="M104.8,31.8L104.8,31.8c0.4-0.7,0.2-1.6-0.5-2.1L53.2,0.3c-0.7-0.4-1.6-0.2-2,0.5l0,0c-0.4,0.7-0.2,1.6,0.5,2
	l51.1,29.5C103.5,32.8,104.4,32.5,104.8,31.8z"/>
<path class="st0" d="M52.3,129h-0.6c-0.7,0-1.2-0.5-1.2-1.2v-5.6c0-0.7,0.5-1.2,1.2-1.2h0.6c0.7,0,1.2,0.5,1.2,1.2v5.6
	C53.5,128.5,53,129,52.3,129z"/>
<path class="st0" d="M29,109.2L29,109.2c0-0.8,0.7-1.5,1.5-1.5h44.6c0.8,0,1.5,0.7,1.5,1.5l0,0c0,0.8-0.7,1.5-1.5,1.5H30.5
	C29.7,110.7,29,110,29,109.2z"/>
<path class="st0" d="M29,115.5L29,115.5c0-0.8,0.7-1.5,1.5-1.5h44.6c0.8,0,1.5,0.7,1.5,1.5l0,0c0,0.8-0.7,1.5-1.5,1.5H30.5
	C29.7,117,29,116.3,29,115.5z"/>
<path class="st0" d="M29,122.2L29,122.2c0-0.8,0.7-1.5,1.5-1.5h44.6c0.8,0,1.5,0.7,1.5,1.5l0,0c0,0.8-0.7,1.5-1.5,1.5H30.5
	C29.7,123.7,29,123,29,122.2z"/>
<path class="st1" d="M34.8,74.3L34.8,74.3c0.4-0.7,1.3-1,2-0.6l36.6,21.1c0.7,0.4,1,1.3,0.5,2l0,0c-0.4,0.7-1.3,1-2,0.5L35.3,76.4
	C34.6,76,34.4,75.1,34.8,74.3z"/>
<path class="st0" d="M69.4,74.2L69.4,74.2c-0.4-0.8-1.3-1-2-0.6L31.7,94.2c-0.7,0.4-0.9,1.3-0.5,2v0.1c0.4,0.7,1.3,0.9,2,0.5
	l35.7-20.6C69.6,75.8,69.8,74.9,69.4,74.2z"/>
<path class="st0" d="M17.5,71.8L17.5,71.8c-0.3-0.8,0.1-1.6,0.8-1.9l33-13.1c0.8-0.3,1.6,0.1,1.9,0.8l0,0c0.3,0.8-0.1,1.6-0.8,1.9
	l-33,13.1C18.7,73,17.8,72.6,17.5,71.8z"/>
<path class="st0" d="M86.3,71.8L86.3,71.8c0.3-0.8-0.1-1.6-0.8-1.9l-33-13.1c-0.8-0.3-1.6,0.1-1.9,0.8l0,0c-0.3,0.8,0.1,1.6,0.8,1.9
	l33,13.1C85.1,73,86,72.6,86.3,71.8z"/>
<path class="st1" d="M26.4,50.7L26.4,50.7c-0.6-0.6-0.5-1.6,0.1-2.1L51,26c0.6-0.6,1.5-0.5,2.1,0.1l0,0c0.6,0.6,0.5,1.5-0.1,2.1
	L28.5,50.8C27.9,51.3,27,51.3,26.4,50.7z"/>
<path class="st1" d="M77.5,50.6L77.5,50.6c0.6-0.6,0.5-1.6-0.1-2.1L53,26c-0.6-0.6-1.5-0.5-2.1,0.1l0,0c-0.6,0.6-0.5,1.5,0.1,2.1
	l24.5,22.5C76,51.3,77,51.2,77.5,50.6z"/>
<path class="st1" d="M29.5,109.7L29.5,109.7c-0.8-0.1-1.4-0.9-1.2-1.7l12.8-71.6c0.1-0.8,0.9-1.4,1.7-1.2l0,0
	c0.8,0.1,1.4,0.9,1.2,1.7l-12.8,71.6C31.1,109.3,30.3,109.8,29.5,109.7z"/>
<path class="st0" d="M75.5,109.7L75.5,109.7c0.8-0.1,1.4-0.9,1.2-1.7L63.9,36.3c-0.1-0.8-0.9-1.4-1.7-1.2l0,0
	c-0.8,0.1-1.4,0.9-1.2,1.7l12.8,71.6C73.9,109.3,74.7,109.8,75.5,109.7z"/>
<line class="st1" x1="82.3" y1="19" x2="103" y2="39.7"/>
<line class="st1" x1="67.2" y1="10" x2="103" y2="45.8"/>
<line class="st1" x1="54.2" y1="3" x2="102.3" y2="51.1"/>
<line class="st1" x1="49.2" y1="4" x2="103.3" y2="58.1"/>
<line class="st1" x1="45.2" y1="6" x2="103.3" y2="64.1"/>
<line class="st1" x1="41.9" y1="8.7" x2="103.3" y2="70.1"/>
<line class="st1" x1="37.2" y1="10" x2="103.3" y2="76.1"/>
<line class="st1" x1="34.1" y1="13" x2="49.1" y2="28"/>
<line class="st1" x1="63.9" y1="42.8" x2="102.3" y2="81.1"/>
<line class="st1" x1="30.1" y1="15" x2="46.1" y2="31"/>
<line class="st1" x1="65.9" y1="50.8" x2="101" y2="85.9"/>
<line class="st1" x1="65.2" y1="56.1" x2="97" y2="87.9"/>
<line class="st1" x1="26.8" y1="17.7" x2="43.1" y2="34"/>
<line class="st1" x1="65.2" y1="62.1" x2="94" y2="90.9"/>
<line class="st1" x1="22.1" y1="19" x2="40.1" y2="37"/>
<line class="st1" x1="69.9" y1="72.8" x2="91.3" y2="94.2"/>
<line class="st1" x1="18.1" y1="21" x2="37.1" y2="40"/>
<line class="st1" x1="70.2" y1="79.1" x2="87.2" y2="96.2"/>
<line class="st1" x1="14.1" y1="23" x2="39.8" y2="48.8"/>
<line class="st1" x1="70.9" y1="85.9" x2="85" y2="99.9"/>
<line class="st1" x1="11.1" y1="26" x2="39.8" y2="54.8"/>
<line class="st1" x1="71.2" y1="92.2" x2="82" y2="103"/>
<line class="st1" x1="7" y1="28" x2="38.8" y2="59.8"/>
<line class="st1" x1="3" y1="30" x2="37.1" y2="64.1"/>
<line class="st1" x1="2" y1="35" x2="36" y2="69"/>
<line class="st1" x1="2" y1="41" x2="35" y2="74"/>
<line class="st1" x1="2" y1="47" x2="34.8" y2="79.9"/>
<line class="st1" x1="2" y1="53" x2="33.8" y2="84.9"/>
<line class="st1" x1="2" y1="59" x2="32.8" y2="89.9"/>
<line class="st1" x1="2" y1="65.1" x2="31.8" y2="94.9"/>
<line class="st1" x1="2" y1="71.1" x2="30.8" y2="99.9"/>
<line class="st1" x1="2" y1="77.1" x2="30.1" y2="105.2"/>
</svg>
