<?xml version="1.0" encoding="utf-8"?>
<!-- Generator: Adobe Illustrator 22.0.1, SVG Export Plug-In . SVG Version: 6.00 Build 0)  -->
<svg version="1.1" id="Слой_1" xmlns="http://www.w3.org/2000/svg" xmlns:xlink="http://www.w3.org/1999/xlink" x="0px" y="0px"
	 viewBox="0 0 100 100" style="enable-background:new 0 0 100 100;" xml:space="preserve">
<style type="text/css">
	.st0{fill:none;}
	.st1{fill:#0288D1;}
	.st2{fill:#FFA700;}
</style>
<polygon class="st0" points="66.2,5.1 48.1,25.3 63.7,25.7 61.1,41.8 83.3,18.5 64.5,17.8 68.1,3.2 "/>
<polygon class="st0" points="2.1,58.7 25.9,58.7 25.9,70.8 45.2,57.5 45.2,72 69.4,58 69.4,71.5 93.3,57.5 93.3,97.9 2.1,97.7 "/>
<polygon class="st0" points="7.2,19.6 20.9,19.6 22,27.4 6,27.4 "/>
<path class="st1" d="M2.1,100L2.1,100C0.9,100,0,99.1,0,97.9V51.6c0-1.1,0.9-2.1,2.1-2.1l0,0c1.1,0,2.1,0.9,2.1,2.1v46.3
	C4.1,99.1,3.2,100,2.1,100z"/>
<path class="st1" d="M4.3,52.9L4.3,52.9c-1.2-0.1-2-1-1.9-2.1l3.5-43C6,6.7,6.9,5.9,8,6h0.1C9.2,6,10,7,9.9,8.1l-3.5,43
	C6.3,52.2,5.4,53,4.3,52.9z"/>
<path class="st1" d="M24.1,52.8H24c-1.1,0.1-2.1-0.7-2.2-1.8l-4-43c-0.1-1,0.7-2,1.8-2.1h0.1c1.1-0.1,2.1,0.7,2.2,1.8l4,43
	C26,51.8,25.2,52.7,24.1,52.8z"/>
<path class="st1" d="M25.9,65.3L25.9,65.3c-1.1,0-2.1-0.9-2.1-2.1V51.7c0-1.1,0.9-2.1,2.1-2.1l0,0c1.1,0,2.1,0.9,2.1,2.1v11.6
	C28,64.4,27.1,65.3,25.9,65.3z"/>
<path class="st1" d="M45.5,65.3L45.5,65.3c-1.1,0-2.1-0.9-2.1-2.1V49.5c0-1.1,0.9-2.1,2.1-2.1l0,0c1.1,0,2.1,0.9,2.1,2.1v13.7
	C47.6,64.4,46.7,65.3,45.5,65.3z"/>
<path class="st2" d="M44.8,25.7L44.8,25.7c0-1.1,0.9-2.1,2.1-2.1h17.3c1.1,0,2.1,0.9,2.1,2.1l0,0c0,1.1-0.9,2.1-2.1,2.1H46.8
	C45.7,27.7,44.8,26.8,44.8,25.7z"/>
<path class="st2" d="M62.7,17.8L62.7,17.8c0-1.2,0.9-2.1,2-2.1h19.2c1.1,0,2,0.9,2,2v0.1c0,1.1-0.9,2-2,2H64.7
	C63.6,19.8,62.7,18.9,62.7,17.8z"/>
<path class="st2" d="M69,0.1L69,0.1c1.1,0.3,1.8,1.4,1.5,2.5l-3.8,15.6c-0.3,1.1-1.4,1.8-2.5,1.5l0,0c-1.1-0.3-1.8-1.4-1.5-2.5
	l3.8-15.6C66.8,0.5,67.9-0.2,69,0.1z"/>
<path class="st2" d="M64.6,23.7L64.6,23.7c1.1,0.2,1.8,1.3,1.6,2.4l-3.5,17.5c-0.2,1.1-1.3,1.8-2.4,1.6l0,0
	c-1.1-0.2-1.8-1.3-1.6-2.4l3.5-17.5C62.5,24.2,63.5,23.5,64.6,23.7z"/>
<path class="st2" d="M45.4,27.2L45.4,27.2c-0.8-0.8-0.9-2.1-0.1-2.9L66.8,0.7c0.8-0.8,2.1-0.9,2.9-0.1l0,0c0.8,0.8,0.9,2.1,0.1,2.9
	L48.3,27.1C47.6,27.9,46.3,28,45.4,27.2z"/>
<path class="st2" d="M59.4,44.7L59.4,44.7c-0.8-0.8-0.9-2.1-0.1-2.9l23.2-25.5c0.8-0.8,2.1-0.9,2.9-0.1l0,0c0.8,0.8,0.9,2.1,0.1,2.9
	L62.3,44.6C61.5,45.4,60.2,45.5,59.4,44.7z"/>
<path class="st1" d="M93.3,100L93.3,100c-1.1,0-2.1-0.9-2.1-2.1V49.5c0-1.1,0.9-2.1,2.1-2.1l0,0c1.1,0,2.1,0.9,2.1,2.1v48.4
	C95.4,99.1,94.5,100,93.3,100z"/>
<path class="st1" d="M0,97.9L0,97.9c0-1.1,0.9-2.1,2.1-2.1h91.3c1.1,0,2.1,0.9,2.1,2.1l0,0c0,1.1-0.9,2.1-2.1,2.1H2.1
	C0.9,100,0,99.1,0,97.9z"/>
<path class="st1" d="M42.9,78.6L42.9,78.6c0-1.1,0.9-2.1,2.1-2.1h46.3c1.1,0,2.1,0.9,2.1,2.1l0,0c0,1.1-0.9,2.1-2.1,2.1H45
	C43.8,80.7,42.9,79.8,42.9,78.6z"/>
<path class="st1" d="M5.8,8L5.8,8c0-1.1,0.9-2.1,2.1-2.1h12C21,5.9,22,6.8,22,8l0,0c0,1.1-0.9,2.1-2.1,2.1h-12C6.7,10,5.8,9.1,5.8,8
	z"/>
<path class="st1" d="M5.8,19.6L5.8,19.6c0-1.1,0.9-2.1,2.1-2.1h12c1.1,0,2.1,0.9,2.1,2.1l0,0c0,1.1-0.9,2.1-2.1,2.1h-12
	C6.7,21.7,5.8,20.7,5.8,19.6z"/>
<path class="st1" d="M6,27.4L6,27.4c0-1.1,0.9-2.1,2.1-2.1h12c1.1,0,2.1,0.9,2.1,2.1l0,0c0,1.1-0.9,2.1-2.1,2.1H8
	C6.9,29.4,6,28.5,6,27.4z"/>
<path class="st1" d="M0,51.6L0,51.6c0-1.1,0.9-2.1,2.1-2.1H26c1.1,0,2.1,0.9,2.1,2.1l0,0c0,1.1-0.9,2.1-2.1,2.1H2.1
	C0.9,53.7,0,52.8,0,51.6z"/>
<path class="st1" d="M24.3,64.4L24.3,64.4c-0.7-0.9-0.4-2.2,0.5-2.9l19.5-13.7c0.9-0.7,2.2-0.4,2.9,0.5l0,0c0.7,0.9,0.4,2.2-0.5,2.9
	L27.1,64.9C26.2,65.6,24.9,65.4,24.3,64.4z"/>
<path class="st1" d="M69.4,65.3L69.4,65.3c-1.1,0-2.1-0.9-2.1-2.1V49.5c0-1.1,0.9-2.1,2.1-2.1l0,0c1.1,0,2.1,0.9,2.1,2.1v13.7
	C71.5,64.4,70.6,65.3,69.4,65.3z"/>
<path class="st1" d="M43.8,64.2L43.8,64.2c-0.6-1-0.2-2.2,0.8-2.8l23.7-13.7c1-0.6,2.2-0.2,2.8,0.8l0,0c0.6,1,0.2,2.2-0.8,2.8
	L46.6,65C45.6,65.6,44.3,65.2,43.8,64.2z"/>
<path class="st1" d="M67.6,64.2L67.6,64.2c-0.6-1-0.2-2.2,0.8-2.8l23.7-13.7c1-0.6,2.2-0.2,2.8,0.8l0,0c0.6,1,0.2,2.2-0.8,2.8
	L70.4,65C69.5,65.6,68.2,65.2,67.6,64.2z"/>
<path class="st1" d="M42.9,86.4L42.9,86.4c0-1.1,0.9-2.1,2.1-2.1h46.3c1.1,0,2.1,0.9,2.1,2.1l0,0c0,1.1-0.9,2.1-2.1,2.1H45
	C43.8,88.4,42.9,87.5,42.9,86.4z"/>
</svg>
