<?xml version="1.0" encoding="utf-8"?>
<!-- Generator: Adobe Illustrator 22.0.1, SVG Export Plug-In . SVG Version: 6.00 Build 0)  -->
<svg version="1.1" id="Слой_1" xmlns="http://www.w3.org/2000/svg" xmlns:xlink="http://www.w3.org/1999/xlink" x="0px" y="0px"
	 viewBox="0 0 100 100" style="enable-background:new 0 0 100 100;" xml:space="preserve">
<style type="text/css">
	.st0{fill:none;}
	.st1{fill:#0288D1;}
	.st2{fill:#FFA700;}
	.st3{fill:#0288D1;stroke:#000000;stroke-width:2;stroke-miterlimit:10;}
</style>
<polygon class="st0" points="19,13 8,19 14,22 21,23 32,23 31,19 "/>
<g>
	<polygon class="st0" points="97.8,43.4 22.8,43.4 22.8,46.4 35.9,52.3 97.8,52.3 	"/>
</g>
<rect x="11.5" y="73" class="st0" width="14.9" height="24.9"/>
<path class="st1" d="M22.9,8.7h-0.4c-1.1,0-2-0.9-2-2V2c0-1.1,0.9-2,2-2h0.4c1.1,0,2,0.9,2,2v4.7C24.9,7.8,24,8.7,22.9,8.7z"/>
<path class="st1" d="M98,54.5h-0.4c-1.1,0-2-0.9-2-2V2c0-1.1,0.9-2,2-2H98c1.1,0,2,0.9,2,2v50.5C100,53.6,99.1,54.5,98,54.5z"/>
<path class="st1" d="M20.8,2.4V2c0-1.1,0.9-2,2-2H98c1.1,0,2,0.9,2,2v0.4c0,1.1-0.9,2-2,2H22.8C21.7,4.4,20.8,3.5,20.8,2.4z"/>
<path class="st1" d="M100,52v0.6c0,1-0.8,1.9-1.9,1.9h-55c-1,0-1.9-0.8-1.9-1.9V52c0-1,0.8-1.9,1.9-1.9h55
	C99.2,50.1,100,50.9,100,52z"/>
<rect x="57.5" y="51.2" class="st1" width="5.4" height="19.6"/>
<path class="st1" d="M61.2,67.8L61.2,67.8c-0.9-0.9-2.2-0.9-3.1,0L51,74.9c-0.9,0.9-0.9,2.2,0,3.1l0,0c1.2,0,1.9,0,3.1,0l7.1-7.1
	C62.1,70,62.1,68.6,61.2,67.8z"/>
<path class="st1" d="M59,67.8L59,67.8c-0.9,0.9-0.9,2.2,0,3.1l7.1,7.1c1.2,0,1.9,0,3.1,0l0,0c0.9-0.9,0.9-2.2,0-3.1l-7.1-7.1
	C61.3,66.9,59.9,66.9,59,67.8z"/>
<path class="st2" d="M54.2,20.6l-0.5-0.5c-0.7-0.7-1.9-0.7-2.6,0l-8.4,8.4c-0.7,0.7-0.7,1.9,0,2.6l0.5,0.5c1,0,1.6,0,2.6,0l8.4-8.4
	C54.9,22.5,54.9,21.3,54.2,20.6z"/>
<path class="st2" d="M60,30.3l0.7-0.7c0.7-0.7,0.7-1.7,0-2.4L54,20.6c-0.7-0.7-1.7-0.7-2.4,0L51,21.2c-0.7,0.7-0.7,1.7,0,2.4
	l6.7,6.6C58.3,30.9,59.4,30.9,60,30.3z"/>
<path class="st2" d="M82.9,36v-1.3c0-0.9-0.7-1.5-1.5-1.5h-9.7c-0.9,0-1.5,0.7-1.5,1.5V36c0,0.9,0.7,1.5,1.5,1.5h9.7
	C82.2,37.5,82.9,36.8,82.9,36z"/>
<path class="st2" d="M87.3,43.8V43c0-1-0.8-1.8-1.8-1.8H72c-1,0-1.8,0.8-1.8,1.8v0.8c0,1,0.8,1.8,1.8,1.8h13.6
	C86.5,45.6,87.3,44.8,87.3,43.8z"/>
<path class="st2" d="M78.2,13.1V8.8h-14c-1.1,0-2,0.9-2,2v0.4c0,1.1,0.9,2,2,2L78.2,13.1L78.2,13.1z"/>
<path class="st2" d="M78.2,8.8h-4.4v14c0,1.1,0.9,2,2,2h0.4c1.1,0,2-0.9,2-2V8.8z"/>
<path class="st2" d="M57.6,29.6L57.6,29.6c0.9,0.9,2.2,0.9,3.1,0l16.9-16.9c0.9-0.9,0.9-2.2,0-3.1l0,0c-0.9-0.9-2.2-0.9-3.1,0
	l-16.9,17C56.7,27.4,56.7,28.8,57.6,29.6z"/>
<path class="st3" d="M0.7,51.2"/>
<line class="st0" x1="10" y1="97" x2="26.4" y2="97"/>
<line class="st0" x1="26.4" y1="72.9" x2="26.4" y2="97"/>
<path class="st1" d="M25.1,73.2v-0.5c0-1.1,0.9-1.9,1.9-1.9h9.1c1.1,0,1.9,0.9,1.9,1.9v0.5c0,1.1-0.9,1.9-1.9,1.9H27
	C26,75.1,25.1,74.3,25.1,73.2z"/>
<path class="st1" d="M8.5,98.1v-0.5c0-1.1,0.9-1.9,1.9-1.9h17.1c1.1,0,1.9,0.9,1.9,1.9v0.5c0,1.1-0.9,1.9-1.9,1.9H10.4
	C9.4,100,8.5,99.1,8.5,98.1z"/>
<path class="st1" d="M12.8,47v-0.5c0-1.1,0.9-1.9,1.9-1.9h8.7c1.1,0,1.9,0.9,1.9,1.9V47c0,1.1-0.9,1.9-1.9,1.9h-8.7
	C13.6,49,12.8,48.1,12.8,47z"/>
<path class="st1" d="M11.9,23.2v-0.5c0-1.1,0.9-1.9,1.9-1.9H30c1.1,0,1.9,0.9,1.9,1.9v0.5c0,1.1-0.9,1.9-1.9,1.9H13.8
	C12.8,25.1,11.9,24.3,11.9,23.2z"/>
<path class="st1" d="M0,73.2v-0.5c0-1.1,0.9-1.9,1.9-1.9H11c1.1,0,1.9,0.9,1.9,1.9v0.5c0,1.1-0.9,1.9-1.9,1.9H1.9
	C0.9,75.1,0,74.3,0,73.2z"/>
<path class="st1" d="M27.5,100h-0.4c-1.1,0-2-0.9-2-2V72.8c0-1.1,0.9-2,2-2h0.4c1.1,0,2,0.9,2,2V98C29.5,99.1,28.6,100,27.5,100z"/>
<path class="st1" d="M10.9,100h-0.4c-1.1,0-2-0.9-2-2V72.8c0-1.1,0.9-2,2-2h0.4c1.1,0,2,0.9,2,2V98C12.9,99.1,12,100,10.9,100z"/>
<path class="st1" d="M2.5,75.1H1.9c-1.1,0-1.9-0.9-1.9-1.9V51.5c0-1.1,0.9-1.9,1.9-1.9h0.6c1.1,0,1.9,0.9,1.9,1.9v21.7
	C4.4,74.3,3.5,75.1,2.5,75.1z"/>
<path class="st1" d="M36.1,75.1h-0.6c-1.1,0-1.9-0.9-1.9-1.9V51.6c0-1.1,0.9-1.9,1.9-1.9h0.6c1.1,0,1.9,0.9,1.9,1.9v21.7
	C38,74.3,37.1,75.1,36.1,75.1z"/>
<path class="st1" d="M19.3,71.3h-0.6c-1.1,0-1.9-0.9-1.9-1.9V56c0-1.1,0.9-1.9,1.9-1.9h0.6c1.1,0,1.9,0.9,1.9,1.9v13.4
	C21.2,70.5,20.3,71.3,19.3,71.3z"/>
<path class="st1" d="M6.5,37.1H6c-1.1,0-1.9-0.9-1.9-1.9V19.1C4.1,18,5,17.2,6,17.2h0.6c1.1,0,1.9,0.9,1.9,1.9v16.1
	C8.4,36.2,7.6,37.1,6.5,37.1z"/>
<path class="st1" d="M20.8,42.7l-0.1,0.2c-0.5,1-1.8,1.4-2.8,0.9L5.2,37c-1-0.5-1.4-1.8-0.9-2.8L4.4,34c0.5-1,1.8-1.4,2.8-0.9
	l12.7,6.7C20.9,40.4,21.3,41.7,20.8,42.7z"/>
<path class="st1" d="M17,42.6l0.1,0.2c0.5,1,1.8,1.4,2.8,0.9L32.5,37c1-0.5,1.4-1.8,0.9-2.8L33.3,34c-0.5-1-1.8-1.4-2.8-0.9
	l-12.6,6.7C16.8,40.4,16.5,41.6,17,42.6z"/>
<path class="st1" d="M20.8,11.8l-0.1-0.2c-0.5-1-1.8-1.4-2.8-0.9L5.2,17.4c-1,0.5-1.4,1.8-0.9,2.8l0.1,0.2c0.5,1,1.8,1.4,2.8,0.9
	l12.7-6.7C20.9,14,21.3,12.8,20.8,11.8z"/>
<path class="st1" d="M17,11.8l0.1-0.2c0.5-1,1.8-1.4,2.8-0.9l12.6,6.7c1,0.5,1.4,1.8,0.9,2.8l-0.1,0.2c-0.5,1-1.8,1.4-2.8,0.9
	l-12.6-6.7C16.8,14.1,16.5,12.8,17,11.8z"/>
<path class="st1" d="M6.8,19.2L6.9,19c0.5-1,1.8-1.4,2.8-0.9l5.4,2.9c1,0.5,1.4,1.8,0.9,2.8L15.8,24c-0.5,1-1.8,1.4-2.8,0.9L7.6,22
	C6.6,21.5,6.2,20.2,6.8,19.2z"/>
<path class="st1" d="M31.7,37.1h-0.6c-1.1,0-1.9-0.9-1.9-1.9V19.1c0-1.1,0.9-1.9,1.9-1.9h0.6c1.1,0,1.9,0.9,1.9,1.9v16.1
	C33.6,36.2,32.8,37.1,31.7,37.1z"/>
<path class="st1" d="M0.2,52.7l-0.1-0.2c-0.4-1.1,0.1-2.3,1.2-2.7l12.6-5c1.1-0.4,2.3,0.1,2.7,1.2l0.1,0.2c0.4,1.1-0.1,2.3-1.2,2.7
	l-12.6,5C1.9,54.3,0.7,53.8,0.2,52.7z"/>
<path class="st1" d="M37.8,52.7l0.1-0.2c0.4-1.1-0.1-2.3-1.2-2.7l-12.6-5c-1.1-0.4-2.3,0.1-2.7,1.2l-0.1,0.2
	c-0.4,1.1,0.1,2.3,1.2,2.7l12.6,5C36.1,54.3,37.3,53.8,37.8,52.7z"/>
</svg>
