<?xml version="1.0" encoding="utf-8"?>
<!-- Generator: Adobe Illustrator 22.0.1, SVG Export Plug-In . SVG Version: 6.00 Build 0)  -->
<svg version="1.1" id="Слой_1" xmlns="http://www.w3.org/2000/svg" xmlns:xlink="http://www.w3.org/1999/xlink" x="0px" y="0px"
	 viewBox="0 0 100 100" style="enable-background:new 0 0 100 100;" xml:space="preserve">
<style type="text/css">
	.st0{fill:none;}
	.st1{fill:#0288D1;}
	.st2{fill:#FFA700;}
</style>
<polygon class="st0" points="6.6,63 64.3,33.8 64.3,61.9 47.8,77.6 22.8,77.6 "/>
<path class="st1" d="M6.1,64.7L6.1,64.7c-1.2,0-2.2-1-2.2-2.2v-29c0-1.2,1-2.2,2.2-2.2l0,0c1.2,0,2.2,1,2.2,2.2v29.1
	C8.3,63.8,7.3,64.7,6.1,64.7z"/>
<path class="st1" d="M23.9,78.9L23.9,78.9c-0.8,0.9-2.2,0.9-3.1,0.1L4.6,64.1c-0.9-0.8-0.9-2.2-0.1-3.1l0,0c0.8-0.9,2.2-0.9,3.1-0.1
	l16.2,14.9C24.7,76.7,24.7,78,23.9,78.9z"/>
<path class="st1" d="M36.7,59.4L36.7,59.4c-0.7,0.9-2.1,1.1-3.1,0.3l-9.4-7.5c-0.9-0.7-1.1-2.1-0.3-3.1l0,0c0.7-0.9,2.1-1.1,3.1-0.3
	l9.4,7.5C37.3,57.1,37.4,58.5,36.7,59.4z"/>
<path class="st2" d="M7.5,24.3L7.5,24.3c-0.7,1-2,1.3-3,0.6L1,22.5c-1-0.7-1.3-2-0.6-3l0,0c0.7-1,2-1.3,3-0.6l3.5,2.4
	C7.9,22,8.2,23.3,7.5,24.3z"/>
<path class="st2" d="M63.4,24.3L63.4,24.3c0.7,1,2,1.3,3,0.6l3.5-2.4c1-0.7,1.3-2,0.6-3l0,0c-0.7-1-2-1.3-3-0.6L64,21.3
	C63,22,62.7,23.3,63.4,24.3z"/>
<path class="st2" d="M18.2,12.2L18.2,12.2c-1,0.7-2.4,0.4-3-0.6L12.9,8c-0.7-1-0.4-2.4,0.6-3l0,0c1-0.7,2.4-0.4,3,0.6l2.3,3.6
	C19.5,10.2,19.2,11.6,18.2,12.2z"/>
<path class="st2" d="M52.9,11.9L52.9,11.9c1,0.7,2.4,0.4,3-0.6l2.3-3.6c0.7-1,0.4-2.4-0.6-3l0,0c-1-0.6-2.4-0.4-3,0.6l-2.3,3.6
	C51.6,9.9,51.8,11.2,52.9,11.9z"/>
<path class="st2" d="M35,8.6L35,8.6c-1.2,0-2.2-1-2.2-2.2V2.2C32.8,1,33.8,0,35,0l0,0c1.2,0,2.2,1,2.2,2.2v4.2
	C37.2,7.6,36.2,8.6,35,8.6z"/>
<path class="st1" d="M34.4,59.2L34.4,59.2c0.7,0.9,2.1,1.1,3.1,0.3l9.4-7.5c0.9-0.7,1.1-2.1,0.3-3.1l0,0c-0.7-0.9-2.1-1.1-3.1-0.3
	l-9.4,7.5C33.8,56.9,33.6,58.2,34.4,59.2z"/>
<path class="st1" d="M46.5,79.1L46.5,79.1c0.8,0.9,2.2,0.9,3.1,0.1l16.2-14.9c0.9-0.8,0.9-2.2,0.1-3.1l0,0c-0.8-0.9-2.2-0.9-3.1-0.1
	L46.6,76C45.7,76.8,45.7,78.2,46.5,79.1z"/>
<path class="st1" d="M64.3,64.9L64.3,64.9c-1.2,0-2.2-1-2.2-2.2v-29c0-1.2,1-2.2,2.2-2.2l0,0c1.2,0,2.2,1,2.2,2.2v29
	C66.5,64,65.5,64.9,64.3,64.9z"/>
<path class="st1" d="M4.2,34.5L4.2,34.5c-0.6-1-0.2-2.4,0.8-3l28.9-16.7c1-0.6,2.4-0.2,3,0.8l0,0c0.6,1,0.2,2.4-0.8,3L7.2,35.3
	C6.1,35.9,4.8,35.5,4.2,34.5z"/>
<path class="st1" d="M66.1,34.7L66.1,34.7c0.6-1,0.2-2.4-0.8-3L36.1,14.8c-1-0.6-2.4-0.2-3,0.8l0,0c-0.6,1-0.2,2.4,0.8,3l29.3,16.9
	C64.2,36.1,65.5,35.7,66.1,34.7z"/>
<path class="st1" d="M35.3,79L35.3,79c-1.2,0-2.2-1-2.2-2.2V57.9c0-1.2,1-2.2,2.2-2.2l0,0c1.2,0,2.2,1,2.2,2.2v18.9
	C37.5,78.1,36.5,79,35.3,79z"/>
<path class="st1" d="M48.2,96.3L48.2,96.3c-1.2,0-2.2-1-2.2-2.2V77.6c0-1.2,1-2.2,2.2-2.2l0,0c1.2,0,2.2,1,2.2,2.2v16.5
	C50.4,95.3,49.4,96.3,48.2,96.3z"/>
<path class="st1" d="M35.3,100L35.3,100c-1.2,0-2.2-1-2.2-2.2v-3.3c0-1.2,1-2.2,2.2-2.2l0,0c1.2,0,2.2,1,2.2,2.2v3.3
	C37.5,99,36.5,100,35.3,100z"/>
<path class="st1" d="M22.8,96.3L22.8,96.3c-1.2,0-2.2-1-2.2-2.2V77.6c0-1.2,1-2.2,2.2-2.2l0,0c1.2,0,2.2,1,2.2,2.2v16.5
	C24.9,95.3,24,96.3,22.8,96.3z"/>
<path class="st1" d="M20.6,77.6L20.6,77.6c0-1.2,1-2.2,2.2-2.2h25.5c1.2,0,2.2,1,2.2,2.2l0,0c0,1.2-1,2.2-2.2,2.2H22.8
	C21.6,79.8,20.6,78.8,20.6,77.6z"/>
<path class="st1" d="M20.6,94.1L20.6,94.1c0-1.2,1-2.2,2.2-2.2h25.5c1.2,0,2.2,1,2.2,2.2l0,0c0,1.2-1,2.2-2.2,2.2H22.8
	C21.6,96.3,20.6,95.3,20.6,94.1z"/>
<path class="st1" d="M20.6,85.9L20.6,85.9c0-1.2,1-2.2,2.2-2.2h25.5c1.2,0,2.2,1,2.2,2.2l0,0c0,1.2-1,2.2-2.2,2.2H22.8
	C21.6,88,20.6,87.1,20.6,85.9z"/>
</svg>
