<?xml version="1.0" encoding="utf-8"?>
<!-- Generator: Adobe Illustrator 22.0.1, SVG Export Plug-In . SVG Version: 6.00 Build 0)  -->
<svg version="1.1" id="Слой_1" xmlns="http://www.w3.org/2000/svg" xmlns:xlink="http://www.w3.org/1999/xlink" x="0px" y="0px"
	 viewBox="0 0 100 100" style="enable-background:new 0 0 100 100;" xml:space="preserve">
<style type="text/css">
	.st0{fill:none;}
	.st1{fill:#0288D1;}
	.st2{fill:#FFA700;}
</style>
<path class="st0" d="M42.4,79.4l-16.1-9.3c-1.6-0.9-2.1-2.9-1.2-4.5l0.5-0.9c0.9-1.6,2.9-2.1,4.5-1.2l16.1,9.3
	c1.6,0.9,2.1,2.9,1.2,4.5l-0.5,0.9C46,79.8,44,80.3,42.4,79.4z"/>
<path class="st0" d="M41.3,96.7l-34-19.6l3-5.2c1.2-2.1,3.9-2.8,6.1-1.6l30.2,17.4c2.1,1.2,2.8,3.9,1.6,6.1l-0.8,1.4
	C46.1,97.2,43.4,97.9,41.3,96.7z"/>
<path class="st0" d="M45.8,97.8l34-19.6l-3-5.2c-1.2-2.1-3.9-2.8-6.1-1.6L40.6,88.7c-2.1,1.2-2.8,3.9-1.6,6.1l0.8,1.4
	C41,98.3,43.7,99,45.8,97.8z"/>
<path class="st0" d="M44.4,79l16.1-9.3c1.6-0.9,2.1-2.9,1.2-4.5l-0.5-0.9c-0.9-1.6-2.9-2.1-4.5-1.2l-16.1,9.3
	c-1.6,0.9-2.1,2.9-1.2,4.5l0.5,0.9C40.8,79.4,42.8,79.9,44.4,79z"/>
<path class="st1" d="M6.6,78.4L6.6,78.4c-1.2,0-2.2-1-2.2-2.2V36.8c0-1.2,1-2.2,2.2-2.2l0,0c1.2,0,2.2,1,2.2,2.2v39.4
	C8.7,77.4,7.8,78.4,6.6,78.4z"/>
<path class="st1" d="M22.8,68.4L22.8,68.4c-1.2,0-2.2-1-2.2-2.2V45.6c0-1.2,1-2.2,2.2-2.2l0,0c1.2,0,2.2,1,2.2,2.2v20.5
	C25,67.4,24,68.4,22.8,68.4z"/>
<path class="st1" d="M45.4,79.3L45.4,79.3c-0.6,1-1.9,1.4-3,0.8L21.7,68.2c-1-0.6-1.4-1.9-0.8-3l0,0c0.6-1,1.9-1.4,3-0.8l20.7,11.9
	C45.7,77,46,78.3,45.4,79.3z"/>
<path class="st1" d="M41.6,79.3L41.6,79.3c0.6,1,1.9,1.4,3,0.8l20.7-11.9c1-0.6,1.4-1.9,0.8-3l0,0c-0.6-1-1.9-1.4-3-0.8l-20.7,12
	C41.3,77,41,78.3,41.6,79.3z"/>
<path class="st1" d="M45.4,32.3L45.4,32.3c-0.6-1-1.9-1.4-3-0.8l-20.7,12c-1,0.6-1.4,1.9-0.8,3l0,0c0.6,1,1.9,1.4,3,0.8l20.7-11.9
	C45.7,34.7,46,33.3,45.4,32.3z"/>
<path class="st1" d="M41.6,32.3L41.6,32.3c0.6-1,1.9-1.4,3-0.8l20.7,11.9c1,0.6,1.4,1.9,0.8,3l0,0c-0.6,1-1.9,1.4-3,0.8L42.4,35.3
	C41.3,34.7,41,33.3,41.6,32.3z"/>
<path class="st1" d="M64.2,68.4L64.2,68.4c-1.2,0-2.2-1-2.2-2.2V45.6c0-1.2,1-2.2,2.2-2.2l0,0c1.2,0,2.2,1,2.2,2.2v20.6
	C66.4,67.5,65.4,68.4,64.2,68.4z"/>
<path class="st2" d="M64.2,36.4L64.2,36.4c-1.2,0-2.2-1-2.2-2.2V18.8c0-1.2,1-2.2,2.2-2.2l0,0c1.2,0,2.2,1,2.2,2.2v15.5
	C66.4,35.4,65.4,36.4,64.2,36.4z"/>
<path class="st2" d="M80.8,20.7L80.8,20.7c-1.2,0-2.2-1-2.2-2.2V2.3c0-1.2,1-2.2,2.2-2.2l0,0c1.2,0,2.2,1,2.2,2.2v16.3
	C83,19.7,82,20.7,80.8,20.7z"/>
<path class="st2" d="M62.3,35.1L62.3,35.1c0-1.2,1-2.2,2.2-2.2h16.7c1.2,0,2.2,1,2.2,2.2l0,0c0,1.2-1,2.2-2.2,2.2H64.5
	C63.3,37.3,62.3,36.3,62.3,35.1z"/>
<path class="st2" d="M78.7,18.5L78.7,18.5c0-1.2,1-2.2,2.2-2.2h17c1.2,0,2.2,1,2.2,2.2l0,0c0,1.2-1,2.2-2.2,2.2h-17
	C79.6,20.7,78.7,19.7,78.7,18.5z"/>
<path class="st2" d="M79.7,36.7L79.7,36.7c-0.9-0.8-0.9-2.2,0-3.1L96.3,17c0.9-0.8,2.2-0.8,3.1,0l0,0c0.9,0.8,0.9,2.2,0,3.1
	L82.8,36.7C81.9,37.5,80.5,37.5,79.7,36.7z"/>
<path class="st2" d="M62.7,20.3L62.7,20.3c-0.9-0.8-0.9-2.2,0-3.1L79.2,0.6c0.9-0.8,2.2-0.8,3.1,0l0,0c0.9,0.8,0.9,2.2,0,3.1
	L65.7,20.3C64.9,21.1,63.5,21.1,62.7,20.3z"/>
<path class="st1" d="M0.6,98.5L0.6,98.5c-0.9-0.8-0.9-2.2,0-3.1L14,82c0.9-0.8,2.2-0.8,3.1,0l0,0c0.9,0.8,0.9,2.2,0,3.1L3.7,98.5
	C2.9,99.3,1.5,99.3,0.6,98.5z"/>
<path class="st1" d="M86.5,98.6L86.5,98.6c0.9-0.8,0.9-2.2,0-3.1L73.1,82.1c-0.9-0.8-2.2-0.8-3.1,0l0,0c-0.9,0.8-0.9,2.2,0,3.1
	l13.4,13.4C84.2,99.4,85.6,99.4,86.5,98.6z"/>
<path class="st1" d="M80.8,78.7L80.8,78.7c-1.2,0-2.2-1-2.2-2.2V52.3c0-1.2,1-2.2,2.2-2.2l0,0c1.2,0,2.2,1,2.2,2.2v24.3
	C83,77.7,82,78.7,80.8,78.7z"/>
<path class="st1" d="M45.8,98.9L45.8,98.9c-0.6,1-1.9,1.4-3,0.8L6.1,78.5c-1-0.6-1.4-1.9-0.8-3l0,0c0.6-1,1.9-1.4,3-0.8L45,95.9
	C46.1,96.5,46.4,97.9,45.8,98.9z"/>
<path class="st1" d="M55,22.1L55,22.1c-0.6,1-1.9,1.4-3,0.8l-9.6-5.5c-1-0.6-1.4-1.9-0.8-3l0,0c0.6-1,1.9-1.4,3-0.8l9.6,5.5
	C55.2,19.8,55.6,21.1,55,22.1z"/>
<path class="st1" d="M42,98.9L42,98.9c0.6,1,1.9,1.4,3,0.8l36.9-21.2c1-0.6,1.4-1.9,0.8-3l0,0c-0.6-1-1.9-1.4-3-0.8L42.8,95.9
	C41.8,96.5,41.4,97.9,42,98.9z"/>
<path class="st1" d="M4.7,37.8L4.7,37.8c0.6,1,1.9,1.4,3,0.8l36.9-21.2c1-0.6,1.4-1.9,0.8-3l0,0c-0.6-1-1.9-1.4-3-0.8L5.5,34.8
	C4.4,35.4,4.1,36.8,4.7,37.8z"/>
<path class="st2" d="M42.6,57.1L42.6,57.1c0.9,0.8,2.2,0.8,3.1,0l19.9-19.9c0.9-0.8,0.9-2.2,0-3.1l0,0c-0.9-0.8-2.2-0.8-3.1,0
	L42.6,54C41.8,54.8,41.8,56.2,42.6,57.1z"/>
</svg>
