<?xml version="1.0" encoding="utf-8"?>
<!-- Generator: Adobe Illustrator 22.0.1, SVG Export Plug-In . SVG Version: 6.00 Build 0)  -->
<svg version="1.1" id="Слой_1" xmlns="http://www.w3.org/2000/svg" xmlns:xlink="http://www.w3.org/1999/xlink" x="0px" y="0px"
	 viewBox="0 0 100 100" style="enable-background:new 0 0 100 100;" xml:space="preserve">
<style type="text/css">
	.st0{fill:none;}
	.st1{fill:#0288D1;}
	.st2{fill:#FFA700;}
</style>
<polygon class="st0" points="3.2,68.8 15.1,68.8 27.5,47.5 60.7,47.5 75.9,72.3 69,86.6 70.7,96.9 52.3,88.8 35.9,88.8 24.1,97.7 
	22.9,88.8 11.5,76.8 8.2,75 3.2,76.7 "/>
<polygon class="st0" points="36,24.4 60.6,10.1 60.6,23.7 47.6,32.2 "/>
<path class="st1" d="M68.5,41.5H34.4c-1.2,0-2.1-1-2.1-2.1l0,0c0-1.2,1-2.1,2.1-2.1h34.2c1.2,0,2.1,1,2.1,2.1l0,0
	C70.7,40.5,69.7,41.5,68.5,41.5z"/>
<path class="st1" d="M52.4,91H36.6c-1.2,0-2.2-1-2.2-2.2l0,0c0-1.2,1-2.2,2.2-2.2h15.9c1.2,0,2.2,1,2.2,2.2l0,0
	C54.6,90,53.6,91,52.4,91z"/>
<path class="st1" d="M21.9,90.6L9.2,76.2c-0.8-0.9-0.7-2.3,0.2-3.1l0,0c0.9-0.8,2.3-0.7,3.1,0.2l12.6,14.4c0.8,0.9,0.7,2.3-0.2,3.1
	l0,0C24,91.5,22.7,91.5,21.9,90.6z"/>
<path class="st1" d="M21.7,42.7L8.3,61.4c-0.7,1-0.5,2.3,0.5,3l0,0c1,0.7,2.3,0.5,3-0.5l13.3-18.7c0.7-1,0.5-2.3-0.5-3l0,0
	C23.7,41.5,22.4,41.7,21.7,42.7z"/>
<path class="st1" d="M37.7,90.6l-13.1,9c-1,0.7-2.3,0.4-3-0.5l0,0c-0.7-1-0.4-2.3,0.5-3l13.1-9c1-0.7,2.3-0.4,3,0.5l0,0
	C39,88.5,38.7,89.9,37.7,90.6z"/>
<path class="st1" d="M11.5,76.8L4,79c-1.1,0.3-2.3-0.3-2.7-1.5l0,0c-0.3-1.1,0.3-2.3,1.5-2.7l7.5-2.2c1.1-0.3,2.3,0.3,2.7,1.5l0,0
	C13.3,75.3,12.6,76.5,11.5,76.8z"/>
<path class="st1" d="M10.7,60.6l-6.9-2c-1.1-0.3-2.3,0.3-2.7,1.5l0,0c-0.3,1.1,0.3,2.3,1.5,2.7l6.9,2c1.1,0.3,2.3-0.3,2.7-1.5l0,0
	C12.5,62.2,11.8,60.9,10.7,60.6z"/>
<path class="st1" d="M35.6,37.8L25,27.2c-0.8-0.8-2.2-0.8-3.1,0l0,0c-0.8,0.8-0.8,2.2,0,3.1l10.6,10.6c0.8,0.8,2.2,0.8,3.1,0l0,0
	C36.5,40,36.5,38.6,35.6,37.8z"/>
<path class="st1" d="M5.3,60.6v16.3c0,1.2-1,2.2-2.2,2.2l0,0c-1.2,0-2.2-1-2.2-2.2V60.6c0-1.2,1-2.2,2.2-2.2l0,0
	C4.4,58.5,5.3,59.4,5.3,60.6z"/>
<path class="st2" d="M38.1,9.6v15.1c0,1.2-0.9,2.1-2.1,2.1h-0.1c-1.2,0-2.1-0.9-2.1-2.1V9.6c0-1.2,0.9-2.1,2.1-2.1H36
	C37.2,7.6,38.1,8.5,38.1,9.6z"/>
<path class="st2" d="M49.2,4L37,11.6c-1,0.6-2.2,0.3-2.8-0.7l-0.1-0.2c-0.6-1-0.3-2.2,0.7-2.8L47,0.3C48-0.3,49.2,0,49.8,1l0.1,0.2
	C50.5,2.1,50.2,3.4,49.2,4z"/>
<path class="st2" d="M46.8,4l12.7,7.9c1,0.6,2.3,0.3,2.9-0.7l0.1-0.1c0.6-1,0.3-2.3-0.7-2.9L49.1,0.3c-1-0.6-2.3-0.3-2.9,0.7
	l-0.1,0.1C45.5,2.1,45.8,3.4,46.8,4z"/>
<path class="st2" d="M49.2,30.4L37,22.8c-1-0.6-2.2-0.3-2.8,0.7l-0.1,0.2c-0.6,1-0.3,2.2,0.7,2.8L47,34.1c1,0.6,2.2,0.3,2.8-0.7
	l0.1-0.2C50.5,32.3,50.2,31,49.2,30.4z"/>
<path class="st2" d="M46.8,30.4l12.7-7.9c1-0.6,2.3-0.3,2.9,0.7l0.1,0.1c0.6,1,0.3,2.3-0.7,2.9l-12.7,7.9c-1,0.6-2.3,0.3-2.9-0.7
	l-0.1-0.1C45.5,32.3,45.8,31,46.8,30.4z"/>
<path class="st2" d="M62.8,10.1v14.1c0,1.1-0.9,2-2,2h-0.3c-1.1,0-2-0.9-2-2V10.1c0-1.1,0.9-2,2-2h0.3C61.9,8,62.8,8.9,62.8,10.1z"
	/>
<path class="st1" d="M25.7,89.2v8.6c0,1.2-1,2.2-2.2,2.2l0,0c-1.2,0-2.2-1-2.2-2.2v-8.6c0-1.2,1-2.2,2.2-2.2l0,0
	C24.7,87,25.7,88,25.7,89.2z"/>
<path class="st1" d="M25.7,28.7v15.1c0,1.2-1,2.2-2.2,2.2l0,0c-1.2,0-2.2-1-2.2-2.2V28.7c0-1.2,1-2.2,2.2-2.2l0,0
	C24.7,26.6,25.7,27.6,25.7,28.7z"/>
<path class="st1" d="M25.7,55.5v7.1c0,1.2-1,2.2-2.2,2.2l0,0c-1.2,0-2.2-1-2.2-2.2v-7.1c0-1.2,1-2.2,2.2-2.2l0,0
	C24.7,53.3,25.7,54.3,25.7,55.5z"/>
<path class="st1" d="M86.9,54.7l6.7,7.7c0.8,0.9,0.7,2.3-0.2,3.1l0,0c-0.9,0.8-2.3,0.7-3.1-0.2l-6.7-7.7c-0.8-0.9-0.7-2.3,0.2-3.1
	l0,0C84.7,53.7,86.1,53.8,86.9,54.7z"/>
<path class="st1" d="M90.4,62.3l5.6-5.6c0.8-0.8,2.2-0.8,3.1,0l0,0c0.8,0.8,0.8,2.2,0,3.1l-5.6,5.6c-0.8,0.8-2.2,0.8-3.1,0l0,0
	C89.6,64.5,89.6,63.1,90.4,62.3z"/>
<path class="st1" d="M56.5,49.6H40.3c-1.2,0-2.2-1-2.2-2.2l0,0c0-1.2,1-2.2,2.2-2.2h16.2c1.2,0,2.2,1,2.2,2.2l0,0
	C58.7,48.7,57.7,49.6,56.5,49.6z"/>
<path class="st1" d="M87.1,57L70.9,87.7c-0.6,1.1-1.9,1.5-2.9,0.9l0,0c-1.1-0.6-1.5-1.9-0.9-2.9L83.3,55c0.6-1.1,1.9-1.5,2.9-0.9
	l0,0C87.3,54.7,87.7,56,87.1,57z"/>
<path class="st1" d="M70.5,38.5l10.3,26.6c0.4,1.1-0.1,2.4-1.2,2.8l0,0c-1.1,0.4-2.4-0.1-2.8-1.2L66.5,40.1
	c-0.4-1.1,0.1-2.4,1.2-2.8l0,0C68.8,36.8,70.1,37.4,70.5,38.5z"/>
<path class="st1" d="M71.1,86.3L72.5,97c0.2,1.2-0.7,2.3-1.9,2.4l0,0c-1.2,0.2-2.3-0.7-2.4-1.9l-1.4-10.7c-0.2-1.2,0.7-2.3,1.9-2.4
	l0,0C69.9,84.3,71,85.1,71.1,86.3z"/>
<path class="st1" d="M53.4,86.8l17.9,8.5c1.1,0.5,1.5,1.8,1,2.9l0,0c-0.5,1.1-1.8,1.5-2.9,1l-17.9-8.5c-1.1-0.5-1.5-1.8-1-2.9l0,0
	C51,86.8,52.3,86.3,53.4,86.8z"/>
<g>
	<path class="st2" d="M42.4,21.5c0-0.6,0.2-1.1,0.5-1.5s0.8-0.5,1.5-0.5c0.3,0,0.5,0.1,0.7,0.2s0.4,0.2,0.6,0.4s0.3,0.3,0.5,0.5
		s0.4,0.3,0.6,0.4c0.2,0.1,0.5,0.2,0.8,0.2c0.6,0,1.1-0.1,1.4-0.3c0.3-0.2,0.4-0.5,0.4-0.8c0-0.1-0.1-0.3-0.2-0.4
		c-0.2-0.1-0.4-0.2-0.6-0.3c-0.3-0.1-0.6-0.2-0.9-0.3c-0.3-0.1-0.7-0.2-1.1-0.3c-0.4-0.1-0.8-0.3-1.1-0.4c-0.4-0.2-0.7-0.4-1.1-0.6
		c-0.3-0.3-0.6-0.5-0.9-0.9c-0.3-0.3-0.5-0.7-0.6-1.2s-0.2-1-0.2-1.6c0-0.7,0.1-1.4,0.4-2c0.2-0.6,0.6-1.1,1-1.6s1-0.8,1.7-1.1
		S47.3,9,48.2,9c0.8,0,1.5,0.1,2.1,0.4c0.7,0.2,1.2,0.6,1.6,0.9s0.7,0.8,1,1.2s0.3,0.8,0.3,1.2c0,0.6-0.2,1.1-0.5,1.5
		c-0.3,0.3-0.8,0.5-1.5,0.5c-0.3,0-0.5-0.1-0.7-0.2s-0.4-0.2-0.6-0.4c-0.2-0.2-0.3-0.3-0.5-0.5s-0.3-0.3-0.6-0.4S48.4,13,48.1,13
		c-0.4,0-0.8,0.1-1,0.3s-0.3,0.4-0.3,0.6c0,0.2,0.1,0.3,0.3,0.5s0.5,0.3,0.8,0.4c0.3,0.1,0.7,0.2,1.1,0.4c0.4,0.1,0.8,0.3,1.2,0.4
		c0.4,0.1,0.8,0.3,1.2,0.6c0.4,0.3,0.8,0.5,1.1,0.9s0.6,0.7,0.8,1.2s0.3,1,0.3,1.6c0,0.7-0.1,1.4-0.4,2s-0.6,1.2-1.1,1.7
		s-1.1,0.9-1.9,1.2c-0.8,0.3-1.7,0.4-2.6,0.4c-0.8,0-1.6-0.1-2.2-0.4c-0.7-0.2-1.2-0.6-1.7-0.9c-0.4-0.4-0.7-0.8-1-1.2
		C42.5,22.3,42.4,21.9,42.4,21.5z"/>
</g>
</svg>
