<?xml version="1.0" encoding="utf-8"?>
<!-- Generator: Adobe Illustrator 22.0.1, SVG Export Plug-In . SVG Version: 6.00 Build 0)  -->
<svg version="1.1" id="Capa_1" xmlns="http://www.w3.org/2000/svg" xmlns:xlink="http://www.w3.org/1999/xlink" x="0px" y="0px"
	 viewBox="0 0 320 512" style="enable-background:new 0 0 320 512;" xml:space="preserve">
<style type="text/css">
	.st0{fill:#0288D1;}
</style>
<g>
	<path class="st0" d="M160,0C71.6,0,0,71.6,0,160c0,23.9,5.2,46.6,14.6,66.9l121.9,264.5c5.8,12.7,14.2,20.7,23.5,20.7
		s17.7-7.9,23.5-20.6L305.4,227c9.4-20.3,14.6-43,14.6-66.9C320,71.6,248.4,0,160,0z M160,256c-53,0-96-43-96-96s43-96,96-96
		s96,43,96,96S213,256,160,256z"/>
</g>
</svg>
