<?xml version="1.0" encoding="utf-8"?>
<!-- Generator: Adobe Illustrator 22.0.1, SVG Export Plug-In . SVG Version: 6.00 Build 0)  -->
<svg version="1.1" id="Слой_1" xmlns="http://www.w3.org/2000/svg" xmlns:xlink="http://www.w3.org/1999/xlink" x="0px" y="0px"
	 viewBox="0 0 109.9 100" style="enable-background:new 0 0 109.9 100;" xml:space="preserve">
<style type="text/css">
	.st0{fill:none;}
	.st1{fill:#0288D1;}
	.st2{fill:#FFA700;}
</style>
<rect x="12.8" y="87.6" class="st0" width="84.8" height="10"/>
<polygon class="st0" points="14,78.9 64.5,55.2 64.5,78.9 "/>
<polygon class="st0" points="2.1,26.3 106.9,26.3 106.9,38.1 100.6,45.6 92.6,38.5 83.3,45.6 73.9,39 64.5,45.1 54.5,38.7 
	45.3,44.7 35.2,38.5 27.2,44.8 17.2,38.8 9.7,45.6 2.1,37.7 "/>
<path class="st1" d="M12.8,100L12.8,100c-1.4,0-2.5-1.1-2.5-2.5V55.2c0-1.4,1.1-2.5,2.5-2.5l0,0c1.4,0,2.5,1.1,2.5,2.5v42.3
	C15.3,98.9,14.2,100,12.8,100z"/>
<path class="st1" d="M64.5,100L64.5,100c-1.4,0-2.5-1.1-2.5-2.5V55.2c0-1.4,1.1-2.5,2.5-2.5l0,0c1.4,0,2.5,1.1,2.5,2.5v42.3
	C67,98.9,65.9,100,64.5,100z"/>
<path class="st2" d="M73.9,81.3L73.9,81.3c-1.4,0-2.5-1.1-2.5-2.5V63.7c0-1.4,1.1-2.5,2.5-2.5l0,0c1.4,0,2.5,1.1,2.5,2.5v15.2
	C76.3,80.2,75.2,81.3,73.9,81.3z"/>
<path class="st1" d="M8.3,47.4L8.3,47.4c-1-1-1-2.5,0-3.5l7.2-7.2c1-1,2.5-1,3.5,0l0,0c1,1,1,2.5,0,3.5l-7.2,7.2
	C10.9,48.4,9.3,48.4,8.3,47.4z"/>
<path class="st1" d="M24.6,46.7L24.6,46.7c-0.8-1.1-0.5-2.7,0.6-3.5l9.6-6.8c1.1-0.8,2.7-0.5,3.5,0.6l0,0c0.8,1.1,0.5,2.7-0.6,3.5
	L28,47.3C26.9,48.1,25.3,47.8,24.6,46.7z"/>
<path class="st1" d="M28.5,46.7L28.5,46.7c0.8-1.1,0.5-2.7-0.6-3.5l-9.3-6.6c-1.1-0.8-2.7-0.5-3.5,0.6l0,0c-0.8,1.1-0.5,2.7,0.6,3.5
	l9.3,6.6C26.2,48.1,27.7,47.8,28.5,46.7z"/>
<path class="st1" d="M43,46.7L43,46.7c-0.8-1.1-0.5-2.7,0.6-3.5l9.6-6.8c1.1-0.8,2.7-0.5,3.5,0.6l0,0c0.8,1.1,0.5,2.7-0.6,3.5
	l-9.6,6.8C45.3,48.1,43.7,47.8,43,46.7z"/>
<path class="st1" d="M46.9,46.7L46.9,46.7c0.8-1.1,0.5-2.7-0.6-3.5l-8.6-6.1c-1.1-0.8-2.7-0.5-3.5,0.6l0,0c-0.8,1.1-0.5,2.7,0.6,3.5
	l8.6,6.1C44.6,48.1,46.1,47.8,46.9,46.7z"/>
<path class="st1" d="M62.2,46.7L62.2,46.7c-0.8-1.1-0.5-2.7,0.6-3.5l9.6-6.8c1.1-0.8,2.7-0.5,3.5,0.6l0,0c0.8,1.1,0.5,2.7-0.6,3.5
	l-9.6,6.8C64.6,48.1,63,47.8,62.2,46.7z"/>
<path class="st1" d="M66.2,46.7L66.2,46.7c0.8-1.1,0.5-2.7-0.6-3.5L57,37.1c-1.1-0.8-2.7-0.5-3.5,0.6l0,0c-0.8,1.1-0.5,2.7,0.6,3.5
	l8.6,6.1C63.8,48.1,65.4,47.8,66.2,46.7z"/>
<path class="st1" d="M81,46.7L81,46.7c-0.8-1.1-0.5-2.7,0.6-3.5l9.6-6.8c1.1-0.8,2.7-0.5,3.5,0.6l0,0c0.8,1.1,0.5,2.7-0.6,3.5
	l-9.6,6.8C83.3,48.1,81.8,47.8,81,46.7z"/>
<path class="st1" d="M84.9,46.7L84.9,46.7c0.8-1.1,0.5-2.7-0.6-3.5l-8.6-6.1c-1.1-0.8-2.7-0.5-3.5,0.6l0,0c-0.8,1.1-0.5,2.7,0.6,3.5
	l8.6,6.1C82.6,48.1,84.1,47.8,84.9,46.7z"/>
<path class="st1" d="M11.4,47.4L11.4,47.4c1-1,1-2.5,0-3.5l-7.2-7.2c-1-1-2.5-1-3.5,0l0,0c-1,1-1,2.5,0,3.5l7.2,7.2
	C8.9,48.4,10.4,48.4,11.4,47.4z"/>
<path class="st1" d="M98.5,47.6L98.5,47.6c-1-1-1-2.5,0-3.5l7.2-7.2c1-1,2.5-1,3.5,0l0,0c1,1,1,2.5,0,3.5l-7.2,7.2
	C101.1,48.5,99.5,48.5,98.5,47.6z"/>
<path class="st1" d="M101.6,47.6L101.6,47.6c1-1,1-2.5,0-3.5l-7.2-7.2c-1-1-2.5-1-3.5,0l0,0c-1,1-1,2.5,0,3.5l7.2,7.2
	C99.1,48.5,100.6,48.5,101.6,47.6z"/>
<path class="st1" d="M97.6,100L97.6,100c-1.4,0-2.5-1.1-2.5-2.5V55.2c0-1.4,1.1-2.5,2.5-2.5l0,0c1.4,0,2.5,1.1,2.5,2.5v42.3
	C100.1,98.9,99,100,97.6,100z"/>
<path class="st1" d="M109.6,97.5L109.6,97.5c0,1.4-1.1,2.5-2.5,2.5H2.5C1.1,100,0,98.9,0,97.5l0,0C0,96.1,1.1,95,2.5,95h104.6
	C108.4,95,109.6,96.1,109.6,97.5z"/>
<path class="st1" d="M109.6,26.3L109.6,26.3c0,1.4-1.1,2.5-2.5,2.5H2.5c-1.4,0-2.5-1.1-2.5-2.5l0,0c0-1.4,1.1-2.5,2.5-2.5h104.6
	C108.4,23.8,109.6,24.9,109.6,26.3z"/>
<path class="st1" d="M96,2.5L96,2.5C96,3.9,94.9,5,93.5,5h-77C15.2,5,14,3.9,14,2.5l0,0C14,1.1,15.2,0,16.5,0h77
	C94.9,0,96,1.1,96,2.5z"/>
<path class="st1" d="M54.6,41L54.6,41c-1.4,0-2.5-1.1-2.5-2.5v-35c0-1.4,1.1-2.5,2.5-2.5l0,0c1.4,0,2.5,1.1,2.5,2.5v35.1
	C57.1,39.9,56,41,54.6,41z"/>
<path class="st1" d="M35.2,28.5l-0.6-0.2c-1.1-0.5-1.6-1.7-1.2-2.8L43.1,2c0.5-1.1,1.7-1.6,2.8-1.2L46.6,1c1.1,0.5,1.6,1.7,1.2,2.8
	l-9.7,23.5C37.6,28.4,36.3,29,35.2,28.5z"/>
<path class="st1" d="M75,27.5l-0.8,0.3c-1.1,0.4-2.3-0.1-2.7-1.2L63.4,5.1C63,4,63.5,2.8,64.6,2.4l0.8-0.3c1.1-0.4,2.3,0.1,2.7,1.2
	l8.1,21.4C76.6,25.9,76,27.1,75,27.5z"/>
<path class="st1" d="M15.6,28l-0.4-0.2c-1-0.7-1.3-2.1-0.6-3.1L29.8,1.5c0.7-1,2.1-1.3,3.1-0.6l0.4,0.2c1,0.7,1.3,2.1,0.6,3.1
	L18.7,27.4C18,28.4,16.6,28.7,15.6,28z"/>
<path class="st1" d="M95.2,28.8L94.8,29c-1.1,0.6-2.5,0.3-3.1-0.8l-13.9-24c-0.6-1.1-0.3-2.5,0.8-3.1L79,0.9
	c1.1-0.6,2.5-0.3,3.1,0.8l13.9,24C96.7,26.8,96.3,28.2,95.2,28.8z"/>
<path class="st1" d="M1.2,28.3L1.2,28.3c-1.2-0.7-1.6-2.2-0.9-3.4L14,1.2c0.7-1.2,2.2-1.6,3.4-0.9l0,0C18.6,1,19,2.5,18.3,3.7
	L4.6,27.4C4,28.5,2.4,29,1.2,28.3z"/>
<path class="st1" d="M108.7,28.4L108.7,28.4c1.2-0.7,1.6-2.2,0.9-3.4L95.9,1.4c-0.7-1.2-2.2-1.6-3.4-0.9l0,0
	c-1.2,0.7-1.6,2.2-0.9,3.4l13.6,23.6C105.9,28.7,107.5,29.1,108.7,28.4z"/>
<path class="st1" d="M36.2,41L36.2,41c-1.4,0-2.5-1.1-2.5-2.5V26.3c0-1.4,1.1-2.5,2.5-2.5l0,0c1.4,0,2.5,1.1,2.5,2.5v12.2
	C38.7,39.9,37.6,41,36.2,41z"/>
<path class="st1" d="M73.9,41L73.9,41c-1.4,0-2.5-1.1-2.5-2.5V26.3c0-1.4,1.1-2.5,2.5-2.5l0,0c1.4,0,2.5,1.1,2.5,2.5v12.2
	C76.3,39.9,75.2,41,73.9,41z"/>
<path class="st1" d="M92.6,41L92.6,41c-1.4,0-2.5-1.1-2.5-2.5V26.3c0-1.4,1.1-2.5,2.5-2.5l0,0c1.4,0,2.5,1.1,2.5,2.5v12.2
	C95.1,39.9,94,41,92.6,41z"/>
<path class="st1" d="M107.4,41L107.4,41c-1.4,0-2.5-1.1-2.5-2.5V26.3c0-1.4,1.1-2.5,2.5-2.5l0,0c1.4,0,2.5,1.1,2.5,2.5v12.2
	C109.9,39.9,108.8,41,107.4,41z"/>
<path class="st1" d="M17.2,41L17.2,41c-1.4,0-2.5-1.1-2.5-2.5V26.3c0-1.4,1.1-2.5,2.5-2.5l0,0c1.4,0,2.5,1.1,2.5,2.5v12.2
	C19.7,39.9,18.6,41,17.2,41z"/>
<path class="st1" d="M2.5,41L2.5,41C1.1,41,0,39.9,0,38.5V26.3c0-1.4,1.1-2.5,2.5-2.5l0,0c1.4,0,2.5,1.1,2.5,2.5v12.2
	C5,39.9,3.9,41,2.5,41z"/>
<path class="st1" d="M67,78.2v1.4c0,1-0.8,1.8-1.8,1.8H12.1c-1,0-1.8-0.8-1.8-1.8v-1.4c0-1,0.8-1.8,1.8-1.8h53.1
	C66.2,76.4,67,77.2,67,78.2z"/>
</svg>
