<?xml version="1.0" encoding="utf-8"?>
<!-- Generator: Adobe Illustrator 22.0.1, SVG Export Plug-In . SVG Version: 6.00 Build 0)  -->
<svg version="1.1" id="Слой_1" xmlns="http://www.w3.org/2000/svg" xmlns:xlink="http://www.w3.org/1999/xlink" x="0px" y="0px"
	 viewBox="0 0 96.1 100" style="enable-background:new 0 0 96.1 100;" xml:space="preserve">
<style type="text/css">
	.st0{fill:#0288D1;}
	.st1{fill:none;}
	.st2{fill:#FFA700;}
</style>
<path class="st0" d="M6.1,100L6.1,100c-1.2,0-2.2-1-2.2-2.2V32.5c0-1.2,1-2.2,2.2-2.2l0,0c1.2,0,2.2,1,2.2,2.2v65.3
	C8.3,99,7.3,100,6.1,100z"/>
<polygon class="st1" points="14,11 14,30 37,24 37,15 "/>
<polygon class="st1" points="60,99 88,34 89,98 "/>
<polygon class="st1" points="6,98 50,23 53,38 52,98 "/>
<path class="st0" d="M59.9,98.6L59.9,98.6c-1.2,0-2.2-1-2.2-2.2V31.2c0-1.2,1-2.2,2.2-2.2l0,0c1.2,0,2.2,1,2.2,2.2v65.3
	C62.1,97.7,61.1,98.6,59.9,98.6z"/>
<path class="st0" d="M88.7,99.4L88.7,99.4c-1.2,0-2.2-1-2.2-2.2V34.3c0-1.2,1-2.2,2.2-2.2l0,0c1.2,0,2.2,1,2.2,2.2v62.9
	C90.9,98.4,89.9,99.4,88.7,99.4z"/>
<path class="st0" d="M14.5,31.6L14.5,31.6c-1.2,0-2.2-1-2.2-2.2V10.8c0-1.2,1-2.2,2.2-2.2l0,0c1.2,0,2.2,1,2.2,2.2v18.6
	C16.6,30.6,15.7,31.6,14.5,31.6z"/>
<path class="st2" d="M16.9,39.1L16.9,39.1c0-1.2,1-2.2,2.2-2.2h24.3c1.2,0,2.2,1,2.2,2.2l0,0c0,1.2-1,2.2-2.2,2.2H19.1
	C17.9,41.3,16.9,40.3,16.9,39.1z"/>
<path class="st2" d="M65.9,43.4L65.9,43.4c0-1.2,1-2.2,2.2-2.2h11.4c1.2,0,2.2,1,2.2,2.2l0,0c0,1.2-1,2.2-2.2,2.2H68
	C66.8,45.6,65.9,44.6,65.9,43.4z"/>
<path class="st0" d="M57.7,31L57.7,31c0.1-1.2,1.2-2.1,2.4-1.9l28.6,3.1c1.2,0.1,2,1.2,1.9,2.4l0,0c-0.1,1.2-1.2,2-2.4,1.9
	l-28.6-3.1C58.5,33.2,57.6,32.1,57.7,31z"/>
<path class="st2" d="M65.9,51.8L65.9,51.8c0-1.2,1-2.2,2.2-2.2h11.4c1.2,0,2.2,1,2.2,2.2l0,0c0,1.2-1,2.2-2.2,2.2H68
	C66.8,54,65.9,53,65.9,51.8z"/>
<path class="st2" d="M65.9,60.2L65.9,60.2c0-1.2,1-2.2,2.2-2.2h11.4c1.2,0,2.2,1,2.2,2.2l0,0c0,1.2-1,2.2-2.2,2.2H68
	C66.8,62.4,65.9,61.4,65.9,60.2z"/>
<path class="st2" d="M65.9,68.6L65.9,68.6c0-1.2,1-2.2,2.2-2.2h11.4c1.2,0,2.2,1,2.2,2.2l0,0c0,1.2-1,2.2-2.2,2.2H68
	C66.8,70.7,65.9,69.7,65.9,68.6z"/>
<path class="st2" d="M65.9,76.5L65.9,76.5c0-1.2,1-2.2,2.2-2.2h11.4c1.2,0,2.2,1,2.2,2.2l0,0c0,1.2-1,2.2-2.2,2.2H68
	C66.8,78.7,65.9,77.7,65.9,76.5z"/>
<path class="st0" d="M65.9,85.1L65.9,85.1c0-1.2,1-2.2,2.2-2.2h12.3c1.2,0,2.2,1,2.2,2.2l0,0c0,1.2-1,2.2-2.2,2.2H68
	C66.8,87.2,65.9,86.3,65.9,85.1z"/>
<path class="st0" d="M80.3,82.9L80.3,82.9c1.2,0,2.2,1,2.2,2.2v11.4c0,1.2-1,2.2-2.2,2.2l0,0c-1.2,0-2.2-1-2.2-2.2V85.1
	C78.1,83.9,79.1,82.9,80.3,82.9z"/>
<path class="st0" d="M68,82.9L68,82.9c1.2,0,2.2,1,2.2,2.2v11.4c0,1.2-1,2.2-2.2,2.2l0,0c-1.2,0-2.2-1-2.2-2.2V85.1
	C65.9,83.9,66.8,82.9,68,82.9z"/>
<path class="st0" d="M4.2,33L4.2,33c-0.3-1.2,0.4-2.3,1.6-2.6L51,19.2c1.2-0.3,2.3,0.4,2.6,1.6l0,0c0.3,1.2-0.4,2.3-1.6,2.6
	L6.8,34.6C5.6,34.9,4.4,34.2,4.2,33z"/>
<path class="st2" d="M12.3,51.8L12.3,51.8c0-1.2,1-2.2,2.2-2.2h28.9c1.2,0,2.2,1,2.2,2.2l0,0c0,1.2-1,2.2-2.2,2.2H14.5
	C13.3,54,12.3,53,12.3,51.8z"/>
<path class="st2" d="M11.7,64.6L11.7,64.6c0-1.2,1-2.2,2.2-2.2h28.9c1.2,0,2.2,1,2.2,2.2l0,0c0,1.2-1,2.2-2.2,2.2H13.9
	C12.7,66.7,11.7,65.8,11.7,64.6z"/>
<path class="st2" d="M11.7,76.5L11.7,76.5c0-1.2,1-2.2,2.2-2.2h28.9c1.2,0,2.2,1,2.2,2.2l0,0c0,1.2-1,2.2-2.2,2.2H13.9
	C12.7,78.7,11.7,77.7,11.7,76.5z"/>
<path class="st0" d="M19.4,85.1L19.4,85.1c0-1.2,1-2.2,2.2-2.2h13.3c1.2,0,2.2,1,2.2,2.2l0,0c0,1.2-1,2.2-2.2,2.2H21.5
	C20.3,87.2,19.4,86.3,19.4,85.1z"/>
<path class="st0" d="M0,97.8L0,97.8c0-1.2,1-2.2,2.2-2.2h91.7c1.2,0,2.2,1,2.2,2.2l0,0c0,1.2-1,2.2-2.2,2.2H2.2C1,100,0,99,0,97.8z"
	/>
<path class="st0" d="M37.2,26L37.2,26C36,26,35,25,35,23.8v-9.4c0-1.2,1-2.2,2.2-2.2l0,0c1.2,0,2.2,1,2.2,2.2v9.4
	C39.4,25,38.4,26,37.2,26z"/>
<path class="st0" d="M21.5,97.8L21.5,97.8c-1.2,0-2.2-1-2.2-2.2V85.1c0-1.2,1-2.2,2.2-2.2l0,0c1.2,0,2.2,1,2.2,2.2v10.6
	C23.7,96.9,22.7,97.8,21.5,97.8z"/>
<path class="st0" d="M34.9,97.8L34.9,97.8c-1.2,0-2.2-1-2.2-2.2V85.1c0-1.2,1-2.2,2.2-2.2l0,0c1.2,0,2.2,1,2.2,2.2v10.6
	C37,96.9,36.1,97.8,34.9,97.8z"/>
<path class="st0" d="M39.4,14.7L39.4,14.7c-0.2,1.2-1.3,2-2.5,1.8L14.1,13c-1.2-0.2-2-1.3-1.8-2.5l0,0c0.2-1.2,1.3-2,2.5-1.8
	l22.8,3.5C38.8,12.4,39.6,13.5,39.4,14.7z"/>
<path class="st0" d="M30.5,15.4L30.5,15.4c-1.2,0-2.2-1-2.2-2.2v-11c0-1.2,1-2.2,2.2-2.2l0,0c1.2,0,2.2,1,2.2,2.2v11.1
	C32.7,14.4,31.7,15.4,30.5,15.4z"/>
<path class="st0" d="M51.5,100L51.5,100c-1.2,0-2.2-1-2.2-2.2V21.4c0-1.2,1-2.2,2.2-2.2l0,0c1.2,0,2.2,1,2.2,2.2v76.4
	C53.7,99,52.7,100,51.5,100z"/>
</svg>
