<?xml version="1.0" encoding="utf-8"?>
<!-- Generator: Adobe Illustrator 22.0.1, SVG Export Plug-In . SVG Version: 6.00 Build 0)  -->
<svg version="1.1" id="Слой_1" xmlns="http://www.w3.org/2000/svg" xmlns:xlink="http://www.w3.org/1999/xlink" x="0px" y="0px"
	 viewBox="0 0 95.2 100" style="enable-background:new 0 0 95.2 100;" xml:space="preserve">
<style type="text/css">
	.st0{fill:#0288D1;}
	.st1{fill:none;}
	.st2{fill:#FFA700;}
</style>
<path class="st0" d="M93,100H2.2C1,100,0,99,0,97.8l0,0c0-1.2,1-2.2,2.2-2.2H93c1.2,0,2.2,1,2.2,2.2l0,0C95.1,99,94.1,100,93,100z"
	/>
<polygon class="st1" points="48,2 48,17 57,22 57,37 48,37 48,66 69,33 69,16 "/>
<path class="st0" d="M30.9,74.9H5.6c-1.1,0-2.1-0.9-2.1-2.1v-0.2c0-1.1,0.9-2.1,2.1-2.1h25.3c1.1,0,2.1,0.9,2.1,2.1v0.2
	C33,74,32.1,74.9,30.9,74.9z"/>
<path class="st0" d="M26.8,52.1H8.6c-1.2,0-2.2-1-2.2-2.2l0,0c0-1.2,1-2.2,2.2-2.2h18.2c1.2,0,2.2,1,2.2,2.2l0,0
	C29,51.1,28,52.1,26.8,52.1z"/>
<path class="st0" d="M86.6,56.1H65c-1.1,0-2-0.9-2-2v-0.3c0-1.1,0.9-2,2-2h21.6c1.1,0,2,0.9,2,2V54C88.6,55.2,87.7,56.1,86.6,56.1z"
	/>
<path class="st0" d="M18.7,25.4h-8c-1.2,0-2.2-1-2.2-2.2l0,0c0-1.2,1-2.2,2.2-2.2h8c1.2,0,2.2,1,2.2,2.2l0,0
	C20.9,24.4,19.9,25.4,18.7,25.4z"/>
<path class="st2" d="M24.6,32.9V15.7c0-1.2,1-2.2,2.2-2.2l0,0c1.2,0,2.2,1,2.2,2.2v17.2c0,1.2-1,2.2-2.2,2.2l0,0
	C25.6,35.1,24.6,34.1,24.6,32.9z"/>
<path class="st2" d="M37.5,36.9V23.2c0-1.2,1-2.2,2.2-2.2l0,0c1.2,0,2.2,1,2.2,2.2V37c0,1.2-1,2.2-2.2,2.2l0,0
	C38.5,39.1,37.5,38.1,37.5,36.9z"/>
<path class="st2" d="M54.7,36.9V23.2c0-1.2,1-2.2,2.2-2.2l0,0c1.2,0,2.2,1,2.2,2.2V37c0,1.2-1,2.2-2.2,2.2l0,0
	C55.7,39.1,54.7,38.1,54.7,36.9z"/>
<path class="st2" d="M33.6,22.8L47,15.1c1-0.6,2.4-0.2,3,0.8l0,0c0.6,1,0.2,2.4-0.8,3l-13.3,7.7c-1,0.6-2.4,0.2-3-0.8l0,0
	C32.3,24.7,32.6,23.4,33.6,22.8z"/>
<path class="st2" d="M62.5,22.8l-13.3-7.7c-1-0.6-2.4-0.2-3,0.8l0,0c-0.6,1-0.2,2.4,0.8,3l13.3,7.7c1,0.6,2.4,0.2,3-0.8l0,0
	C63.9,24.7,63.5,23.4,62.5,22.8z"/>
<path class="st2" d="M39.7,35h17.2c1.2,0,2.2,1,2.2,2.2l0,0c0,1.2-1,2.2-2.2,2.2H39.7c-1.2,0-2.2-1-2.2-2.2l0,0
	C37.5,36,38.5,35,39.7,35z"/>
<path class="st2" d="M25.6,13.8l21-13.5c1-0.6,2.3-0.4,3,0.6l0,0c0.6,1,0.4,2.3-0.6,3L28,17.5c-1,0.6-2.3,0.4-3-0.6l0,0
	C24.3,15.8,24.6,14.5,25.6,13.8z"/>
<path class="st2" d="M45.8,66.4L25,34.1c-0.6-1-0.4-2.3,0.6-3l0,0c1-0.6,2.3-0.4,3,0.6L49.4,64c0.6,1,0.4,2.3-0.6,3l0,0
	C47.8,67.7,46.4,67.4,45.8,66.4z"/>
<path class="st2" d="M70.9,32.9V15.7c0-1.2-1-2.2-2.2-2.2l0,0c-1.2,0-2.2,1-2.2,2.2v17.2c0,1.2,1,2.2,2.2,2.2l0,0
	C70,35.1,70.9,34.1,70.9,32.9z"/>
<path class="st2" d="M70,13.8L49,0.4C48-0.3,46.7,0,46,1l0,0c-0.6,1-0.4,2.3,0.6,3l20.9,13.5c1,0.6,2.3,0.4,3-0.6l0,0
	C71.2,15.8,71,14.5,70,13.8z"/>
<path class="st2" d="M49.7,66.6l20.9-32.4c0.6-1,0.4-2.3-0.6-3l0,0c-1-0.6-2.3-0.4-3,0.6L46.1,64.2c-0.6,1-0.4,2.3,0.6,3l0,0
	C47.7,67.9,49.1,67.6,49.7,66.6z"/>
<path class="st0" d="M12.9,23.5L4.3,98.1c-0.1,1.2-1.2,2-2.4,1.9l0,0c-1.2-0.1-2-1.2-1.9-2.4L8.6,23c0.1-1.2,1.2-2,2.4-1.9l0,0
	C12.2,21.2,13.1,22.3,12.9,23.5z"/>
<path class="st0" d="M33.3,73.2l-0.8,23.7c0,1.2-1,2.1-2.2,2.1l0,0c-1.2,0-2.1-1-2.1-2.2L28.9,73c0-1.2,1-2.1,2.2-2.1l0,0
	C32.4,71,33.3,72,33.3,73.2z"/>
<path class="st0" d="M29.4,43.3l-0.2,6.5c0,1.2-1,2.1-2.2,2.1l0,0c-1.2,0-2.1-1-2.1-2.2l0.2-6.5c0-1.2,1-2.1,2.2-2.1l0,0
	C28.5,41.1,29.5,42.1,29.4,43.3z"/>
<path class="st0" d="M62.2,54.1l1.6,42.8c0,1.2,1.1,2.1,2.2,2.1l0,0c1.2,0,2.1-1.1,2.1-2.2L66.5,54c0-1.2-1.1-2.1-2.2-2.1l0,0
	C63.1,51.9,62.1,52.9,62.2,54.1z"/>
<path class="st0" d="M76.4,25.4h8c1.2,0,2.2-1,2.2-2.2l0,0c0-1.2-1-2.2-2.2-2.2h-8c-1.2,0-2.2,1-2.2,2.2l0,0
	C74.2,24.4,75.2,25.4,76.4,25.4z"/>
<path class="st0" d="M82.2,23.5l8.6,74.6c0.1,1.2,1.2,2,2.4,1.9l0,0c1.2-0.1,2-1.2,1.9-2.4L86.5,23c-0.1-1.2-1.2-2-2.4-1.9l0,0
	C82.9,21.2,82.1,22.3,82.2,23.5z"/>
<path class="st0" d="M48,1"/>
</svg>
