<?xml version="1.0" encoding="utf-8"?>
<!-- Generator: Adobe Illustrator 22.0.1, SVG Export Plug-In . SVG Version: 6.00 Build 0)  -->
<svg version="1.1" id="Слой_1" xmlns="http://www.w3.org/2000/svg" xmlns:xlink="http://www.w3.org/1999/xlink" x="0px" y="0px"
	 viewBox="0 0 101.3 100" style="enable-background:new 0 0 101.3 100;" xml:space="preserve">
<style type="text/css">
	.st0{fill:none;}
	.st1{fill:#0288D1;}
	.st2{fill:#FFA700;}
</style>
<polygon class="st0" points="2.2,56.1 27.6,56.1 27.6,69 48,54.8 48,70.3 73.8,55.4 73.8,69.7 99.2,54.8 99.2,97.8 2.2,97.6 "/>
<polygon class="st0" points="7.6,14.6 22.2,14.6 23.4,22.8 6.3,22.8 "/>
<path class="st1" d="M2.2,100L2.2,100C1,100,0,99,0,97.8V48.6c0-1.2,1-2.2,2.2-2.2l0,0c1.2,0,2.2,1,2.2,2.2v49.2
	C4.4,99,3.4,100,2.2,100z"/>
<path class="st1" d="M27.6,63.1L27.6,63.1c-1.2,0-2.2-1-2.2-2.2V48.7c0-1.2,1-2.2,2.2-2.2l0,0c1.2,0,2.2,1,2.2,2.2V61
	C29.7,62.1,28.8,63.1,27.6,63.1z"/>
<path class="st1" d="M48.4,63.1L48.4,63.1c-1.2,0-2.2-1-2.2-2.2V46.4c0-1.2,1-2.2,2.2-2.2l0,0c1.2,0,2.2,1,2.2,2.2V61
	C50.6,62.1,49.6,63.1,48.4,63.1z"/>
<path class="st1" d="M0,97.8L0,97.8c0-1.2,1-2.2,2.2-2.2h97c1.2,0,2.2,1,2.2,2.2l0,0c0,1.2-1,2.2-2.2,2.2h-97C1,100,0,99,0,97.8z"/>
<path class="st2" d="M45.6,77.3L45.6,77.3c0-1.2,1-2.2,2.2-2.2H97c1.2,0,2.2,1,2.2,2.2l0,0c0,1.2-1,2.2-2.2,2.2H47.8
	C46.6,79.5,45.6,78.5,45.6,77.3z"/>
<path class="st1" d="M6.2,14.6L6.2,14.6c0-1.2,1-2.2,2.2-2.2h12.7c1.2,0,2.2,1,2.2,2.2l0,0c0,1.2-1,2.2-2.2,2.2H8.4
	C7.2,16.7,6.2,15.8,6.2,14.6z"/>
<path class="st1" d="M6.3,22.8L6.3,22.8c0-1.2,1-2.2,2.2-2.2h12.7c1.2,0,2.2,1,2.2,2.2l0,0c0,1.2-1,2.2-2.2,2.2H8.5
	C7.3,25,6.3,24,6.3,22.8z"/>
<path class="st1" d="M0,48.6L0,48.6c0-1.2,1-2.2,2.2-2.2h25.4c1.2,0,2.2,1,2.2,2.2l0,0c0,1.2-1,2.2-2.2,2.2H2.2
	C1,50.8,0,49.8,0,48.6z"/>
<path class="st1" d="M25.8,62.2L25.8,62.2c-0.7-1-0.5-2.3,0.5-3l20.8-14.6c1-0.7,2.3-0.5,3,0.5l0,0c0.7,1,0.5,2.3-0.5,3L28.8,62.7
	C27.8,63.4,26.5,63.2,25.8,62.2z"/>
<path class="st1" d="M73.8,63.1L73.8,63.1c-1.2,0-2.2-1-2.2-2.2V46.4c0-1.2,1-2.2,2.2-2.2l0,0c1.2,0,2.2,1,2.2,2.2V61
	C76,62.1,75,63.1,73.8,63.1z"/>
<path class="st1" d="M46.5,62L46.5,62c-0.6-1-0.2-2.4,0.8-3l25.2-14.5c1-0.6,2.4-0.2,3,0.8l0,0c0.6,1,0.2,2.4-0.8,3L49.5,62.8
	C48.4,63.4,47.1,63,46.5,62z"/>
<path class="st1" d="M71.9,62L71.9,62c-0.6-1-0.2-2.4,0.8-3l25.2-14.5c1-0.6,2.4-0.2,3,0.8l0,0c0.6,1,0.2,2.4-0.8,3L74.9,62.8
	C73.8,63.4,72.5,63,71.9,62z"/>
<path class="st2" d="M45.6,85.5L45.6,85.5c0-1.2,1-2.2,2.2-2.2H97c1.2,0,2.2,1,2.2,2.2l0,0c0,1.2-1,2.2-2.2,2.2H47.8
	C46.6,87.7,45.6,86.7,45.6,85.5z"/>
<path class="st1" d="M4.5,49.9L4.5,49.9c-1.3-0.1-2.1-1.1-2-2.3L6.2,1.9c0.1-1.2,1.1-2,2.3-1.9h0.1c1.2,0.1,2,1.1,1.9,2.3L6.8,48
	C6.7,49.2,5.7,50,4.5,49.9z"/>
<path class="st1" d="M25.6,49.9h-0.1c-1.2,0.1-2.2-0.7-2.3-1.9L18.9,2.3c-0.1-1.2,0.7-2.2,1.9-2.3H21c1.2-0.1,2.2,0.7,2.3,1.9
	l4.3,45.7C27.7,48.7,26.8,49.8,25.6,49.9z"/>
<path class="st1" d="M6.2,2.2L6.2,2.2C6.2,1,7.2,0,8.4,0h12.7c1.2,0,2.2,1,2.2,2.2l0,0c0,1.2-1,2.2-2.2,2.2H8.4
	C7.2,4.4,6.2,3.4,6.2,2.2z"/>
<path class="st1" d="M99.2,100L99.2,100c-1.2,0-2.2-1-2.2-2.2V46.4c0-1.2,1-2.2,2.2-2.2l0,0c1.2,0,2.2,1,2.2,2.2v51.5
	C101.4,99,100.4,100,99.2,100z"/>
</svg>
