<?xml version="1.0" encoding="utf-8"?>
<!-- Generator: Adobe Illustrator 22.0.1, SVG Export Plug-In . SVG Version: 6.00 Build 0)  -->
<svg version="1.1" id="Слой_1" xmlns="http://www.w3.org/2000/svg" xmlns:xlink="http://www.w3.org/1999/xlink" x="0px" y="0px"
	 viewBox="0 0 104.5 100" style="enable-background:new 0 0 104.5 100;" xml:space="preserve">
<style type="text/css">
	.st0{fill:none;}
	.st1{fill:#0288D1;}
	.st2{fill:#FFA700;}
</style>
<polygon class="st0" points="41.3,89 58.2,76.1 58.2,89 "/>
<polygon class="st0" points="41.3,67.2 58.2,54.1 58.2,67.2 "/>
<polygon class="st0" points="15,84.8 23.8,85.5 23.1,97.7 15,97.7 "/>
<polygon class="st0" points="67,97.7 102.3,4.5 102.3,96.9 "/>
<path class="st1" d="M67,100L67,100c-1.3,0-2.3-1-2.3-2.3V2.3C64.7,1,65.7,0,67,0l0,0c1.3,0,2.3,1,2.3,2.3v95.5
	C69.2,99,68.2,100,67,100z"/>
<path class="st1" d="M32.6,98.9L32.6,98.9c-1.3,0-2.3-1-2.3-2.3V45.7c0-1.3,1-2.3,2.3-2.3l0,0c1.3,0,2.3,1,2.3,2.3v50.9
	C34.9,97.9,33.9,98.9,32.6,98.9z"/>
<path class="st1" d="M6.8,100L6.8,100c-1.3,0-2.3-1-2.3-2.3V77.1c0-1.3,1-2.3,2.3-2.3l0,0c1.3,0,2.3,1,2.3,2.3v20.6
	C9.1,99,8.1,100,6.8,100z"/>
<path class="st1" d="M102.3,100L102.3,100c-1.3,0-2.3-1-2.3-2.3V2.3c0-1.3,1-2.3,2.3-2.3l0,0c1.3,0,2.3,1,2.3,2.3v95.5
	C104.5,99,103.5,100,102.3,100z"/>
<path class="st1" d="M4.5,97.7L4.5,97.7c0-1.3,1-2.3,2.3-2.3h95.5c1.3,0,2.3,1,2.3,2.3l0,0c0,1.3-1,2.3-2.3,2.3H6.8
	C5.6,100,4.5,99,4.5,97.7z"/>
<path class="st1" d="M64.7,2.3L64.7,2.3C64.7,1,65.7,0,67,0h35.3c1.3,0,2.3,1,2.3,2.3l0,0c0,1.3-1,2.3-2.3,2.3H67
	C65.7,4.5,64.7,3.5,64.7,2.3z"/>
<path class="st1" d="M30.3,45.7L30.3,45.7c0-1.3,1-2.3,2.3-2.3h33.1c1.3,0,2.3,1,2.3,2.3l0,0c0,1.3-1,2.3-2.3,2.3H32.6
	C31.4,48,30.3,47,30.3,45.7z"/>
<path class="st1" d="M9.3,24.3L9.3,24.3c0-1.3,1-2.3,2.3-2.3h25.1c1.3,0,2.3,1,2.3,2.3l0,0c0,1.3-1,2.3-2.3,2.3H11.6
	C10.3,26.5,9.3,25.5,9.3,24.3z"/>
<path class="st1" d="M13.4,2.3L13.4,2.3c0-1.3,1-2.3,2.3-2.3h6.2c1.3,0,2.3,1,2.3,2.3l0,0c0,1.3-1,2.3-2.3,2.3h-6.2
	C14.4,4.5,13.4,3.5,13.4,2.3z"/>
<path class="st1" d="M26.8,8.6V8.5c0-1.2,1-2.2,2.2-2.2h7.7c1.2,0,2.2,1,2.2,2.2v0.1c0,1.2-1,2.2-2.2,2.2H29
	C27.8,10.8,26.8,9.8,26.8,8.6z"/>
<path class="st1" d="M35.1,7L35.1,7c0.9-0.9,2.3-1,3.2-0.2l6.6,6c0.9,0.8,1,2.3,0.1,3.2l0,0c-0.8,0.9-2.3,1-3.2,0.1l-6.6-6
	C34.3,9.3,34.2,7.9,35.1,7z"/>
<path class="st1" d="M20.4,0.8L20.4,0.8c0.8-0.9,2.3-1,3.2-0.1l6.8,6.2c0.9,0.8,1,2.3,0.1,3.2l0,0c-0.8,0.9-2.3,1-3.2,0.1L20.5,4
	C19.6,3.2,19.6,1.7,20.4,0.8z"/>
<path class="st1" d="M44.3,13L44.3,13c1,0.7,1.3,2.1,0.6,3.1l-6.3,9.4c-0.7,1-2.1,1.3-3.1,0.6l0,0c-1-0.7-1.3-2.1-0.6-3.1l6.3-9.4
	C41.8,12.6,43.2,12.3,44.3,13z"/>
<path class="st1" d="M4.1,13L4.1,13c-1,0.7-1.3,2.1-0.6,3.1l6.3,9.4c0.7,1,2.1,1.3,3.1,0.6l0,0c1-0.7,1.3-2.1,0.6-3.1l-6.3-9.4
	C6.5,12.6,5.1,12.3,4.1,13z"/>
<path class="st1" d="M3.9,16.5L3.9,16.5c-1-0.8-1.1-2.2-0.4-3.2l10-12.5c0.8-1,2.2-1.1,3.2-0.4l0,0c1,0.8,1.1,2.2,0.4,3.2l-10,12.5
	C6.3,17.2,4.9,17.3,3.9,16.5z"/>
<path class="st1" d="M9.1,63L9.1,63c0-1.3,1-2.3,2.3-2.3h20.5c1.3,0,2.3,1,2.3,2.3l0,0c0,1.3-1,2.3-2.3,2.3H11.3
	C10.1,65.3,9.1,64.2,9.1,63z"/>
<path class="st1" d="M1,77.8L1,77.8c-1-0.7-1.3-2.1-0.6-3.2l9-12.9c0.7-1,2.1-1.3,3.2-0.6l0,0c1,0.7,1.3,2.1,0.6,3.2l-9,12.9
	C3.4,78.3,2,78.5,1,77.8z"/>
<path class="st1" d="M31.1,47.4L31.1,47.4c-0.9-0.9-0.9-2.3-0.1-3.2l17-17c0.9-0.9,2.3-0.9,3.1,0l0.1,0.1c0.9,0.9,0.9,2.3,0,3.1
	l-17,17C33.3,48.2,31.9,48.2,31.1,47.4z"/>
<path class="st1" d="M68.3,47.4L68.3,47.4c0.9-0.9,0.9-2.3,0.1-3.2l-17-17c-0.9-0.9-2.3-0.9-3.1,0l-0.1,0.1c-0.9,0.9-0.9,2.3,0,3.1
	l17,17C66,48.2,67.4,48.2,68.3,47.4z"/>
<path class="st1" d="M39,54.1L39,54.1c0-1.3,1-2.3,2.3-2.3h17c1.3,0,2.3,1,2.3,2.3l0,0c0,1.3-1,2.3-2.3,2.3h-17
	C40,56.4,39,55.3,39,54.1z"/>
<path class="st1" d="M41.2,69.8L41.2,69.8c-1.3,0-2.3-1-2.3-2.3V54.1c0-1.3,1-2.3,2.3-2.3l0,0c1.3,0,2.3,1,2.3,2.3v13.4
	C43.4,68.8,42.4,69.8,41.2,69.8z"/>
<path class="st1" d="M41.3,91.2L41.3,91.2c-1.3,0-2.3-1-2.3-2.3V76.1c0-1.3,1-2.3,2.3-2.3l0,0c1.3,0,2.3,1,2.3,2.3V89
	C43.5,90.2,42.5,91.2,41.3,91.2z"/>
<path class="st1" d="M15,99.9L15,99.9c-1.3,0-2.3-1-2.3-2.3V84.8c0-1.3,1-2.3,2.3-2.3l0,0c1.3,0,2.3,1,2.3,2.3v12.8
	C17.3,98.9,16.3,99.9,15,99.9z"/>
<path class="st1" d="M23.8,99.9L23.8,99.9c-1.3,0-2.3-1-2.3-2.3V84.8c0-1.3,1-2.3,2.3-2.3l0,0c1.3,0,2.3,1,2.3,2.3v12.8
	C26.1,98.9,25.1,99.9,23.8,99.9z"/>
<path class="st1" d="M58.2,91.2L58.2,91.2c-1.3,0-2.3-1-2.3-2.3V76.1c0-1.3,1-2.3,2.3-2.3l0,0c1.3,0,2.3,1,2.3,2.3V89
	C60.5,90.2,59.5,91.2,58.2,91.2z"/>
<path class="st1" d="M58.2,69.8L58.2,69.8c-1.3,0-2.3-1-2.3-2.3V54.1c0-1.3,1-2.3,2.3-2.3l0,0c1.3,0,2.3,1,2.3,2.3v13.4
	C60.5,68.8,59.5,69.8,58.2,69.8z"/>
<path class="st2" d="M80.3,21.3L80.3,21.3c-1.3,0-2.3-1-2.3-2.3v-8.3c0-1.3,1-2.3,2.3-2.3l0,0c1.3,0,2.3,1,2.3,2.3V19
	C82.6,20.3,81.6,21.3,80.3,21.3z"/>
<path class="st2" d="M89,21.3L89,21.3c-1.3,0-2.3-1-2.3-2.3v-8.3c0-1.3,1-2.3,2.3-2.3l0,0c1.3,0,2.3,1,2.3,2.3V19
	C91.3,20.3,90.3,21.3,89,21.3z"/>
<path class="st2" d="M80.3,38.9L80.3,38.9c-1.3,0-2.3-1-2.3-2.3v-8.3c0-1.3,1-2.3,2.3-2.3l0,0c1.3,0,2.3,1,2.3,2.3v8.3
	C82.5,37.9,81.5,38.9,80.3,38.9z"/>
<path class="st2" d="M89,38.9L89,38.9c-1.3,0-2.3-1-2.3-2.3v-8.3c0-1.3,1-2.3,2.3-2.3l0,0c1.3,0,2.3,1,2.3,2.3v8.3
	C91.3,37.9,90.2,38.9,89,38.9z"/>
<path class="st2" d="M80.3,55.9L80.3,55.9c-1.3,0-2.3-1-2.3-2.3v-8.3c0-1.3,1-2.3,2.3-2.3l0,0c1.3,0,2.3,1,2.3,2.3v8.3
	C82.5,54.9,81.5,55.9,80.3,55.9z"/>
<path class="st2" d="M89,55.9L89,55.9c-1.3,0-2.3-1-2.3-2.3v-8.3c0-1.3,1-2.3,2.3-2.3l0,0c1.3,0,2.3,1,2.3,2.3v8.3
	C91.3,54.9,90.2,55.9,89,55.9z"/>
<path class="st2" d="M80.3,73.7L80.3,73.7c-1.3,0-2.3-1-2.3-2.3v-8.3c0-1.3,1-2.3,2.3-2.3l0,0c1.3,0,2.3,1,2.3,2.3v8.3
	C82.5,72.7,81.5,73.7,80.3,73.7z"/>
<path class="st2" d="M89,73.7L89,73.7c-1.3,0-2.3-1-2.3-2.3v-8.3c0-1.3,1-2.3,2.3-2.3l0,0c1.3,0,2.3,1,2.3,2.3v8.3
	C91.3,72.7,90.2,73.7,89,73.7z"/>
<path class="st2" d="M80.3,91L80.3,91C79,91,78,90,78,88.8v-8.3c0-1.3,1-2.3,2.3-2.3l0,0c1.3,0,2.3,1,2.3,2.3v8.3
	C82.5,90,81.5,91,80.3,91z"/>
<path class="st2" d="M89,91L89,91c-1.3,0-2.3-1-2.3-2.3v-8.3c0-1.3,1-2.3,2.3-2.3l0,0c1.3,0,2.3,1,2.3,2.3v8.3
	C91.3,90,90.2,91,89,91z"/>
<path class="st1" d="M39,67.5L39,67.5c0-1.3,1-2.3,2.3-2.3h17c1.3,0,2.3,1,2.3,2.3l0,0c0,1.3-1,2.3-2.3,2.3h-17
	C40,69.8,39,68.8,39,67.5z"/>
<path class="st1" d="M39,76.1L39,76.1c0-1.3,1-2.3,2.3-2.3h17c1.3,0,2.3,1,2.3,2.3l0,0c0,1.3-1,2.3-2.3,2.3h-17
	C40,78.4,39,77.4,39,76.1z"/>
<path class="st1" d="M12.8,84.8L12.8,84.8c0-1.3,1-2.3,2.3-2.3h8.8c1.3,0,2.3,1,2.3,2.3l0,0c0,1.3-1,2.3-2.3,2.3H15
	C13.8,87.1,12.8,86,12.8,84.8z"/>
<path class="st1" d="M39,89L39,89c0-1.3,1-2.3,2.3-2.3h17c1.3,0,2.3,1,2.3,2.3l0,0c0,1.3-1,2.3-2.3,2.3h-17C40,91.2,39,90.2,39,89z"
	/>
<path class="st1" d="M0.1,76.1L0.1,76.1c0-1.3,1-2.3,2.3-2.3h28.4c1.2,0,2.3,1,2.3,2.3l0,0c0,1.2-1,2.3-2.3,2.3H2.3
	C1.1,78.4,0.1,77.4,0.1,76.1z"/>
</svg>
