<?xml version="1.0" encoding="utf-8"?>
<!-- Generator: Adobe Illustrator 22.0.1, SVG Export Plug-In . SVG Version: 6.00 Build 0)  -->
<svg version="1.1" id="Слой_1" xmlns="http://www.w3.org/2000/svg" xmlns:xlink="http://www.w3.org/1999/xlink" x="0px" y="0px"
	 viewBox="0 0 125.9 100" style="enable-background:new 0 0 125.9 100;" xml:space="preserve">
<style type="text/css">
	.st0{fill:none;}
	.st1{fill:#0288D1;}
	.st2{fill:#FFA700;}
</style>
<rect x="7" y="86.2" class="st0" width="42" height="11"/>
<rect x="65.6" y="86.2" class="st0" width="42.3" height="11"/>
<rect x="76" y="65.6" class="st0" width="21.3" height="9.2"/>
<path class="st1" d="M7,100L7,100c-1.5,0-2.8-1.2-2.8-2.8V40.1c0-1.5,1.2-2.8,2.8-2.8l0,0c1.5,0,2.8,1.2,2.8,2.8v57.1
	C9.8,98.8,8.5,100,7,100z"/>
<path class="st1" d="M49.1,100L49.1,100c-1.5,0-2.8-1.2-2.8-2.8V40.1c0-1.5,1.2-2.8,2.8-2.8l0,0c1.5,0,2.8,1.2,2.8,2.8v57.1
	C51.8,98.8,50.6,100,49.1,100z"/>
<path class="st1" d="M22.9,89.1L22.9,89.1c-1.5,0-2.8-1.2-2.8-2.8V48.6c0-1.5,1.2-2.8,2.8-2.8l0,0c1.5,0,2.8,1.2,2.8,2.8v37.7
	C25.7,87.8,24.5,89.1,22.9,89.1z"/>
<path class="st1" d="M0.4,40.4L0.4,40.4c-0.8-1.3-0.4-3,0.9-3.8l60-36.2c1.3-0.8,3-0.4,3.8,0.9l0,0c0.8,1.3,0.4,3-0.9,3.8l-60,36.2
	C2.9,42.1,1.2,41.7,0.4,40.4z"/>
<path class="st1" d="M125.5,40.4L125.5,40.4c0.8-1.3,0.4-3-0.9-3.8l-60-36.2c-1.3-0.8-3-0.4-3.8,0.9l0,0c-0.8,1.3-0.4,3,0.9,3.8
	l60,36.2C123,42.1,124.7,41.7,125.5,40.4z"/>
<path class="st1" d="M33.5,89.1L33.5,89.1c-1.5,0-2.8-1.2-2.8-2.8V48.6c0-1.5,1.2-2.8,2.8-2.8l0,0c1.5,0,2.8,1.2,2.8,2.8v37.7
	C36.3,87.8,35,89.1,33.5,89.1z"/>
<path class="st2" d="M73.2,54.8L73.2,54.8c0-1.5,1.2-2.8,2.8-2.8h21.3c1.5,0,2.8,1.2,2.8,2.8l0,0c0,1.5-1.2,2.8-2.8,2.8H76
	C74.5,57.6,73.2,56.4,73.2,54.8z"/>
<path class="st1" d="M0,38.9L0,38.9c0-1.5,1.2-2.8,2.8-2.8h120.3c1.5,0,2.8,1.2,2.8,2.8l0,0c0,1.5-1.2,2.8-2.8,2.8H2.8
	C1.2,41.7,0,40.5,0,38.9z"/>
<path class="st2" d="M62.8,75.6L62.8,75.6c0-1.5,1.2-2.8,2.8-2.8h42.3c1.5,0,2.8,1.2,2.8,2.8l0,0c0,1.5-1.2,2.8-2.8,2.8H65.6
	C64.1,78.4,62.8,77.2,62.8,75.6z"/>
<path class="st2" d="M76.2,76.5h-0.3c-1.5,0-2.7-1.2-2.7-2.7V55c0-1.6,1.3-2.9,2.9-2.9l0,0c1.5,0,2.7,1.2,2.7,2.7v19.1
	C78.8,75.3,77.6,76.5,76.2,76.5z"/>
<path class="st2" d="M97.4,76.5h-0.3c-1.5,0-2.7-1.2-2.7-2.7V55c0-1.6,1.3-2.9,2.9-2.9l0,0c1.5,0,2.7,1.2,2.7,2.7v19.1
	C100.1,75.3,98.9,76.5,97.4,76.5z"/>
<path class="st2" d="M86.7,99.7L86.7,99.7c-1.5,0-2.8-1.2-2.8-2.8V75.6c0-1.5,1.2-2.8,2.8-2.8l0,0c1.5,0,2.8,1.2,2.8,2.8v21.3
	C89.5,98.4,88.2,99.7,86.7,99.7z"/>
<path class="st2" d="M65.6,99.7L65.6,99.7c-1.5,0-2.8-1.2-2.8-2.8V75.6c0-1.5,1.2-2.8,2.8-2.8l0,0c1.5,0,2.8,1.2,2.8,2.8v21.3
	C68.4,98.4,67.1,99.7,65.6,99.7z"/>
<path class="st2" d="M107.9,99.7L107.9,99.7c-1.5,0-2.8-1.2-2.8-2.8V75.6c0-1.5,1.2-2.8,2.8-2.8l0,0c1.5,0,2.8,1.2,2.8,2.8v21.3
	C110.7,98.4,109.5,99.7,107.9,99.7z"/>
<path class="st1" d="M118.6,100L118.6,100c-1.5,0-2.8-1.2-2.8-2.8V40.1c0-1.5,1.2-2.8,2.8-2.8l0,0c1.5,0,2.8,1.2,2.8,2.8v57.1
	C121.4,98.8,120.1,100,118.6,100z"/>
<path class="st1" d="M4.2,97.2L4.2,97.2c0-1.5,1.2-2.8,2.8-2.8h111.6c1.5,0,2.8,1.2,2.8,2.8l0,0c0,1.5-1.2,2.8-2.8,2.8H7
	C5.5,100,4.2,98.8,4.2,97.2z"/>
</svg>
