<?xml version="1.0" encoding="utf-8"?>
<!-- Generator: Adobe Illustrator 22.0.1, SVG Export Plug-In . SVG Version: 6.00 Build 0)  -->
<svg version="1.1" id="Слой_1" xmlns="http://www.w3.org/2000/svg" xmlns:xlink="http://www.w3.org/1999/xlink" x="0px" y="0px"
	 viewBox="0 0 96.1 100" style="enable-background:new 0 0 96.1 100;" xml:space="preserve">
<style type="text/css">
	.st0{fill:none;}
	.st1{fill:#0288D1;}
	.st2{fill:#FFA700;}
</style>
<polygon class="st0" points="64.6,66.6 49.1,94.6 49.9,97.8 65.1,98.7 "/>
<polygon class="st0" points="31.3,95.6 47.5,66.6 47.5,96.8 31.3,97.8 "/>
<polygon class="st0" points="64.6,91.6 89.6,91.6 89.2,98.7 65.1,98.7 "/>
<polygon class="st0" points="6.2,91.5 31.3,91.6 31.3,97.8 6.2,97.8 "/>
<polygon class="st0" points="64.6,52 85.2,52 85.2,60.4 65.1,60.4 "/>
<rect x="10.7" y="52.7" class="st0" width="20.6" height="7.7"/>
<polygon class="st0" points="4.5,37.9 90.6,37.7 89.2,46 89.2,51.4 6.2,52 6.2,43.8 "/>
<path class="st1" d="M10.7,87.3L10.7,87.3c-1.2,0-2.2-1-2.2-2.2v-33c0-1.2,1-2.2,2.2-2.2l0,0c1.2,0,2.2,1,2.2,2.2v33
	C12.9,86.3,11.9,87.3,10.7,87.3z"/>
<path class="st1" d="M6.2,100L6.2,100C5,100,4,99,4,97.8V85.1c0-1.2,1-2.2,2.2-2.2l0,0c1.2,0,2.2,1,2.2,2.2v12.7
	C8.4,99,7.5,100,6.2,100z"/>
<path class="st1" d="M6.2,54.1L6.2,54.1c-1.2,0-2.2-1-2.2-2.2v-8.2c0-1.2,1-2.2,2.2-2.2l0,0c1.2,0,2.2,1,2.2,2.2V52
	C8.4,53.2,7.5,54.1,6.2,54.1z"/>
<path class="st1" d="M31.3,33.8L31.3,33.8c-1.2,0-2.2-1-2.2-2.2v-6.5c0-1.2,1-2.2,2.2-2.2l0,0c1.2,0,2.2,1,2.2,2.2v6.5
	C33.4,32.9,32.5,33.8,31.3,33.8z"/>
<path class="st2" d="M47.7,20L47.7,20c-1.2,0-2.2-1-2.2-2.2V2.2c0-1.2,1-2.2,2.2-2.2l0,0c1.2,0,2.2,1,2.2,2.2v15.6
	C49.9,19,48.9,20,47.7,20z"/>
<path class="st1" d="M29.3,26.1V26c-0.5-1.1,0-2.3,1-2.8l16.2-7.5c1.1-0.5,2.3,0,2.8,1v0.1c0.5,1.1,0,2.3-1,2.8l-16.2,7.5
	C31.1,27.6,29.8,27.1,29.3,26.1z"/>
<path class="st1" d="M64.9,25.8l0.1-0.2c0.5-1,0-2.3-1-2.8l-15.6-7.2c-1-0.5-2.3,0-2.8,1l-0.1,0.2c-0.5,1,0,2.3,1,2.8l15.6,7.2
	C63.2,27.3,64.4,26.9,64.9,25.8z"/>
<path class="st1" d="M63,33.7L63,33.7c-1.2,0-2.2-1-2.2-2.2v-6.7c0-1.2,1-2.2,2.2-2.2l0,0c1.2,0,2.2,1,2.2,2.2v6.7
	C65.1,32.7,64.2,33.7,63,33.7z"/>
<path class="st2" d="M60.4,13.1L60.4,13.1c-1.2,0-2.2-1-2.2-2.2V2.2c0-1.2,1-2.2,2.2-2.2l0,0c1.2,0,2.2,1,2.2,2.2v8.7
	C62.6,12.1,61.6,13.1,60.4,13.1z"/>
<path class="st2" d="M47.7,13.1L47.7,13.1c-1.2,0-2.2-1-2.2-2.2V2.2c0-1.2,1-2.2,2.2-2.2l0,0c1.2,0,2.2,1,2.2,2.2v8.7
	C49.9,12.1,48.9,13.1,47.7,13.1z"/>
<path class="st2" d="M62.6,10.9L62.6,10.9c0,1.2-1,2.2-2.2,2.2h-12c-1.2,0-2.2-1-2.2-2.2l0,0c0-1.2,1-2.2,2.2-2.2h12
	C61.6,8.7,62.6,9.7,62.6,10.9z"/>
<path class="st2" d="M62.6,2.2L62.6,2.2c0,1.2-1,2.2-2.2,2.2H47.7c-1.2,0-2.2-1-2.2-2.2l0,0c0-1.2,1-2.2,2.2-2.2h12.7
	C61.6,0,62.6,1,62.6,2.2z"/>
<path class="st1" d="M6.4,46.1L6.4,46.1c-1.2,0.3-2.3-0.5-2.6-1.6L0.9,32.2c-0.3-1.2,0.5-2.3,1.6-2.6l0,0c1.2-0.3,2.3,0.5,2.6,1.6
	L8,43.5C8.3,44.6,7.6,45.8,6.4,46.1z"/>
<path class="st1" d="M88.7,45.9L88.7,45.9c1.2,0.3,2.3-0.5,2.6-1.6l2.8-12.2c0.3-1.2-0.5-2.3-1.6-2.6l0,0c-1.2-0.3-2.3,0.5-2.6,1.6
	L87,43.3C86.8,44.5,87.5,45.6,88.7,45.9z"/>
<path class="st1" d="M89.2,54.1L89.2,54.1c-1.2,0-2.2-1-2.2-2.2v-8.2c0-1.2,1-2.2,2.2-2.2l0,0c1.2,0,2.2,1,2.2,2.2V52
	C91.4,53.2,90.4,54.1,89.2,54.1z"/>
<path class="st1" d="M89.6,100L89.6,100c-1.2,0-2.2-1-2.2-2.2V85.4c0-1.2,1-2.2,2.2-2.2l0,0c1.2,0,2.2,1,2.2,2.2v12.4
	C91.8,99,90.8,100,89.6,100z"/>
<path class="st1" d="M85.2,87.3L85.2,87.3c-1.2,0-2.2-1-2.2-2.2v-33c0-1.2,1-2.2,2.2-2.2l0,0c1.2,0,2.2,1,2.2,2.2v33
	C87.4,86.3,86.4,87.3,85.2,87.3z"/>
<path class="st1" d="M47.7,100L47.7,100c-1.2,0-2.2-1-2.2-2.2v-33c0-1.2,1-2.2,2.2-2.2l0,0c1.2,0,2.2,1,2.2,2.2v33
	C49.9,99,48.9,100,47.7,100z"/>
<path class="st1" d="M31.3,100L31.3,100c-1.2,0-2.2-1-2.2-2.2V52.2c0-1.2,1-2.2,2.2-2.2l0,0c1.2,0,2.2,1,2.2,2.2v45.6
	C33.4,99,32.5,100,31.3,100z"/>
<path class="st1" d="M4.1,52L4.1,52c0-1.2,1-2.2,2.2-2.2h82.9c1.2,0,2.2,1,2.2,2.2l0,0c0,1.2-1,2.2-2.2,2.2h-83
	C5,54.1,4.1,53.2,4.1,52z"/>
<path class="st1" d="M4.1,43.8L4.1,43.8c0-1.2,1-2.2,2.2-2.2h82.9c1.2,0,2.2,1,2.2,2.2l0,0c0,1.2-1,2.2-2.2,2.2h-83
	C5,46,4.1,45,4.1,43.8z"/>
<path class="st1" d="M0.9,31.7L0.9,31.7c0-1.2,1-2.2,2.2-2.2h28.1c1.2,0,2.2,1,2.2,2.2l0,0c0,1.2-1,2.2-2.2,2.2H3.1
	C1.9,33.8,0.9,32.9,0.9,31.7z"/>
<path class="st1" d="M60.8,31.5L60.8,31.5c0-1.2,1-2.2,2.2-2.2h29c1.2,0,2.2,1,2.2,2.2l0,0c0,1.2-1,2.2-2.2,2.2H63
	C61.8,33.7,60.8,32.7,60.8,31.5z"/>
<path class="st1" d="M4.1,85.1L4.1,85.1c0-1.2,1-2.2,2.2-2.2h25c1.2,0,2.2,1,2.2,2.2l0,0c0,1.2-1,2.2-2.2,2.2h-25
	C5,87.3,4.1,86.3,4.1,85.1z"/>
<path class="st1" d="M63.8,85.4L63.8,85.4c0-1.2,1-2.2,2.2-2.2h23.6c1.2,0,2.2,1,2.2,2.2l0,0c0,1.2-1,2.2-2.2,2.2H66
	C64.8,87.6,63.8,86.6,63.8,85.4z"/>
<path class="st1" d="M29.1,64.4L29.1,64.4c0-1.2,1-2.2,2.2-2.2h33.4c1.2,0,2.2,1,2.2,2.2l0,0c0,1.2-1,2.2-2.2,2.2H31.3
	C30,66.6,29.1,65.6,29.1,64.4z"/>
<path class="st1" d="M0,97.8L0,97.8c0-1.2,1-2.2,2.2-2.2H94c1.2,0,2.2,1,2.2,2.2l0,0c0,1.2-1,2.2-2.2,2.2H2.2C1,100,0,99,0,97.8z"/>
<path class="st1" d="M64.6,100L64.6,100c-1.2,0-2.2-1-2.2-2.2V52.2c0-1.2,1-2.2,2.2-2.2l0,0c1.2,0,2.2,1,2.2,2.2v45.6
	C66.8,99,65.8,100,64.6,100z"/>
</svg>
