<?xml version="1.0" encoding="utf-8"?>
<!-- Generator: Adobe Illustrator 22.0.1, SVG Export Plug-In . SVG Version: 6.00 Build 0)  -->
<svg version="1.1" id="Слой_1" xmlns="http://www.w3.org/2000/svg" xmlns:xlink="http://www.w3.org/1999/xlink" x="0px" y="0px"
	 viewBox="0 0 103.6 100" style="enable-background:new 0 0 103.6 100;" xml:space="preserve">
<style type="text/css">
	.st0{fill:#0288D1;}
	.st1{fill:#FFA700;}
</style>
<path class="st0" d="M101.1,100L101.1,100c-1.4,0-2.5-1.1-2.5-2.5V45.8c0-1.4,1.1-2.5,2.5-2.5h0c1.4,0,2.5,1.1,2.5,2.5v51.7
	C103.6,98.9,102.5,100,101.1,100z"/>
<path class="st0" d="M88.2,52.3L88.2,52.3c-1.4,0-2.5-1.1-2.5-2.5V37.1c0-1.4,1.1-2.5,2.5-2.5h0c1.4,0,2.5,1.1,2.5,2.5v12.7
	C90.7,51.2,89.5,52.3,88.2,52.3z"/>
<path class="st0" d="M2.5,69.2L2.5,69.2c-1.4,0-2.5-1.1-2.5-2.5L0,3c0-1.4,1.1-2.5,2.5-2.5h0C3.9,0.5,5,1.6,5,3v63.7
	C5,68.1,3.9,69.2,2.5,69.2z"/>
<path class="st0" d="M41.7,85.4L41.7,85.4c-1.4,0-2.5-1.1-2.5-2.5V67.8c0-1.4,1.1-2.5,2.5-2.5h0c1.4,0,2.5,1.1,2.5,2.5v15.1
	C44.2,84.3,43.1,85.4,41.7,85.4z"/>
<path class="st0" d="M31,95.2L31,95.2c-1-0.9-1.1-2.5-0.2-3.5l9-10.4c0.9-1,2.5-1.1,3.5-0.2h0c1,0.9,1.1,2.5,0.2,3.5l-9,10.4
	C33.6,96,32.1,96.1,31,95.2z"/>
<path class="st1" d="M10.3,35L10.3,35c-1-0.9-1.1-2.5-0.2-3.5l9-10.4c0.9-1,2.5-1.1,3.5-0.2l0,0c1,0.9,1.1,2.5,0.2,3.5l-9,10.4
	C12.9,35.8,11.3,35.9,10.3,35z"/>
<path class="st1" d="M49.1,25.8L49.1,25.8c-1-0.9-1.1-2.5-0.2-3.5l6-6.9c0.9-1,2.5-1.1,3.5-0.2l0,0c1,0.9,1.1,2.5,0.2,3.5l-6,6.9
	C51.7,26.6,50.1,26.7,49.1,25.8z"/>
<path class="st1" d="M39.7,14.4L39.7,14.4c0.9-1,2.5-1.1,3.5-0.2l9.1,7.9c1,0.9,1.1,2.5,0.2,3.5l0,0c-0.9,1-2.5,1.1-3.5,0.2L40,17.9
	C38.9,17,38.8,15.4,39.7,14.4z"/>
<path class="st1" d="M18.6,41L18.6,41c0.9-1,2.5-1.1,3.5-0.2l6.4,5.5c1,0.9,1.1,2.5,0.2,3.5l0,0c-0.9,1-2.5,1.1-3.5,0.2l-6.4-5.5
	C17.8,43.6,17.7,42.1,18.6,41z"/>
<path class="st1" d="M19.1,21.1L19.1,21.1c0.9-1,2.5-1.1,3.5-0.2l8.4,7.3c1,0.9,1.1,2.5,0.2,3.5l0,0c-0.9,1-2.5,1.1-3.5,0.2
	l-8.4-7.3C18.3,23.7,18.2,22.2,19.1,21.1z"/>
<path class="st1" d="M25.3,50.1L25.3,50.1c-1-0.9-1.1-2.5-0.2-3.5l8.2-9.5c0.9-1,2.5-1.1,3.5-0.2l0,0c1,0.9,1.1,2.5,0.2,3.5
	l-8.2,9.5C27.9,50.9,26.3,51,25.3,50.1z"/>
<path class="st1" d="M27.8,31.9L27.8,31.9c-1-0.9-1.1-2.5-0.2-3.5l12.2-14c0.9-1,2.5-1.1,3.5-0.2l0,0c1,0.9,1.1,2.5,0.2,3.5
	l-12.2,14C30.4,32.7,28.8,32.8,27.8,31.9z"/>
<path class="st1" d="M9.8,54.9L9.8,54.9c-1-0.9-1.1-2.5-0.2-3.5l9-10.4c0.9-1,2.5-1.1,3.5-0.2l0,0c1,0.9,1.1,2.5,0.2,3.5l-9,10.4
	C12.5,55.7,10.9,55.8,9.8,54.9z"/>
<path class="st0" d="M52.4,95.2L52.4,95.2c1-0.9,1.1-2.5,0.2-3.5l-9-10.4c-0.9-1-2.5-1.1-3.5-0.2h0c-1,0.9-1.1,2.5-0.2,3.5l9,10.4
	C49.7,96,51.3,96.1,52.4,95.2z"/>
<path class="st0" d="M0,3L0,3c0-1.4,1.1-2.5,2.5-2.5h65.1c1.4,0,2.5,1.1,2.5,2.5v0c0,1.4-1.1,2.5-2.5,2.5H2.5C1.1,5.5,0,4.4,0,3z"/>
<path class="st0" d="M0,66.7L0,66.7c0-1.4,1.1-2.5,2.5-2.5h65.2c1.4,0,2.5,1.1,2.5,2.5v0c0,1.4-1.1,2.5-2.5,2.5H2.5
	C1.1,69.2,0,68.1,0,66.7z"/>
<path class="st0" d="M96.7,21.6L96.7,21.6c-1.4,0-2.5-1.1-2.5-2.5V7.5c0-1.4,1.1-2.5,2.5-2.5h0c1.4,0,2.5,1.1,2.5,2.5v11.7
	C99.2,20.5,98.1,21.6,96.7,21.6z"/>
<path class="st0" d="M97.9,14.3L97.9,14.3c-0.4,1.3-1.8,2-3.2,1.6l-13.5-4.5c-1.3-0.4-2-1.8-1.6-3.2l0,0c0.4-1.3,1.8-2,3.2-1.6
	l13.5,4.5C97.6,11.6,98.3,13,97.9,14.3z"/>
<path class="st0" d="M79.6,21.6L79.6,21.6c-1.4,0-2.5-1.1-2.5-2.5V7.5c0-1.4,1.1-2.5,2.5-2.5h0c1.4,0,2.5,1.1,2.5,2.5v11.7
	C82.1,20.5,81,21.6,79.6,21.6z"/>
<path class="st0" d="M77.5,8.6L77.5,8.6c-0.7-1.2-0.3-2.7,0.9-3.4l8.5-4.9c1.2-0.7,2.7-0.3,3.4,0.9v0C91,2.4,90.6,4,89.4,4.7
	l-8.5,4.9C79.7,10.2,78.2,9.8,77.5,8.6z"/>
<path class="st0" d="M98.9,8.6L98.9,8.6c0.7-1.2,0.3-2.7-0.9-3.4l-8.4-4.9c-1.2-0.7-2.7-0.3-3.4,0.9v0c-0.7,1.2-0.3,2.7,0.9,3.4
	l8.4,4.9C96.7,10.2,98.2,9.8,98.9,8.6z"/>
<path class="st0" d="M77.5,17.9L77.5,17.9c-0.7,1.2-0.3,2.7,0.9,3.4l8.5,4.9c1.2,0.7,2.7,0.3,3.4-0.9v0c0.7-1.2,0.3-2.7-0.9-3.4
	L80.9,17C79.7,16.3,78.1,16.7,77.5,17.9z"/>
<path class="st0" d="M98.9,17.9L98.9,17.9c0.7,1.2,0.3,2.7-0.9,3.4l-8.4,4.9c-1.2,0.7-2.7,0.3-3.4-0.9v0c-0.7-1.2-0.3-2.7,0.9-3.4
	l8.4-4.9C96.7,16.3,98.2,16.7,98.9,17.9z"/>
<path class="st0" d="M103.4,31.9L103.4,31.9c-0.3,1.3-1.6,2.2-3,1.9L87,30.8c-1.3-0.3-2.2-1.6-1.9-3l0,0c0.3-1.3,1.6-2.2,3-1.9
	l13.4,2.9C102.8,29.2,103.7,30.5,103.4,31.9z"/>
<path class="st0" d="M76.8,51.8L76.8,51.8c-0.8,1.1-2.4,1.3-3.5,0.5L50.2,34.8c-1.1-0.8-1.3-2.4-0.5-3.5l0,0
	c0.8-1.1,2.4-1.3,3.5-0.5l23.2,17.5C77.4,49.2,77.6,50.7,76.8,51.8z"/>
<path class="st0" d="M89.8,28L89.8,28c0.2,1.4-0.8,2.6-2.2,2.8L52,35.4c-1.4,0.2-2.6-0.8-2.8-2.2v0c-0.2-1.4,0.8-2.6,2.2-2.8
	L87,25.9C88.4,25.7,89.6,26.7,89.8,28z"/>
<path class="st0" d="M72.9,62.8L72.9,62.8c0-1.4,1.1-2.5,2.5-2.5H100c1.4,0,2.5,1.1,2.5,2.5v0c0,1.4-1.1,2.5-2.5,2.5H75.4
	C74,65.3,72.9,64.2,72.9,62.8z"/>
<path class="st0" d="M74.1,99.7L74.1,99.7c-1.2-0.6-1.7-2.1-1.1-3.4l12.9-25.5c0.6-1.2,2.1-1.7,3.4-1.1l0,0c1.2,0.6,1.7,2.1,1.1,3.4
	L77.4,98.6C76.8,99.9,75.3,100.4,74.1,99.7z"/>
<path class="st0" d="M102.3,99.7L102.3,99.7c1.2-0.6,1.7-2.1,1.1-3.4L90.6,71.2c-0.6-1.2-2.1-1.7-3.4-1.1l0,0
	c-1.2,0.6-1.7,2.1-1.1,3.4l12.8,25.2C99.5,99.9,101,100.4,102.3,99.7z"/>
<path class="st0" d="M75.2,100L75.2,100c-1.4,0-2.5-1.1-2.5-2.5V45.8c0-1.4,1.1-2.5,2.5-2.5l0,0c1.4,0,2.5,1.1,2.5,2.5v51.7
	C77.7,98.9,76.6,100,75.2,100z"/>
</svg>
