<?xml version="1.0" encoding="utf-8"?>
<!-- Generator: Adobe Illustrator 22.0.1, SVG Export Plug-In . SVG Version: 6.00 Build 0)  -->
<svg version="1.1" id="Слой_1" xmlns="http://www.w3.org/2000/svg" xmlns:xlink="http://www.w3.org/1999/xlink" x="0px" y="0px"
	 viewBox="0 0 104.6 100" style="enable-background:new 0 0 104.6 100;" xml:space="preserve">
<style type="text/css">
	.st0{fill:#0288D1;}
	.st1{fill:#FFA700;}
</style>
<path class="st0" d="M102.1,100L102.1,100c-1.4,0-2.5-1.1-2.5-2.5V45.8c0-1.4,1.1-2.5,2.5-2.5l0,0c1.4,0,2.5,1.1,2.5,2.5v51.7
	C104.6,98.9,103.5,100,102.1,100z"/>
<path class="st0" d="M89.1,52.3L89.1,52.3c-1.4,0-2.5-1.1-2.5-2.5V37.1c0-1.4,1.1-2.5,2.5-2.5h0c1.4,0,2.5,1.1,2.5,2.5v12.7
	C91.6,51.2,90.5,52.3,89.1,52.3z"/>
<path class="st0" d="M63,22L63,22c-1.4,0-2.5-1.1-2.5-2.5v-8.3c0-1.4,1.1-2.5,2.5-2.5h0c1.4,0,2.5,1.1,2.5,2.5v8.3
	C65.5,20.9,64.4,22,63,22z"/>
<path class="st0" d="M32.8,65.1L32.8,65.1c-1.4,0-2.5-1.1-2.5-2.5v-8.3c0-1.4,1.1-2.5,2.5-2.5h0c1.4,0,2.5,1.1,2.5,2.5v8.3
	C35.3,64,34.1,65.1,32.8,65.1z"/>
<path class="st1" d="M32.8,48.2L32.8,48.2c-1.4,0-2.5-1.1-2.5-2.5V42c0-1.4,1.1-2.5,2.5-2.5h0c1.4,0,2.5,1.1,2.5,2.5v3.7
	C35.3,47.1,34.1,48.2,32.8,48.2z"/>
<path class="st1" d="M32.8,25.9L32.8,25.9c-1.4,0-2.5-1.1-2.5-2.5v-3.7c0-1.4,1.1-2.5,2.5-2.5h0c1.4,0,2.5,1.1,2.5,2.5v3.7
	C35.3,24.8,34.1,25.9,32.8,25.9z"/>
<path class="st0" d="M21.9,62.6L21.9,62.6c0-1.4,1.1-2.5,2.5-2.5h17.3c1.4,0,2.5,1.1,2.5,2.5v0c0,1.4-1.1,2.5-2.5,2.5H24.4
	C23,65.1,21.9,64,21.9,62.6z"/>
<path class="st0" d="M97.7,21.6L97.7,21.6c-1.4,0-2.5-1.1-2.5-2.5V7.5c0-1.4,1.1-2.5,2.5-2.5l0,0c1.4,0,2.5,1.1,2.5,2.5v11.7
	C100.2,20.5,99.1,21.6,97.7,21.6z"/>
<path class="st0" d="M98.8,14.3L98.8,14.3c-0.4,1.3-1.8,2-3.2,1.6l-13.5-4.5c-1.3-0.4-2-1.8-1.6-3.2v0c0.4-1.3,1.8-2,3.2-1.6
	l13.5,4.5C98.6,11.6,99.3,13,98.8,14.3z"/>
<path class="st0" d="M80.6,21.6L80.6,21.6c-1.4,0-2.5-1.1-2.5-2.5V7.5c0-1.4,1.1-2.5,2.5-2.5h0c1.4,0,2.5,1.1,2.5,2.5v11.7
	C83.1,20.5,82,21.6,80.6,21.6z"/>
<path class="st0" d="M78.5,8.6L78.5,8.6c-0.7-1.2-0.3-2.7,0.9-3.4l8.5-4.9c1.2-0.7,2.7-0.3,3.4,0.9l0,0c0.7,1.2,0.3,2.7-0.9,3.4
	l-8.5,4.9C80.7,10.2,79.1,9.8,78.5,8.6z"/>
<path class="st0" d="M99.9,8.6L99.9,8.6c0.7-1.2,0.3-2.7-0.9-3.4l-8.4-4.9c-1.2-0.7-2.7-0.3-3.4,0.9l0,0C86.4,2.5,86.8,4,88,4.7
	l8.4,4.9C97.6,10.2,99.2,9.8,99.9,8.6z"/>
<path class="st0" d="M78.4,17.9L78.4,17.9c-0.7,1.2-0.3,2.7,0.9,3.4l8.5,4.9c1.2,0.7,2.7,0.3,3.4-0.9l0,0c0.7-1.2,0.3-2.7-0.9-3.4
	L81.8,17C80.7,16.3,79.1,16.7,78.4,17.9z"/>
<path class="st0" d="M99.8,17.9L99.8,17.9c0.7,1.2,0.3,2.7-0.9,3.4l-8.4,4.9c-1.2,0.7-2.7,0.3-3.4-0.9l0,0c-0.7-1.2-0.3-2.7,0.9-3.4
	l8.4-4.9C97.6,16.3,99.2,16.7,99.8,17.9z"/>
<path class="st0" d="M104.3,31.9L104.3,31.9c-0.3,1.3-1.6,2.2-3,1.9L88,30.8c-1.3-0.3-2.2-1.6-1.9-3v0c0.3-1.3,1.6-2.2,3-1.9
	l13.4,2.9C103.8,29.2,104.6,30.5,104.3,31.9z"/>
<path class="st0" d="M77.8,51.8L77.8,51.8c-0.8,1.1-2.4,1.3-3.5,0.5L51.1,34.8c-1.1-0.8-1.3-2.4-0.5-3.5l0,0
	c0.8-1.1,2.4-1.3,3.5-0.5l23.2,17.5C78.4,49.2,78.6,50.7,77.8,51.8z"/>
<path class="st0" d="M90.8,28L90.8,28c0.2,1.4-0.8,2.6-2.2,2.8L53,35.4c-1.4,0.2-2.6-0.8-2.8-2.2v0c-0.2-1.4,0.8-2.6,2.2-2.8
	L88,25.9C89.4,25.7,90.6,26.7,90.8,28z"/>
<path class="st0" d="M73.9,62.8L73.9,62.8c0-1.4,1.1-2.5,2.5-2.5H101c1.4,0,2.5,1.1,2.5,2.5v0c0,1.4-1.1,2.5-2.5,2.5H76.4
	C75,65.3,73.9,64.2,73.9,62.8z"/>
<path class="st0" d="M75.1,99.7L75.1,99.7c-1.2-0.6-1.7-2.1-1.1-3.4l12.9-25.5c0.6-1.2,2.1-1.7,3.4-1.1h0c1.2,0.6,1.7,2.1,1.1,3.4
	L78.4,98.6C77.8,99.9,76.3,100.4,75.1,99.7z"/>
<path class="st0" d="M103.2,99.7L103.2,99.7c1.2-0.6,1.7-2.1,1.1-3.4L91.6,71.2c-0.6-1.2-2.1-1.7-3.4-1.1l0,0
	c-1.2,0.6-1.7,2.1-1.1,3.4l12.8,25.2C100.5,99.9,102,100.4,103.2,99.7z"/>
<path class="st0" d="M76.2,100L76.2,100c-1.4,0-2.5-1.1-2.5-2.5V45.8c0-1.4,1.1-2.5,2.5-2.5h0c1.4,0,2.5,1.1,2.5,2.5v51.7
	C78.7,98.9,77.6,100,76.2,100z"/>
<path class="st0" d="M2.5,56.6L2.5,56.6c-1.4,0-2.5-1.1-2.5-2.5l0-42.9c0-1.4,1.1-2.5,2.5-2.5h0C3.9,8.6,5,9.8,5,11.1v42.9
	C5,55.5,3.9,56.6,2.5,56.6z"/>
<path class="st0" d="M0,11.1L0,11.1c0-1.4,1.1-2.5,2.5-2.5H63c1.4,0,2.5,1.1,2.5,2.5v0c0,1.4-1.1,2.5-2.5,2.5H2.5
	C1.1,13.6,0,12.5,0,11.1z"/>
<path class="st0" d="M0,54.1L0,54.1c0-1.4,1.1-2.5,2.5-2.5H63c1.4,0,2.5,1.1,2.5,2.5v0c0,1.4-1.1,2.5-2.5,2.5H2.5
	C1.1,56.6,0,55.5,0,54.1z"/>
<g>
	<path class="st1" d="M24.5,38.8c0-0.9,0.2-1.6,0.7-2.1c0.5-0.5,1.2-0.8,2.2-0.8c0.4,0,0.8,0.1,1.1,0.2s0.6,0.3,0.9,0.6
		s0.5,0.4,0.7,0.6c0.2,0.2,0.5,0.4,0.9,0.6c0.3,0.2,0.7,0.2,1.2,0.2c0.9,0,1.6-0.2,2.1-0.5c0.4-0.3,0.7-0.7,0.7-1.1
		c0-0.2-0.1-0.4-0.3-0.5c-0.2-0.2-0.5-0.3-0.9-0.4c-0.4-0.1-0.8-0.3-1.3-0.4c-0.5-0.1-1-0.3-1.6-0.5c-0.6-0.2-1.1-0.4-1.7-0.6
		c-0.6-0.2-1.1-0.5-1.6-0.9s-0.9-0.8-1.3-1.2c-0.4-0.5-0.7-1-0.9-1.7c-0.2-0.7-0.3-1.4-0.3-2.2c0-1,0.2-2,0.5-2.9
		c0.3-0.9,0.8-1.6,1.5-2.3c0.7-0.7,1.5-1.2,2.6-1.5c1-0.4,2.2-0.6,3.6-0.6c1.1,0,2.2,0.2,3.2,0.5s1.8,0.8,2.4,1.3s1.1,1.1,1.4,1.7
		c0.3,0.6,0.5,1.2,0.5,1.8c0,0.9-0.2,1.6-0.7,2.1S38.6,29,37.6,29c-0.4,0-0.8-0.1-1.1-0.2c-0.3-0.1-0.6-0.3-0.8-0.6
		c-0.2-0.2-0.5-0.4-0.7-0.7c-0.2-0.2-0.5-0.4-0.8-0.5c-0.3-0.1-0.7-0.2-1-0.2c-0.6,0-1.1,0.1-1.4,0.4c-0.3,0.2-0.5,0.5-0.5,0.9
		c0,0.3,0.1,0.5,0.4,0.7c0.3,0.2,0.7,0.4,1.1,0.5c0.5,0.1,1,0.3,1.6,0.5c0.6,0.2,1.2,0.4,1.8,0.6c0.6,0.2,1.2,0.5,1.8,0.9
		c0.6,0.4,1.1,0.8,1.6,1.2c0.5,0.5,0.9,1,1.1,1.7c0.3,0.7,0.4,1.5,0.4,2.3c0,1-0.2,2-0.6,2.9c-0.4,0.9-0.9,1.7-1.7,2.4
		c-0.7,0.7-1.7,1.3-2.8,1.7c-1.2,0.4-2.5,0.6-3.9,0.6c-1.2,0-2.3-0.2-3.3-0.5c-1-0.3-1.8-0.8-2.5-1.3s-1.1-1.1-1.5-1.7
		C24.7,40,24.5,39.4,24.5,38.8z"/>
</g>
</svg>
