<?xml version="1.0" encoding="utf-8"?>
<!-- Generator: Adobe Illustrator 22.0.1, SVG Export Plug-In . SVG Version: 6.00 Build 0)  -->
<svg version="1.1" id="Слой_1" xmlns="http://www.w3.org/2000/svg" xmlns:xlink="http://www.w3.org/1999/xlink" x="0px" y="0px"
	 viewBox="0 0 114.6 100" style="enable-background:new 0 0 114.6 100;" xml:space="preserve">
<style type="text/css">
	.st0{fill:#0288D1;}
	.st1{fill:#FFA700;}
</style>
<path class="st0" d="M2.6,42.4L2.6,42.4c-1.4,0-2.6-1.2-2.6-2.6l0-22c0-1.4,1.2-2.6,2.6-2.6h0c1.4,0,2.6,1.2,2.6,2.6v22
	C5.2,41.2,4,42.4,2.6,42.4z"/>
<path class="st1" d="M57.1,59.6L57.1,59.6c-1.4,0-2.6-1.2-2.6-2.6v-5.5c0-1.4,1.2-2.6,2.6-2.6h0c1.4,0,2.6,1.2,2.6,2.6V57
	C59.8,58.4,58.6,59.6,57.1,59.6z"/>
<path class="st1" d="M58.7,72.8L58.7,72.8c-1.1,1.1-2.7,1.1-3.7,0.1l-9.7-9.7c-1-1-1-2.7,0-3.7l0,0c1-1,2.6-1,3.6,0l9.8,9.8
	C59.7,70.2,59.7,71.8,58.7,72.8z"/>
<path class="st1" d="M55,72.8L55,72.8c1,1,2.7,1,3.7,0L69,62.5c1-1,1-2.7,0-3.7v0c-1-1-2.7-1-3.7,0L55,69.2C54,70.2,54,71.8,55,72.8
	z"/>
<path class="st1" d="M44.6,42.6L44.6,42.6c0-1.4,1.2-2.6,2.6-2.6h20c1.4,0,2.6,1.2,2.6,2.6v0c0,1.4-1.2,2.6-2.6,2.6h-20
	C45.7,45.2,44.6,44,44.6,42.6z"/>
<path class="st0" d="M48,53.9L48,53.9c-0.4,1.4-1.9,2.2-3.3,1.7l-42.5-13c-1.4-0.4-2.2-1.9-1.7-3.3l0,0c0.4-1.4,1.9-2.2,3.3-1.7
	l42.5,13C47.6,51,48.4,52.5,48,53.9z"/>
<path class="st0" d="M65.4,53.4L65.4,53.4c0.4,1.4,1.9,2.2,3.3,1.7l44-13.5c1.4-0.4,2.2-1.9,1.7-3.3v0c-0.4-1.4-1.9-2.2-3.3-1.7
	l-44,13.5C65.8,50.6,65,52.1,65.4,53.4z"/>
<path class="st0" d="M112.1,41.8L112.1,41.8c-1.4,0-2.6-1.2-2.6-2.6V17.7c0-1.4,1.2-2.6,2.6-2.6h0c1.4,0,2.6,1.2,2.6,2.6v21.4
	C114.7,40.6,113.5,41.8,112.1,41.8z"/>
<path class="st0" d="M7.3,100L7.3,100c-1.4,0-2.6-1.2-2.6-2.6V42.2c0-1.4,1.2-2.6,2.6-2.6h0c1.4,0,2.6,1.2,2.6,2.6v55.2
	C9.9,98.8,8.8,100,7.3,100z"/>
<path class="st0" d="M106.1,100L106.1,100c-1.4,0-2.6-1.2-2.6-2.6V42.2c0-1.4,1.2-2.6,2.6-2.6h0c1.4,0,2.6,1.2,2.6,2.6v55.2
	C108.7,98.8,107.6,100,106.1,100z"/>
<path class="st0" d="M4.7,97.4L4.7,97.4c0-1.4,1.2-2.6,2.6-2.6h98.8c1.4,0,2.6,1.2,2.6,2.6l0,0c0,1.4-1.2,2.6-2.6,2.6H7.3
	C5.9,100,4.7,98.8,4.7,97.4z"/>
<path class="st0" d="M0,17.7L0,17.7c0-1.4,1.2-2.6,2.6-2.6h109.5c1.4,0,2.6,1.2,2.6,2.6v0c0,1.4-1.2,2.6-2.6,2.6H2.6
	C1.2,20.4,0,19.2,0,17.7z"/>
<path class="st0" d="M37.7,2.6L37.7,2.6c0-1.4,1.2-2.6,2.6-2.6l32.9,0c1.4,0,2.6,1.2,2.6,2.6v0c0,1.4-1.2,2.6-2.6,2.6H40.3
	C38.8,5.2,37.7,4,37.7,2.6z"/>
<path class="st0" d="M33.5,19.2L33.5,19.2c-1.3-0.5-2-2.1-1.4-3.4l5.8-14.2c0.5-1.3,2.1-2,3.4-1.4l0,0c1.3,0.5,2,2.1,1.4,3.4
	l-5.8,14.2C36.4,19.1,34.8,19.8,33.5,19.2z"/>
<path class="st0" d="M80,19.2L80,19.2c1.3-0.5,2-2.1,1.4-3.4L75.7,1.6c-0.5-1.3-2.1-2-3.4-1.4v0c-1.3,0.5-2,2.1-1.4,3.4l5.8,14.2
	C77.1,19.1,78.6,19.8,80,19.2z"/>
<path class="st1" d="M47.1,63.9L47.1,63.9c-1.4,0-2.6-1.2-2.6-2.6V42.6c0-1.4,1.2-2.6,2.6-2.6h0c1.4,0,2.6,1.2,2.6,2.6v18.7
	C49.7,62.7,48.6,63.9,47.1,63.9z"/>
<path class="st1" d="M67.2,63.2L67.2,63.2c-1.5,0-2.6-1.2-2.6-2.6V42.5c0-1.4,1.2-2.6,2.6-2.6h0.1c1.4,0,2.6,1.2,2.6,2.6v18.1
	C69.7,62.1,68.6,63.2,67.2,63.2z"/>
</svg>
