<?xml version="1.0" encoding="utf-8"?>
<!-- Generator: Adobe Illustrator 22.0.1, SVG Export Plug-In . SVG Version: 6.00 Build 0)  -->
<svg version="1.1" id="Слой_1" xmlns="http://www.w3.org/2000/svg" xmlns:xlink="http://www.w3.org/1999/xlink" x="0px" y="0px"
	 viewBox="0 0 100.3 100" style="enable-background:new 0 0 100.3 100;" xml:space="preserve">
<style type="text/css">
	.st0{fill:#0288D1;}
	.st1{fill:#FFA700;}
</style>
<path class="st0" d="M57.2,57.2H43c-1.1,0-2-0.9-2-2v0c0-1.1,0.9-2,2-2h14.2c1.1,0,2,0.9,2,2v0C59.2,56.3,58.3,57.2,57.2,57.2z"/>
<path class="st1" d="M47.6,98.7l-5.8-15.4c-0.4-1,0.1-2.2,1.2-2.6h0c1-0.4,2.2,0.1,2.6,1.2l5.8,15.4c0.4,1-0.1,2.2-1.2,2.6h0
	C49.1,100.3,48,99.7,47.6,98.7z"/>
<path class="st1" d="M47.6,70.9l-5.7,10.7c-0.5,1-0.1,2.2,0.8,2.7l0,0c1,0.5,2.2,0.1,2.7-0.8l5.7-10.7c0.5-1,0.1-2.2-0.8-2.7l0,0
	C49.3,69.6,48.1,69.9,47.6,70.9z"/>
<path class="st1" d="M51.4,98.7l5.8-15.4c0.4-1-0.1-2.2-1.2-2.6h0c-1-0.4-2.2,0.1-2.6,1.2l-5.8,15.4c-0.4,1,0.1,2.2,1.2,2.6h0
	C49.9,100.3,51,99.7,51.4,98.7z"/>
<path class="st1" d="M51.4,70.9l5.7,10.7c0.5,1,0.1,2.2-0.8,2.7l0,0c-1,0.5-2.2,0.1-2.7-0.8l-5.7-10.7c-0.5-1-0.1-2.2,0.8-2.7l0,0
	C49.7,69.6,50.9,69.9,51.4,70.9z"/>
<path class="st0" d="M40.4,51.3L32.2,56c-1,0.5-2.2,0.2-2.7-0.7l0,0c-0.5-1-0.2-2.2,0.7-2.7l8.2-4.7c1-0.5,2.2-0.2,2.7,0.7v0
	C41.6,49.5,41.3,50.8,40.4,51.3z"/>
<path class="st0" d="M44.2,65l-11.8,10c-0.8,0.7-2.1,0.6-2.8-0.2l0,0c-0.7-0.8-0.6-2.1,0.2-2.8l11.8-10c0.8-0.7,2.1-0.6,2.8,0.2l0,0
	C45.2,63,45.1,64.3,44.2,65z"/>
<path class="st0" d="M58.9,51.2l8.2,4.7c1,0.5,2.2,0.2,2.7-0.7v0c0.5-1,0.2-2.2-0.7-2.7l-8.2-4.7c-1-0.5-2.2-0.2-2.7,0.7v0
	C57.6,49.5,57.9,50.7,58.9,51.2z"/>
<path class="st0" d="M55,64.9l11.8,10c0.8,0.7,2.1,0.6,2.8-0.2l0,0c0.7-0.8,0.6-2.1-0.2-2.8l-11.8-10c-0.8-0.7-2.1-0.6-2.8,0.2l0,0
	C54.1,62.9,54.2,64.2,55,64.9z"/>
<path class="st0" d="M48.4,33.7l-6.1-7.9c-0.7-0.9-0.5-2.1,0.4-2.8l0,0c0.9-0.7,2.1-0.5,2.8,0.4l6.1,7.9c0.7,0.9,0.5,2.1-0.4,2.8h0
	C50.4,34.7,49.1,34.6,48.4,33.7z"/>
<path class="st0" d="M48.4,15.4l-6.1,7.9c-0.7,0.9-0.5,2.1,0.4,2.8l0,0c0.9,0.7,2.1,0.5,2.8-0.4l6.1-7.9c0.7-0.9,0.5-2.1-0.4-2.8
	l0,0C50.4,14.4,49.1,14.6,48.4,15.4z"/>
<path class="st0" d="M51.6,33.7l6.1-7.9c0.7-0.9,0.5-2.1-0.4-2.8l0,0c-0.9-0.7-2.1-0.5-2.8,0.4l-6.1,7.9c-0.7,0.9-0.5,2.1,0.4,2.8h0
	C49.7,34.7,51,34.6,51.6,33.7z"/>
<path class="st0" d="M51.6,15.4l6.1,7.9c0.7,0.9,0.5,2.1-0.4,2.8l0,0c-0.9,0.7-2.1,0.5-2.8-0.4l-6.1-7.9c-0.7-0.9-0.5-2.1,0.4-2.8
	l0,0C49.7,14.4,51,14.6,51.6,15.4z"/>
<path class="st0" d="M41.1,63.8L32.6,16c-0.2-1.1,0.5-2.1,1.6-2.3h0c1.1-0.2,2.1,0.5,2.3,1.6L45,63.2c0.2,1.1-0.5,2.1-1.6,2.3h0
	C42.3,65.7,41.3,64.9,41.1,63.8z"/>
<path class="st0" d="M56.7,65.5H43.1c-1.1,0-2-0.9-2-2v0c0-1.1,0.9-2,2-2h13.6c1.1,0,2,0.9,2,2v0C58.7,64.6,57.8,65.5,56.7,65.5z"/>
<path class="st0" d="M23.3,77.4h-9.9c-1.1,0-2-0.9-2-2l0,0c0-1.1,0.9-2,2-2h9.9c1.1,0,2,0.9,2,2l0,0C25.3,76.5,24.4,77.4,23.3,77.4z
	"/>
<path class="st0" d="M36.1,89.9h-11c-1.1,0-2-0.9-2-2v0c0-1.1,0.9-2,2-2h11c1.1,0,2,0.9,2,2v0C38.1,89,37.2,89.9,36.1,89.9z"/>
<path class="st0" d="M15.2,76.3l-4.6,8.7c-0.5,1-1.7,1.3-2.7,0.8h0c-1-0.5-1.3-1.7-0.8-2.7l4.6-8.7c0.5-1,1.7-1.3,2.7-0.8h0
	C15.3,74.2,15.7,75.4,15.2,76.3z"/>
<path class="st0" d="M26.5,89.3l-8.2,8.2c-0.8,0.8-2,0.8-2.8,0h0c-0.8-0.8-0.8-2,0-2.8l8.2-8.2c0.8-0.8,2-0.8,2.8,0h0
	C27.3,87.3,27.3,88.6,26.5,89.3z"/>
<path class="st0" d="M8.8,86.2H2c-1.1,0-2-0.9-2-2l0,0c0-1.1,0.9-2,2-2h6.8c1.1,0,2,0.9,2,2l0,0C10.8,85.3,9.9,86.2,8.8,86.2z"/>
<path class="st0" d="M16.6,98.2H6.2c-1.1,0-2-0.9-2-2l0,0c0-1.1,0.9-2,2-2h10.5c1.1,0,2,0.9,2,2l0,0C18.6,97.3,17.7,98.2,16.6,98.2z
	"/>
<path class="st0" d="M77,77.5h9.9c1.1,0,2-0.9,2-2v0c0-1.1-0.9-2-2-2H77c-1.1,0-2,0.9-2,2v0C75,76.6,75.9,77.5,77,77.5z"/>
<path class="st0" d="M64.2,90.1h11c1.1,0,2-0.9,2-2v0c0-1.1-0.9-2-2-2h-11c-1.1,0-2,0.9-2,2v0C62.2,89.2,63.1,90.1,64.2,90.1z"/>
<path class="st0" d="M85.1,76.5l4.6,8.7c0.5,1,1.7,1.3,2.7,0.8l0,0c1-0.5,1.3-1.7,0.8-2.7l-4.6-8.7c-0.5-1-1.7-1.3-2.7-0.8l0,0
	C85,74.3,84.6,75.5,85.1,76.5z"/>
<path class="st0" d="M73.8,89.5l8.2,8.2c0.8,0.8,2,0.8,2.8,0l0,0c0.8-0.8,0.8-2,0-2.8l-8.2-8.2c-0.8-0.8-2-0.8-2.8,0l0,0
	C73,87.4,73,88.7,73.8,89.5z"/>
<path class="st0" d="M91.4,86.3h6.8c1.1,0,2-0.9,2-2v0c0-1.1-0.9-2-2-2h-6.8c-1.1,0-2,0.9-2,2v0C89.4,85.4,90.3,86.3,91.4,86.3z"/>
<path class="st0" d="M83.6,98.4h10.5c1.1,0,2-0.9,2-2l0,0c0-1.1-0.9-2-2-2H83.6c-1.1,0-2,0.9-2,2l0,0C81.6,97.5,82.5,98.4,83.6,98.4
	z"/>
<path class="st0" d="M33.1,54.3v19.2c0,1.1-0.9,2-2,2h0c-1.1,0-2-0.9-2-2V54.3c0-1.1,0.9-2,2-2h0C32.3,52.3,33.1,53.2,33.1,54.3z"/>
<path class="st0" d="M51.3,3.5L35.9,17.2c-0.8,0.7-2.1,0.7-2.8-0.2v0c-0.7-0.8-0.7-2.1,0.2-2.8L48.6,0.5c0.8-0.7,2.1-0.7,2.8,0.2
	l0,0C52.2,1.5,52.1,2.8,51.3,3.5z"/>
<path class="st0" d="M58.7,63.8L67.2,16c0.2-1.1-0.5-2.1-1.6-2.3h0c-1.1-0.2-2.1,0.5-2.3,1.6l-8.5,47.8c-0.2,1.1,0.5,2.1,1.6,2.3h0
	C57.5,65.7,58.5,64.9,58.7,63.8z"/>
<path class="st0" d="M48.5,3.5l15.4,13.7c0.8,0.7,2.1,0.7,2.8-0.2l0,0c0.7-0.8,0.7-2.1-0.2-2.8L51.2,0.5c-0.8-0.7-2.1-0.7-2.8,0.2
	l0,0C47.7,1.5,47.7,2.7,48.5,3.5z"/>
<path class="st0" d="M70.1,54.3v19.2c0,1.1-0.9,2-2,2l0,0c-1.1,0-2-0.9-2-2V54.3c0-1.1,0.9-2,2-2l0,0C69.2,52.3,70.1,53.2,70.1,54.3
	z"/>
</svg>
