<?xml version="1.0" encoding="utf-8"?>
<!-- Generator: Adobe Illustrator 22.0.1, SVG Export Plug-In . SVG Version: 6.00 Build 0)  -->
<svg version="1.1" id="Слой_1" xmlns="http://www.w3.org/2000/svg" xmlns:xlink="http://www.w3.org/1999/xlink" x="0px" y="0px"
	 viewBox="0 0 96.6 100" style="enable-background:new 0 0 96.6 100;" xml:space="preserve">
<style type="text/css">
	.st0{fill:#0288D1;}
	.st1{fill:#FFA700;}
</style>
<path class="st0" d="M30.9,60.2L30.9,60.2c0-1.2,1-2.3,2.3-2.3h30.3c1.2,0,2.3,1,2.3,2.3l0,0c0,1.2-1,2.3-2.3,2.3H33.1
	C31.9,62.5,30.9,61.4,30.9,60.2z"/>
<path class="st0" d="M30.9,77.3L30.9,77.3c0-1.2,1-2.3,2.3-2.3h31.1c1.2,0,2.3,1,2.3,2.3l0,0c0,1.2-1,2.3-2.3,2.3H33.2
	C31.9,79.6,30.9,78.5,30.9,77.3z"/>
<path class="st0" d="M34.1,85.5L34.1,85.5c0-1.2,1-2.3,2.3-2.3h23.9c1.2,0,2.3,1,2.3,2.3l0,0c0,1.2-1,2.3-2.3,2.3H36.4
	C35.2,87.7,34.1,86.7,34.1,85.5z"/>
<path class="st0" d="M17.8,60.8L17.8,60.8c0.9-0.8,2.3-0.8,3.2,0.1l13.4,14.6c0.8,0.9,0.8,2.3-0.1,3.2l0,0c-0.9,0.8-2.3,0.8-3.2-0.1
	L17.7,64C16.8,63.1,16.9,61.6,17.8,60.8z"/>
<path class="st0" d="M17.5,39.5L17.5,39.5c0.7,1,2.1,1.3,3.1,0.6l28.8-19.3c1-0.7,1.3-2.1,0.6-3.1l0,0c-0.7-1-2.1-1.3-3.1-0.6
	L18.1,36.4C17,37.1,16.8,38.5,17.5,39.5z"/>
<path class="st0" d="M37.8,93.7L37.8,93.7c0-1.2,1-2.3,2.3-2.3h17.1c1.2,0,2.3,1,2.3,2.3l0,0c0,1.2-1,2.3-2.3,2.3H40
	C38.8,95.9,37.8,94.9,37.8,93.7z"/>
<path class="st0" d="M36.4,87.7L36.4,87.7c-1.2,0-2.3-1-2.3-2.3v-8.2c0-1.2,1-2.3,2.3-2.3l0,0c1.2,0,2.3,1,2.3,2.3v8.2
	C38.7,86.7,37.7,87.7,36.4,87.7z"/>
<path class="st0" d="M40,95.9L40,95.9c-1.2,0-2.3-1-2.3-2.3v-8.2c0-1.2,1-2.3,2.3-2.3l0,0c1.2,0,2.3,1,2.3,2.3v8.2
	C42.3,94.9,41.3,95.9,40,95.9z"/>
<path class="st0" d="M57.1,95.9L57.1,95.9c-1.2,0-2.3-1-2.3-2.3v-8.2c0-1.2,1-2.3,2.3-2.3l0,0c1.2,0,2.3,1,2.3,2.3v8.2
	C59.4,94.9,58.3,95.9,57.1,95.9z"/>
<path class="st1" d="M48.3,12.7L48.3,12.7c-1.2,0-2.3-1-2.3-2.3V2.3C46,1.1,47,0,48.3,0l0,0c1.2,0,2.3,1,2.3,2.3v8.2
	C50.6,11.7,49.6,12.7,48.3,12.7z"/>
<path class="st1" d="M18.1,21.9L18.1,21.9c-0.9,0.9-2.3,0.9-3.2,0l-5.8-5.8c-0.9-0.9-0.9-2.3,0-3.2l0,0c0.9-0.9,2.3-0.9,3.2,0
	l5.8,5.8C19,19.6,19,21,18.1,21.9z"/>
<path class="st1" d="M12.7,48.4L12.7,48.4c0,1.2-1,2.3-2.3,2.3H2.3c-1.2,0-2.3-1-2.3-2.3l0,0c0-1.2,1-2.3,2.3-2.3h8.2
	C11.7,46.1,12.7,47.1,12.7,48.4z"/>
<path class="st1" d="M78.6,21.3L78.6,21.3c0.9,0.9,2.3,0.9,3.2,0l5.8-5.8c0.9-0.9,0.9-2.3,0-3.2l0,0c-0.9-0.9-2.3-0.9-3.2,0
	l-5.8,5.8C77.7,19,77.7,20.4,78.6,21.3z"/>
<path class="st1" d="M83.9,47.8L83.9,47.8c0,1.2,1,2.3,2.3,2.3h8.2c1.2,0,2.3-1,2.3-2.3l0,0c0-1.2-1-2.3-2.3-2.3h-8.2
	C84.9,45.5,83.9,46.5,83.9,47.8z"/>
<path class="st0" d="M48.6,100L48.6,100c-1.2,0-2.3-1-2.3-2.3v-3.6c0-1.2,1-2.3,2.3-2.3l0,0c1.2,0,2.3,1,2.3,2.3v3.6
	C50.8,99,49.8,100,48.6,100z"/>
<path class="st0" d="M60.3,87.7L60.3,87.7c-1.2,0-2.3-1-2.3-2.3v-8.2c0-1.2,1-2.3,2.3-2.3l0,0c1.2,0,2.3,1,2.3,2.3v8.2
	C62.6,86.7,61.5,87.7,60.3,87.7z"/>
<path class="st0" d="M50.8,48.4L50.8,48.4c0-1.2,1-2.3,2.3-2.3h13.8c1.2,0,2.3,1,2.3,2.3l0,0c0,1.2-1,2.3-2.3,2.3H53.1
	C51.8,50.6,50.8,49.6,50.8,48.4z"/>
<path class="st0" d="M64.4,62.5L64.4,62.5c-1.2-0.2-2-1.4-1.8-2.6L64.8,48c0.2-1.2,1.4-2,2.6-1.8l0,0c1.2,0.2,2,1.4,1.8,2.6L67,60.7
	C66.8,61.9,65.6,62.7,64.4,62.5z"/>
<path class="st0" d="M19.3,64.4L19.3,64.4c-1.2,0-2.3-1-2.3-2.3V38.3c0-1.2,1-2.3,2.3-2.3l0,0c1.2,0,2.3,1,2.3,2.3v23.9
	C21.6,63.4,20.6,64.4,19.3,64.4z"/>
<path class="st0" d="M79.4,60.8L79.4,60.8c-0.9-0.8-2.3-0.8-3.2,0.1L62.8,75.5c-0.8,0.9-0.8,2.3,0.1,3.2l0,0
	c0.9,0.8,2.3,0.8,3.2-0.1L79.6,64C80.4,63.1,80.3,61.6,79.4,60.8z"/>
<path class="st0" d="M79.8,39.5L79.8,39.5c-0.7,1-2.1,1.3-3.1,0.6L47.9,20.8c-1-0.7-1.3-2.1-0.6-3.1l0,0c0.7-1,2.1-1.3,3.1-0.6
	l28.8,19.3C80.2,37.1,80.5,38.5,79.8,39.5z"/>
<path class="st0" d="M77.9,64.4L77.9,64.4c1.2,0,2.3-1,2.3-2.3V38.3c0-1.2-1-2.3-2.3-2.3l0,0c-1.2,0-2.3,1-2.3,2.3v23.9
	C75.6,63.4,76.6,64.4,77.9,64.4z"/>
<path class="st0" d="M53.1,78.8L53.1,78.8c-1.2,0-2.3-1-2.3-2.3V48.4c0-1.2,1-2.3,2.3-2.3l0,0c1.2,0,2.3,1,2.3,2.3v28.2
	C55.3,77.8,54.3,78.8,53.1,78.8z"/>
<path class="st0" d="M46.6,48.4L46.6,48.4c0-1.2-1-2.3-2.3-2.3H30.5c-1.2,0-2.3,1-2.3,2.3l0,0c0,1.2,1,2.3,2.3,2.3h13.8
	C45.6,50.6,46.6,49.6,46.6,48.4z"/>
<path class="st0" d="M33,62.5L33,62.5c1.2-0.2,2-1.4,1.8-2.6L32.6,48c-0.2-1.2-1.4-2-2.6-1.8l0,0c-1.2,0.2-2,1.4-1.8,2.6l2.2,11.9
	C30.6,61.9,31.8,62.7,33,62.5z"/>
<path class="st0" d="M44.3,78.8L44.3,78.8c1.2,0,2.3-1,2.3-2.3V48.4c0-1.2-1-2.3-2.3-2.3l0,0c-1.2,0-2.3,1-2.3,2.3v28.2
	C42,77.8,43.1,78.8,44.3,78.8z"/>
</svg>
