<?xml version="1.0" encoding="utf-8"?>
<!-- Generator: Adobe Illustrator 22.0.1, SVG Export Plug-In . SVG Version: 6.00 Build 0)  -->
<svg version="1.1" id="Слой_1" xmlns="http://www.w3.org/2000/svg" xmlns:xlink="http://www.w3.org/1999/xlink" x="0px" y="0px"
	 viewBox="0 0 83.5 100" style="enable-background:new 0 0 83.5 100;" xml:space="preserve">
<style type="text/css">
	.st0{fill:#0288D1;}
	.st1{fill:#FFA700;}
</style>
<path class="st0" d="M22.8,60.2L22.8,60.2c0.9,0.9,0.9,2.3,0,3.2L3.9,82.3c-0.9,0.9-2.3,0.9-3.2,0l0,0c-0.9-0.9-0.9-2.3,0-3.2
	l18.9-18.9C20.5,59.3,21.9,59.3,22.8,60.2z"/>
<path class="st0" d="M37,78.4L37,78.4c0.9,0.9,0.9,2.3,0,3.2L19.3,99.3c-0.9,0.9-2.3,0.9-3.2,0l0,0c-0.9-0.9-0.9-2.3,0-3.2
	l17.7-17.7C34.6,77.5,36.1,77.5,37,78.4z"/>
<path class="st0" d="M69.9,77.7L69.9,77.7c0.9,0.9,0.9,2.3,0,3.2L52.2,98.6c-0.9,0.9-2.3,0.9-3.2,0l0,0c-0.9-0.9-0.9-2.3,0-3.2
	l17.7-17.7C67.6,76.8,69,76.8,69.9,77.7z"/>
<path class="st0" d="M19.2,99.4L19.2,99.4c-0.9,0.8-2.4,0.8-3.2-0.2l-15.3-17c-0.8-0.9-0.8-2.4,0.2-3.2l0,0c0.9-0.8,2.4-0.8,3.2,0.2
	l15.3,17C20.2,97.1,20.1,98.6,19.2,99.4z"/>
<path class="st0" d="M52.2,98.7L52.2,98.7c-0.9,0.8-2.4,0.8-3.2-0.2l-15.3-17c-0.8-0.9-0.8-2.4,0.2-3.2l0,0c0.9-0.8,2.4-0.8,3.2,0.2
	l15.3,17C53.2,96.4,53.1,97.9,52.2,98.7z"/>
<path class="st0" d="M78.1,90.2L78.1,90.2C77.2,91,75.7,91,74.9,90l-8.3-9.2c-0.8-0.9-0.8-2.4,0.2-3.2l0,0c0.9-0.8,2.4-0.8,3.2,0.2
	l8.3,9.2C79.1,87.9,79.1,89.4,78.1,90.2z"/>
<path class="st0" d="M22,63.8L22,63.8c-1.2,0.4-2.5-0.2-2.9-1.4l-9.1-27c-0.4-1.2,0.2-2.5,1.4-2.9l0,0c1.2-0.4,2.5,0.2,2.9,1.4
	l9.1,27C23.8,62.1,23.2,63.4,22,63.8z"/>
<path class="st0" d="M50.5,72L50.5,72c-0.4,1.2-1.7,1.8-2.9,1.4l-26.9-9.6c-1.2-0.4-1.8-1.7-1.4-2.9l0,0c0.4-1.2,1.7-1.8,2.9-1.4
	l26.9,9.6C50.3,69.6,50.9,70.9,50.5,72z"/>
<path class="st0" d="M38.3,8.1L38.3,8.1c0.9,0.9,0.9,2.3,0,3.2L13.9,35.8c-0.9,0.9-2.3,0.9-3.2,0l0,0c-0.9-0.9-0.9-2.3,0-3.2
	L35.1,8.1C36,7.2,37.4,7.2,38.3,8.1z"/>
<path class="st0" d="M58.3,0.7L58.3,0.7c0.9,0.9,0.9,2.3,0,3.2l-12.9,13c-0.9,0.9-2.3,0.9-3.2,0l0,0c-0.9-0.9-0.9-2.3,0-3.2l12.9-13
	C56-0.2,57.4-0.2,58.3,0.7z"/>
<path class="st0" d="M66.2,2.3L66.2,2.3c0,1.3-1,2.3-2.3,2.3h-7.1c-1.3,0-2.3-1-2.3-2.3l0,0c0-1.3,1-2.3,2.3-2.3H64
	C65.2,0,66.2,1,66.2,2.3z"/>
<path class="st0" d="M63.7,0h0.4c1.2,0,2.1,0.9,2.1,2.1v5.5c0,1.2-0.9,2.1-2.1,2.1h-0.4c-1.2,0-2.1-0.9-2.1-2.1V2.1
	C61.7,0.9,62.6,0,63.7,0z"/>
<path class="st0" d="M65.3,6.3L65.3,6.3c0.9,0.9,0.9,2.3,0,3.2l-13,13c-0.9,0.9-2.3,0.9-3.2,0l0,0c-0.9-0.9-0.9-2.3,0-3.2l13-13
	C62.9,5.4,64.4,5.4,65.3,6.3z"/>
<path class="st0" d="M75.6,18.1L75.6,18.1c0.9,0.9,0.9,2.3,0,3.2l-12.9,13c-0.9,0.9-2.3,0.9-3.2,0l0,0c-0.9-0.9-0.9-2.3,0-3.2
	l12.9-12.9C73.3,17.2,74.8,17.2,75.6,18.1z"/>
<path class="st0" d="M83.6,19.7L83.6,19.7c0,1.3-1,2.3-2.3,2.3h-7.1c-1.3,0-2.3-1-2.3-2.3l0,0c0-1.3,1-2.3,2.3-2.3h7.1
	C82.5,17.4,83.6,18.4,83.6,19.7z"/>
<path class="st0" d="M81.1,17.4h0.4c1.2,0,2.1,0.9,2.1,2.1V25c0,1.2-0.9,2.1-2.1,2.1h-0.4c-1.2,0-2.1-0.9-2.1-2.1v-5.5
	C79,18.3,79.9,17.4,81.1,17.4z"/>
<path class="st0" d="M82.6,23.7L82.6,23.7c0.9,0.9,0.9,2.3,0,3.2l-12.9,13c-0.9,0.9-2.3,0.9-3.2,0l0,0c-0.9-0.9-0.9-2.3,0-3.2
	l12.9-12.9C80.3,22.8,81.7,22.8,82.6,23.7z"/>
<path class="st0" d="M78.7,51.1L78.7,51.1c-0.9,0.9-2.3,0.9-3.2,0l-44-44c-0.9-0.9-0.9-2.3,0-3.2l0,0c0.9-0.9,2.3-0.9,3.2,0
	l43.9,43.9C79.6,48.7,79.6,50.2,78.7,51.1z"/>
<path class="st0" d="M69.2,53.5l-0.3,0.3c-0.8,0.8-2.2,0.8-3,0L29.6,17.4c-0.8-0.8-0.8-2.2,0-3l0.3-0.3c0.8-0.8,2.2-0.8,3,0
	l36.4,36.4C70,51.4,70,52.7,69.2,53.5z"/>
<path class="st1" d="M47.4,56.6L47.4,56.6c-0.9,0.9-2.3,0.9-3.2,0L26.4,38.9c-0.9-0.9-0.9-2.3,0-3.2l0,0c0.9-0.9,2.3-0.9,3.2,0
	l17.7,17.7C48.3,54.2,48.3,55.7,47.4,56.6z"/>
<path class="st1" d="M30.1,55.8L30.1,55.8c-1.3,0.1-2.4-0.8-2.5-2l-1.9-16.2c-0.1-1.2,0.8-2.4,2-2.5l0,0c1.2-0.1,2.4,0.8,2.5,2
	l1.9,16.2C32.3,54.6,31.4,55.7,30.1,55.8z"/>
<path class="st1" d="M27.8,53.4L27.8,53.4c-0.1,1.3,0.8,2.4,2,2.5l15.7,1.4c1.2,0.1,2.3-0.8,2.4-2v-0.1c0.1-1.2-0.8-2.3-2-2.4
	l-15.7-1.4C29,51.2,27.9,52.1,27.8,53.4z"/>
<path class="st0" d="M75.2,44.3L75.2,44.3c0.9,0.9,0.9,2.3,0,3.2L49.8,72.9c-0.9,0.9-2.3,0.9-3.2,0l0,0c-0.9-0.9-0.9-2.3,0-3.2
	L72,44.3C72.8,43.4,74.3,43.4,75.2,44.3z"/>
</svg>
