<?xml version="1.0" encoding="utf-8"?>
<!-- Generator: Adobe Illustrator 22.0.1, SVG Export Plug-In . SVG Version: 6.00 Build 0)  -->
<svg version="1.1" id="Слой_1" xmlns="http://www.w3.org/2000/svg" xmlns:xlink="http://www.w3.org/1999/xlink" x="0px" y="0px"
	 viewBox="0 0 100 100" style="enable-background:new 0 0 100 100;" xml:space="preserve">
<style type="text/css">
	.st0{fill:#0288D1;}
	.st1{fill:#FFA700;}
</style>
<path class="st0" d="M97.7,100L97.7,100c-1.2,0-2.3-1-2.3-2.3V51.5c0-1.2,1-2.3,2.3-2.3h0c1.2,0,2.3,1,2.3,2.3v46.3
	C100,99,99,100,97.7,100z"/>
<path class="st0" d="M74.2,100L74.2,100c-1.2,0-2.3-1-2.3-2.3V51.5c0-1.2,1-2.3,2.3-2.3l0,0c1.2,0,2.3,1,2.3,2.3v46.3
	C76.5,99,75.5,100,74.2,100z"/>
<path class="st0" d="M94,29.6L94,29.6c-1.2,0-2.3-1-2.3-2.3V16.7c0-1.2,1-2.3,2.3-2.3h0c1.2,0,2.3,1,2.3,2.3v10.6
	C96.3,28.6,95.3,29.6,94,29.6z"/>
<path class="st0" d="M95.1,23L95.1,23c-0.4,1.2-1.7,1.8-2.9,1.4l-12.2-4c-1.2-0.4-1.8-1.7-1.4-2.9v0c0.4-1.2,1.7-1.8,2.9-1.4l12.2,4
	C94.8,20.5,95.5,21.8,95.1,23z"/>
<path class="st0" d="M78.6,29.6L78.6,29.6c-1.2,0-2.3-1-2.3-2.3V16.7c0-1.2,1-2.3,2.3-2.3h0c1.2,0,2.3,1,2.3,2.3v10.6
	C80.8,28.6,79.8,29.6,78.6,29.6z"/>
<path class="st0" d="M86.3,57.1L86.3,57.1c-1.2,0-2.3-1-2.3-2.3V43.5c0-1.2,1-2.3,2.3-2.3h0c1.2,0,2.3,1,2.3,2.3v11.4
	C88.5,56.1,87.5,57.1,86.3,57.1z"/>
<path class="st0" d="M56.3,60.6L56.3,60.6c-0.6-1.2-0.2-2.5,0.9-3.1l16-8.1c1.1-0.6,2.5-0.1,3.1,1l0,0c0.6,1.1,0.1,2.4-1,3
	l-16.1,8.1C58.2,62.2,56.8,61.7,56.3,60.6z"/>
<path class="st0" d="M99.5,39.3L99.5,39.3c-0.3,1.2-1.5,2-2.7,1.7l-11.1-2.4c-1.2-0.3-2-1.5-1.7-2.7v0c0.3-1.2,1.5-2,2.7-1.7
	l11.1,2.4C99,36.8,99.8,38,99.5,39.3z"/>
<path class="st0" d="M88.5,35.9L88.5,35.9c-0.3-1.2-1.5-2-2.7-1.7l-15,3.3c-1.2,0.3-2,1.5-1.7,2.7v0c0.3,1.2,1.5,2,2.7,1.7l15-3.3
	C88,38.3,88.7,37.1,88.5,35.9z"/>
<path class="st0" d="M72.5,37.8L72.5,37.8c-1.1-0.7-2.5-0.4-3.2,0.7l-13,19.8c-0.7,1-0.4,2.4,0.6,3.1l0.1,0c1,0.7,2.4,0.4,3.1-0.6
	l13.1-19.8C73.8,39.8,73.5,38.5,72.5,37.8z"/>
<path class="st0" d="M72.9,67L72.9,67c0-1.2,1-2.3,2.3-2.3h21.6c1.2,0,2.3,1,2.3,2.3v0c0,1.2-1,2.3-2.3,2.3H75.1
	C73.9,69.2,72.9,68.2,72.9,67z"/>
<path class="st0" d="M76.6,17.8L76.6,17.8c-0.6-1.1-0.3-2.5,0.8-3.1l7.7-4.4c1.1-0.6,2.5-0.3,3.1,0.8v0c0.6,1.1,0.3,2.5-0.8,3.1
	l-7.7,4.4C78.6,19.3,77.2,18.9,76.6,17.8z"/>
<path class="st0" d="M96,17.8L96,17.8c0.6-1.1,0.3-2.5-0.8-3.1l-7.6-4.4c-1.1-0.6-2.5-0.3-3.1,0.8v0c-0.6,1.1-0.3,2.5,0.8,3.1
	l7.6,4.4C94,19.3,95.4,18.9,96,17.8z"/>
<path class="st0" d="M76.6,26.2L76.6,26.2c-0.6,1.1-0.3,2.5,0.8,3.1l7.7,4.4c1.1,0.6,2.5,0.3,3.1-0.8v0c0.6-1.1,0.3-2.5-0.8-3.1
	l-7.7-4.4C78.6,24.8,77.2,25.2,76.6,26.2z"/>
<path class="st0" d="M96,26.2L96,26.2c0.6,1.1,0.3,2.5-0.8,3.1l-7.6,4.4c-1.1,0.6-2.5,0.3-3.1-0.8l0,0c-0.6-1.1-0.3-2.5,0.8-3.1
	l7.6-4.4C94,24.8,95.4,25.2,96,26.2z"/>
<path class="st0" d="M73.2,99.8L73.2,99.8c-1.1-0.6-1.6-1.9-1-3l11.7-23.1c0.6-1.1,1.9-1.6,3-1l0,0c1.1,0.6,1.6,1.9,1,3L76.3,98.8
	C75.7,99.9,74.3,100.3,73.2,99.8z"/>
<path class="st0" d="M98.7,99.8L98.7,99.8c1.1-0.6,1.6-1.9,1-3L88.2,73.9c-0.6-1.1-1.9-1.6-3-1l0,0c-1.1,0.6-1.6,1.9-1,3l11.6,22.8
	C96.3,99.9,97.6,100.3,98.7,99.8z"/>
<path class="st0" d="M2.3,100L2.3,100c1.2,0,2.3-1,2.3-2.3V51.5c0-1.2-1-2.3-2.3-2.3h0c-1.2,0-2.3,1-2.3,2.3l0,46.3
	C0,99,1,100,2.3,100z"/>
<path class="st0" d="M25.8,100L25.8,100c1.2,0,2.3-1,2.3-2.3V51.5c0-1.2-1-2.3-2.3-2.3h0c-1.2,0-2.3,1-2.3,2.3v46.3
	C23.5,99,24.5,100,25.8,100z"/>
<path class="st0" d="M6,29.6L6,29.6c1.2,0,2.3-1,2.3-2.3V16.7c0-1.2-1-2.3-2.3-2.3h0c-1.2,0-2.3,1-2.3,2.3v10.6
	C3.7,28.6,4.7,29.6,6,29.6z"/>
<path class="st0" d="M4.9,23L4.9,23c0.4,1.2,1.7,1.8,2.9,1.4l12.2-4c1.2-0.4,1.8-1.7,1.4-2.9l0,0c-0.4-1.2-1.7-1.8-2.9-1.4l-12.2,4
	C5.2,20.5,4.5,21.8,4.9,23z"/>
<path class="st0" d="M21.4,29.6L21.4,29.6c1.2,0,2.3-1,2.3-2.3V16.7c0-1.2-1-2.3-2.3-2.3h0c-1.2,0-2.3,1-2.3,2.3v10.6
	C19.2,28.6,20.2,29.6,21.4,29.6z"/>
<path class="st0" d="M13.7,57.1L13.7,57.1c1.2,0,2.3-1,2.3-2.3V43.5c0-1.2-1-2.3-2.3-2.3h0c-1.2,0-2.3,1-2.3,2.3v11.4
	C11.5,56.1,12.5,57.1,13.7,57.1z"/>
<path class="st0" d="M43.7,60.6L43.7,60.6c0.6-1.2,0.2-2.5-0.9-3.1l-16-8.1c-1.1-0.6-2.5-0.1-3.1,1l0,0c-0.6,1.1-0.1,2.4,1,3
	l16.1,8.1C41.8,62.2,43.2,61.7,43.7,60.6z"/>
<path class="st0" d="M0.5,39.3L0.5,39.3c0.3,1.2,1.5,2,2.7,1.7l11.1-2.4c1.2-0.3,2-1.5,1.7-2.7l0,0c-0.3-1.2-1.5-2-2.7-1.7L2.2,36.6
	C1,36.8,0.2,38,0.5,39.3z"/>
<path class="st0" d="M11.5,35.9L11.5,35.9c0.3-1.2,1.5-2,2.7-1.7l15,3.3c1.2,0.3,2,1.5,1.7,2.7l0,0c-0.3,1.2-1.5,2-2.7,1.7l-15-3.3
	C12,38.3,11.3,37.1,11.5,35.9z"/>
<path class="st0" d="M27.5,37.8L27.5,37.8c1.1-0.7,2.5-0.4,3.2,0.7l13,19.8c0.7,1,0.4,2.4-0.6,3.1l-0.1,0c-1,0.7-2.4,0.4-3.1-0.6
	L26.9,40.9C26.2,39.8,26.5,38.5,27.5,37.8z"/>
<path class="st0" d="M27.1,67L27.1,67c0-1.2-1-2.3-2.3-2.3H3.3C2,64.7,1,65.7,1,67v0c0,1.2,1,2.3,2.3,2.3h21.6
	C26.1,69.2,27.1,68.2,27.1,67z"/>
<path class="st0" d="M23.4,17.8L23.4,17.8c0.6-1.1,0.3-2.5-0.8-3.1l-7.7-4.4c-1.1-0.6-2.5-0.3-3.1,0.8l0,0c-0.6,1.1-0.3,2.5,0.8,3.1
	l7.7,4.4C21.4,19.3,22.8,18.9,23.4,17.8z"/>
<path class="st0" d="M4,17.8L4,17.8c-0.6-1.1-0.3-2.5,0.8-3.1l7.6-4.4c1.1-0.6,2.5-0.3,3.1,0.8l0,0c0.6,1.1,0.3,2.5-0.8,3.1
	l-7.6,4.4C6,19.3,4.6,18.9,4,17.8z"/>
<path class="st0" d="M23.4,26.2L23.4,26.2c0.6,1.1,0.3,2.5-0.8,3.1l-7.7,4.4c-1.1,0.6-2.5,0.3-3.1-0.8l0,0c-0.6-1.1-0.3-2.5,0.8-3.1
	l7.7-4.4C21.4,24.8,22.8,25.2,23.4,26.2z"/>
<path class="st0" d="M4,26.2L4,26.2c-0.6,1.1-0.3,2.5,0.8,3.1l7.6,4.4c1.1,0.6,2.5,0.3,3.1-0.8l0,0c0.6-1.1,0.3-2.5-0.8-3.1
	l-7.6-4.4C6,24.8,4.6,25.2,4,26.2z"/>
<path class="st0" d="M26.8,99.8L26.8,99.8c1.1-0.6,1.6-1.9,1-3L16.1,73.6c-0.6-1.1-1.9-1.6-3-1h0c-1.1,0.6-1.6,1.9-1,3l11.7,23.1
	C24.3,99.9,25.7,100.3,26.8,99.8z"/>
<path class="st0" d="M1.3,99.8L1.3,99.8c-1.1-0.6-1.6-1.9-1-3l11.6-22.8c0.6-1.1,1.9-1.6,3-1h0c1.1,0.6,1.6,1.9,1,3L4.3,98.8
	C3.7,99.9,2.4,100.3,1.3,99.8z"/>
<path class="st1" d="M50.2,47.2L50.2,47.2c-1.2,0-2.1-0.9-2.1-2.1v-9.4c0-1.2,0.9-2.1,2.1-2.1h0c1.2,0,2.1,0.9,2.1,2.1v9.4
	C52.3,46.3,51.4,47.2,50.2,47.2z"/>
<path class="st1" d="M43.7,13.6L43.7,13.6c-1.2,0-2.1-0.9-2.1-2.1V2.1c0-1.2,0.9-2.1,2.1-2.1h0c1.2,0,2.1,0.9,2.1,2.1v9.4
	C45.8,12.7,44.9,13.6,43.7,13.6z"/>
<path class="st1" d="M56.6,13.6L56.6,13.6c-1.2,0-2.1-0.9-2.1-2.1V2.1c0-1.2,0.9-2.1,2.1-2.1h0c1.2,0,2.1,0.9,2.1,2.1v9.4
	C58.7,12.7,57.7,13.6,56.6,13.6z"/>
<path class="st1" d="M37.3,19.6v-0.3c0-1.1,0.9-1.9,1.9-1.9h21.6c1.1,0,1.9,0.9,1.9,1.9v0.3c0,1.1-0.9,1.9-1.9,1.9H39.2
	C38.1,21.6,37.3,20.7,37.3,19.6z"/>
<path class="st1" d="M61.5,31.8L61.5,31.8c-1.2,0-2.1-0.9-2.1-2.1V12.2c0-1.2,0.9-2.1,2.1-2.1h0c1.2,0,2.1,0.9,2.1,2.1v17.6
	C63.6,30.9,62.6,31.8,61.5,31.8z"/>
<path class="st1" d="M48.3,36.8L48.3,36.8c-0.5-1-0.1-2.3,0.9-2.8L60.5,28c1-0.5,2.3-0.1,2.8,0.9l0,0c0.5,1,0.1,2.3-0.9,2.8
	l-11.3,5.9C50.1,38.2,48.9,37.8,48.3,36.8z"/>
<path class="st1" d="M38.8,31.8L38.8,31.8c1.2,0,2.1-0.9,2.1-2.1V12.2c0-1.2-0.9-2.1-2.1-2.1h0c-1.2,0-2.1,0.9-2.1,2.1v17.6
	C36.7,30.9,37.6,31.8,38.8,31.8z"/>
<path class="st1" d="M51.9,36.8L51.9,36.8c0.5-1,0.1-2.3-0.9-2.8L39.8,28c-1-0.5-2.3-0.1-2.8,0.9l0,0c-0.5,1-0.1,2.3,0.9,2.8
	l11.3,5.9C50.1,38.2,51.4,37.8,51.9,36.8z"/>
<path class="st1" d="M35,12.1L35,12.1c0-1.2,0.9-2.1,2.1-2.1h25.8c1.2,0,2.1,0.9,2.1,2.1v0c0,1.2-0.9,2.1-2.1,2.1H37.1
	C35.9,14.2,35,13.3,35,12.1z"/>
</svg>
