<?xml version="1.0" encoding="utf-8"?>
<!-- Generator: Adobe Illustrator 22.0.1, SVG Export Plug-In . SVG Version: 6.00 Build 0)  -->
<svg version="1.1" id="svg2287" xmlns:svg="http://www.w3.org/2000/svg"
	 xmlns="http://www.w3.org/2000/svg" xmlns:xlink="http://www.w3.org/1999/xlink" x="0px" y="0px" viewBox="0 0 635.6 381.8"
	 style="enable-background:new 0 0 635.6 381.8;" xml:space="preserve">
<style type="text/css">
	.st0{fill:#2857AF;}
	.st1{fill:#173A78;}
</style>
<g id="layer1" transform="translate(-47.836681,-348.16307)">
	<g id="g2305" transform="translate(17.639488,17.647201)">
		<path id="path28" class="st0" d="M318.7,330.4c-56.9,0-103.1,46.2-103.1,103.1c0,23.6,7.9,45.2,21.2,62.5l85.7-112.7l-9.2,0.1
			h-9.2c-9.8,0-18.9,0.7-25.6,1.9c-4,0.8-7.5,2.2-10.5,4.3c-3.5,2.4-7.7,7.5-10.6,12.5c-0.3,0.5-0.8,1.5-1.4,2.7l-5-1.2l8.4-32.4
			h107.4l-85.3,114.1c5.5-0.5,7.7-0.6,12.2-0.6c3.5,0,8.7,0.2,15.7,0.7l15.2,0.8c5.5,0.4,10.1,0.5,13.6,0.5c7.8,0,12.9-0.6,17.9-2.2
			c3.9-1.2,7.6-3,11-5.3c6-4.2,11.8-10.9,15.3-17.5c0.3-0.7,0.8-1.7,1.5-3.1l4.6,1.2c-1.5,5.7-2.3,7.9-4.5,12.9
			c-4.6,10.2-9.8,17-16.9,22.3c-7.3,5.4-15.4,8.1-25,8.2h-1.4c-7.1,0-12.6-0.6-29.6-3.2c-17.3-2.6-26-3.5-34.7-3.5
			c-5.8,0-11.2,0.5-16.8,1.4c-7.4,1.2-10.3,2-17,5.1c18.8,20.6,45.9,33.4,75.9,33.4c57,0,103.1-46.1,103.1-103.1
			C421.9,376.6,375.7,330.4,318.7,330.4"/>
		<path id="path30" class="st1" d="M124.6,608.3h-79l-9.8,21.5c3.2-1.8,4.5-2.4,7.4-3.5c4.5-1.8,9.4-3.2,14.3-4.1
			c4.1-0.7,7.9-1,14.1-1.2c2.8-0.2,5.4-0.2,7.9-0.2h11.6l-61.5,87.9h86.9l10.1-23c-3.5,2-4.8,2.7-7.4,3.9c-5.1,2.3-10.6,4-16.3,5
			c-4.5,0.8-9.6,1.2-15.8,1.4c-2.1,0.1-4.8,0.1-8,0.1H63.8L124.6,608.3"/>
		<path id="path32" class="st1" d="M389.9,708.9c-1.5-1.4-2.1-2-3.1-3.5c-0.7-1-1.2-2.1-1.6-3.1c-0.8-2.3-1.4-5.6-1.4-8.9v-60.5
			l0.1-5.9c0.1-6.7,0.2-8.6,1.1-11.3c0.3-1.1,0.8-2.1,1.4-3.1c1.1-1.8,1.8-2.5,3.9-4.2h-32.3c2.1,1.8,2.8,2.5,3.7,4
			c0.7,1,1.2,2.2,1.5,3.2c0.8,2.5,1,4.9,1.1,10.9c0,3.1,0,5.1,0,6v60.2c0,3.5-0.6,7.3-1.5,9.8c-0.5,1-1,2-1.6,2.9
			c-0.8,1.1-1.3,1.7-3.1,3.5H389.9"/>
		<path id="path34" class="st1" d="M490.8,609.3c-2.5-0.8-3.5-1.1-6.1-1.6c-5.8-1.2-11.4-1.8-17.7-1.8c-10.8,0-20.1,1.7-28.7,5.3
			c-5,2.1-9.7,4.9-13.8,8.2c-12.4,10-19.1,24.4-19.1,41.1c0,16.1,6.5,30,18.3,39.4c9.8,7.7,22.4,11.6,37.5,11.6
			c9.5,0,18.3-1.4,28.3-4.5c0.3-0.1,0.9-0.2,1.6-0.5v-18.3c-2.4,1.5-3.2,2.1-4.7,2.9c-1.9,1.2-4,2.2-6.2,3.1
			c-6.1,2.5-11.6,3.8-17.6,3.8c-10.4,0-19.3-3.7-25.9-10.9c-6.5-7-10-16.8-10-27.8c0-10.6,3.2-20.3,9.1-27.1c2.5-3,5.5-5.5,9.1-7.5
			c5.7-3.2,12.2-4.8,19.4-4.8c6.2,0,12.1,1.2,18.1,3.6c3.7,1.5,5.1,2.2,8.2,4.5V609.3"/>
		<path id="path36" class="st1" d="M578.9,663.3v24.5c0,5.5-0.1,7.4-0.5,10.2c-0.2,1.5-0.5,3-1.1,4.3c-0.7,1.8-1.8,3.6-3.6,5.2
			c-0.3,0.3-0.8,0.8-1.4,1.3h32.1c-1.3-1.3-1.8-1.9-2.7-3.2c-0.8-1.1-1.5-2.2-1.8-3.2c-1-2.4-1.2-4.2-1.3-9.1
			c-0.1-3-0.1-4.7-0.1-5.2l0.1-55.3v-5.9c0-4.4,0.3-7.9,1.1-10.6c0.4-1.3,0.9-2.5,1.6-3.7c1-1.7,1.8-2.5,3.9-4.2h-32.7
			c1.8,1.6,2.5,2.3,3.6,4.2c0.8,1.2,1.3,2.3,1.7,3.5c0.8,2.4,1.1,5.2,1.1,10.6v24.4h-45.1v-18.3c0-5.5,0.1-9.2,0.3-11.9
			c0.1-1.6,0.4-3.1,0.8-4.3c0.7-2.2,2.5-5.2,4.2-6.9c0.2-0.2,0.6-0.5,1.2-1.1h-32.2c1.9,2,2.4,2.6,3.3,3.9c0.7,1,1.2,2.2,1.7,3.4
			c0.8,2.5,1,3.9,1.1,10.6l0.1,6.3v55c0,5.6-0.1,8.1-0.4,10.6c-0.2,1.3-0.5,2.6-1,3.9c-0.8,2.2-2,3.9-3.9,5.7
			c-0.2,0.2-0.6,0.5-1.1,1h31.8c-1.4-1.5-1.9-2.1-2.7-3.3c-0.6-1-1.2-2-1.6-3.2c-1-2.6-1.4-4.5-1.5-8.8c-0.1-2.2-0.1-4.2-0.1-6
			v-24.3H578.9"/>
		<path id="path44" class="st1" d="M285.6,657.2c1.5,0,3.2-0.2,5.2-0.5c5.4-0.8,9.1-2,12.6-4.1c1.9-1.2,3.5-2.4,4.7-3.8
			c2.6-2.9,3.9-6.8,3.9-11.3c0-5.2-1.8-9.5-5.2-12.4c-1.9-1.6-4.3-2.9-6.8-3.6c-3.9-1.1-8.6-1.6-13.6-1.6c-0.8,0-1.4,0-2.6,0v37.2
			C284.8,657.2,285.1,657.2,285.6,657.2z M284,688.2c0,1.8,0,3.5,0,5c0.1,4.6,0.5,7.1,1.3,9.3c0.5,1,1,2.1,1.8,3
			c0.8,1.2,1.3,1.8,2.8,3.3h-32c1.8-1.7,2.5-2.3,3.3-3.5c0.8-0.9,1.3-2,1.8-3.2c0.8-2.2,1.2-4.9,1.2-9.7v-65.9c0-5.3-0.3-8.5-1-10.7
			c-0.4-1.3-1-2.5-1.8-3.6c-0.9-1.5-1.5-2.2-3.4-3.9h26c3.2,0,6.3,0.1,9.3,0.2c8,0.2,12.7,0.7,17.2,1.8c6.5,1.5,12.2,4.7,16.3,9
			c4.5,4.7,6.8,10.3,6.8,16.5c0,2.6-0.4,5.2-1.2,7.7c-1.5,4.5-3.9,8.2-7.9,11.5c-3.5,2.9-7.4,5.2-12.4,7.2c-1.8,0.7-2.5,1-4.5,1.5
			l15.6,18.4c1.8,2.2,4.3,4.9,7.3,8.2c4.7,5.1,7.9,8.3,11.3,11.6c1.5,1.5,3,2.8,4.4,4c1.3,1.1,1.9,1.6,3.6,3h-12.6
			c-1.9,0-3.6,0-5.2-0.1c-4.4-0.2-7.1-0.8-10-2.4c-3.4-1.8-6.8-4.5-10.4-8.2c-1.1-1.1-2.7-2.9-4.9-5.4c-1.9-2.2-3.3-3.8-4.2-4.9
			L284,665.6V688.2"/>
		<path id="path46" class="st1" d="M241.6,608.4h-32c1.9,1.5,2.6,2.2,3.6,3.9c0.7,1.1,1.2,2.2,1.5,3.4c0.6,2.5,0.8,4.9,0.8,10.6
			v38.2c0,8.2-0.2,13-0.8,17c-0.4,2.7-1.3,5.2-2.6,7.4c-2.4,4.1-6.9,7.2-12.3,8.6c-2.2,0.5-4.5,0.8-7.2,0.8c-8.6,0-16-3.2-19.6-8.5
			c-2.8-4.2-3.6-8-3.7-18.3l-0.1-8.3v-30.3c0-5.9,0.1-8.7,0.2-11.7c0.2-1.8,0.4-3.3,0.8-4.5c0.7-2.3,2.4-5.4,4.1-7.3
			c0.2-0.2,0.4-0.5,0.8-0.8h-32.7c2,1.6,2.7,2.4,3.6,4.1c0.7,1.1,1.2,2.2,1.5,3.5c0.4,1.5,0.6,3.1,0.6,4.6c0.1,1,0.1,3.1,0.1,6.2
			l0.1,5.8v28.8c0,10.7,0,13.4,0.4,17.7c0.6,7.3,2.9,13.2,7.1,18.5c7.5,9.6,19.8,14.6,35.4,14.6c7.5,0,14.6-1.2,20.2-3.2
			c5.8-2.2,11.1-5.7,14.9-10c4.6-5.2,7.3-11.6,8.1-19.5c0.5-4.6,0.7-10,0.7-17.9v-28.9L235,627v-1.2c0-4.3,0.2-6.9,0.8-9.2
			c0.4-1.5,0.9-2.9,1.8-4.1C238.7,610.9,239.4,610.1,241.6,608.4"/>
		<path id="path48" class="st1" d="M640.1,575.8h2.7c2.9,0,6.3-1.1,6.3-4.6c0-4.2-3-4.4-6.4-4.4h-2.6V575.8z M637.6,564.6h6.5
			c4.5,0,7.4,1.9,7.4,6.5c0,3.2-2.5,5.5-5.6,5.9v0.1c2,0.2,3.1,1.3,3.9,3.1l4.3,9.8h-2.8l-3.6-8.6c-1.5-3.2-3.2-3.3-5.5-3.3h-2.1
			v11.9h-2.5V564.6"/>
		<path id="path50" class="st1" d="M645,595.5c-10.2,0-18.4-8.2-18.4-18.3c0-10.2,8.2-18.5,18.4-18.5s18.4,8.3,18.4,18.5
			C663.4,587.3,655.2,595.5,645,595.5z M645,556.4c-11.4,0-20.8,9.3-20.8,20.8c0,11.4,9.4,20.7,20.8,20.7c11.5,0,20.8-9.3,20.8-20.7
			C665.8,565.7,656.5,556.4,645,556.4"/>
	</g>
</g>
</svg>
